<svg xmlns="http://www.w3.org/2000/svg" width="1563" height="1563"><path d="M0 0h1563v1563H0V0Z" fill="#EAEAEA"/><path d="M275.84 578.89c7.524 3.395 12.313 8.356 15.512 15.959 1.27 4.216 1.047 8.537 1.02 12.905.016 2.092.034 4.184.052 6.275.01 3.274.013 6.548.012 9.822.003 3.177.03 6.352.06 9.528l-.025 2.955c.065 5.882.668 9.156 4.529 13.666 3.579 3.145 6.61 4.12 11.329 4.142l2.641.021 2.85.013 6 .072c3.147.035 6.293.064 9.44.078 3.041.015 6.082.056 9.123.1l2.813-.006c7.277.135 13.41 1.79 19.109 6.475 5.613 6.856 8.279 12.48 7.972 21.468-.749 7.12-4.816 13.148-10.277 17.637-6.488 3.709-12.094 4.56-19.477 4.469l-2.937.021c-3.07.022-6.14.02-9.211.01-4.055-.012-8.109.002-12.164.031l-2.788-.034c-6 .047-9.624.789-14.423 4.503-4.505 5.744-4.538 10.71-4.434 17.832l-.029 6.357c.009 3.311.025 6.622.048 9.933.014 3.216-.001 6.431-.019 9.648l.05 2.958c-.055 7.749-2.055 14.355-7.357 20.187-6.308 5.878-12.811 7.67-21.322 7.437-7.908-.947-12.626-5.428-17.625-11.352-2.518-3.838-3.56-7.306-3.583-11.879l-.031-2.852-.007-3.046-.076-6.432a3404.29 3404.29 0 0 1-.071-10.105c-.022-3.259-.061-6.517-.103-9.776v-3.04c-.086-6.114-.611-10.838-4.976-15.515-3.928-3.004-5.973-4.476-10.88-4.497l-2.772-.021-3.008-.013a7646.86 7646.86 0 0 1-6.297-.072c-3.311-.035-6.622-.064-9.934-.078-3.194-.015-6.388-.056-9.582-.1l-2.971.006c-7.286-.129-12.65-1.686-18.228-6.475-5.92-7.071-8.431-12.843-8.129-22.18.915-7.966 5.201-12.176 11.117-17.26 3.685-2.764 6.337-3.913 10.968-3.92l2.843-.021 3.053.003 6.427-.063c3.37-.023 6.741-.039 10.112-.045 3.258-.01 6.515-.043 9.773-.08l3.034.015c6.196-.086 10.075-.678 15.009-4.554 4.395-5.655 4.565-10.463 4.504-17.465l.028-3.006c.029-3.156.032-6.31.03-9.466.004-3.153.014-6.304.041-9.456.017-1.955.02-3.911.007-5.867.054-7.01 1.32-12.263 4.952-18.365 8.187-7.976 17.081-10.996 28.278-7.484Z" fill="#094D21"/><path d="M494 642h2l.297 2.195c1.12 7.246 2.613 11.953 8.14 17.055 5.185 3.54 9.764 4.113 15.875 4.375l2.245.117c1.814.094 3.628.177 5.443.258v1l-3.621.227c-12.928.754-12.928.754-23.379 7.773-1.489 4.369-.265 8.093.813 12.438 3.191 13.076 4.566 25.75 4.5 39.187l-.005 2.262c-.158 44.12-18.335 84.99-49.328 116.203-16.636 16.195-36.178 28.107-57.98 35.91-1.083.39-1.083.39-2.187.79-39.783 14.113-84.573 11.255-122.641-6.735-37.479-18.26-66.168-49.365-81.797-87.93l-1.077-2.651c-1.82-4.665-1.82-4.665-2.298-6.474l1-2 .883 1.494C196.399 786.785 201.836 795.86 209 804l2.14 2.469A384.758 384.758 0 0 0 218 814l2.16 2.395c26.234 27.854 66.566 44.125 104.407 45.713 32.71.727 70.196-4.09 95.183-27.295 12.632-13.343 17.88-29.422 17.52-47.524-1.078-23.607-17.88-45.23-33.676-61.555-2.356-2.483-4.501-5.029-6.594-7.734 10.378 4.829 18.81 13.18 27 21l2.406 2.246c5.357 5.14 9.785 10.751 14.242 16.656 1.989 2.62 3.993 5.2 6.102 7.723.49.59.98 1.18 1.484 1.79 5.576 5.007 11.194 5.106 18.348 4.933 6.221-.633 9.702-2.523 13.945-7.035 2.62-3.26 4.148-6.745 5.473-10.688l.747-2.194c5.225-16.07 8.189-32.136 7.363-49.037-.113-2.452-.166-4.9-.212-7.355-.047-1.596-.096-3.193-.148-4.789l-.042-2.166c-.283-5.92-2.051-11.355-6.26-15.678-4.78-4.053-10.4-4.68-16.448-5.406l-2.707-.336A352.211 352.211 0 0 0 462 667v-1l2.781-.113c9.244-.495 17.343-1.01 24.219-7.887 3.725-5.277 4.71-9.592 5-16Z" fill="#3CB5FC"/><path d="M939 742h25c1.246 6.23 2.418 12.357 3.29 18.633l.327 2.311c.339 2.393.673 4.787 1.008 7.181l.695 4.922c.563 3.984 1.123 7.968 1.68 11.953 2.291-14.978 4.454-29.926 6-45h26v82h-15l-1-50-8 50h-15c-2.631-10.707-4.471-21.428-6.188-32.313L955 774l-1 50h-15v-82Z" fill="#3DB5FA"/><path d="M1299 744c4.81 3.936 7.583 8.342 8.287 14.52.125 2.981.155 5.949.147 8.933l.015 3.321c.007 2.313.006 4.626-.003 6.94-.008 3.51.02 7.02.052 10.532.002 2.257.001 4.513-.002 6.77l.034 3.142c-.07 7.46-1.036 15.588-5.942 21.561-5.408 4.763-10.835 5.738-17.799 5.597-5.55-.63-9.353-2.805-13.164-6.816-4.911-7.556-4.8-14.901-4.863-23.707l-.025-3.273c-.014-2.28-.024-4.56-.032-6.84a899.257 899.257 0 0 0-.062-6.968c-.042-3.37-.059-6.737-.069-10.107l-.053-3.116c.02-6.512.881-11.94 4.479-17.489 7.92-7.465 19.604-8.45 29-3Z" fill="#0F5027"/><path d="M1108.316 742.953c4.543 2.825 7.008 7.05 8.684 12.047.26 2.56.26 2.56.275 5.306l.029 3.136-.003 3.359.013 3.486c.006 2.431.006 4.863.002 7.295-.003 3.707.02 7.413.045 11.12.003 2.366.003 4.732.002 7.099l.028 3.34c-.045 7.653-.956 13.868-5.641 20.172-4.742 4.634-8.727 5.848-15.188 6.125-5.274-.196-9.487-.932-13.562-4.438-4.555-5.987-7.101-11.392-7.161-18.917l-.03-2.954-.012-3.176-.017-3.288c-.01-2.297-.016-4.593-.02-6.89-.01-3.498-.04-6.996-.072-10.494a5570.62 5570.62 0 0 1-.016-6.703l-.038-3.15c.022-7.02.572-13.144 5.303-18.705l2.063-1.66 2.063-1.715c6.257-4.353 16.52-3.363 23.253-.395Z" fill="#0E4F25"/><path d="M1313 741h17c1.296 4.538 2.42 8.775 3.29 13.371.197 1.038.395 2.077.6 3.146l.735 3.92L1337 774l1-32h16v82h-17l-6-31-1 31h-17v-83Z" fill="#0F5027"/><path d="M807 742c31 0 31 0 37 4 3.78 5.255 3.517 10.769 3.5 17l.086 2.945c.013 4.631-.029 8.03-2.992 11.742C842 780 842 780 840 780v2l1.875.313C844 783 844 783 846 786c.172 2.902.232 5.705.195 8.605l-.008 2.544c-.011 2.68-.037 5.359-.062 8.038-.01 1.818-.02 3.635-.027 5.452-.022 4.454-.057 8.907-.098 13.361h-16l-1-36-5-1v37h-17v-82Z" fill="#3DB5FB"/><path d="M640 742c31 0 31 0 36 3 4.03 5.156 4.604 10.725 4.438 17.063l.021 2.314c-.058 5.235-.998 8.988-3.459 13.623-2.188 1.438-2.188 1.438-4 2v2l1.875.813C677 784 677 784 679 787c.172 2.83.232 5.559.195 8.387l-.008 2.476c-.011 2.608-.037 5.216-.062 7.824-.01 1.77-.02 3.538-.027 5.307-.02 4.336-.06 8.67-.098 13.006h-16l-1-35-5-2v37h-17v-82Z" fill="#0C4D24"/><path d="M599 742h28c1.454 2.909 1.472 5.943 1.756 9.14l.207 2.228c.226 2.437.446 4.874.666 7.312l.466 5.074c.327 3.55.65 7.098.971 10.648.412 4.549.829 9.097 1.248 13.646.321 3.494.64 6.99.96 10.485l.46 5.03c.215 2.346.428 4.692.64 7.038l.193 2.1c.28 3.124.433 6.158.433 9.299h-16l-1-13h-10l-1 13h-15c-.452-14.972 1.167-29.69 2.723-44.563.288-2.767.568-5.536.848-8.304.337-3.329.678-6.657 1.019-9.985l.382-3.73.364-3.483.316-3.043c.358-2.977.855-5.935 1.348-8.892Z" fill="#0D4E25"/><path d="M898 742h28a692.73 692.73 0 0 1 3.508 30.105l.395 4.145c.272 2.86.542 5.719.811 8.578.345 3.66.693 7.32 1.043 10.978.27 2.837.54 5.674.808 8.511.19 2.003.38 4.006.572 6.01l.344 3.674.305 3.227c.174 2.252.214 4.514.214 6.772h-16l-1-13h-10l-1 13h-16a2611.612 2611.612 0 0 1 4.232-47.216c.336-3.403.668-6.808 1-10.212l.647-6.576.297-3.043.283-2.858.244-2.479c.365-3.213.84-6.414 1.297-9.616Z" fill="#3EB5FA"/><path d="M1161 742h16l1 67 5-1c1.378-2.756 1.163-5.018 1.205-8.102l.06-3.882.051-4.211.063-4.296c.056-3.772.105-7.543.153-11.314.05-3.848.106-7.695.161-11.543.108-7.55.209-15.101.307-22.652h16c.068 8.302.123 16.604.155 24.907.016 3.856.037 7.712.071 11.568.033 3.728.05 7.456.059 11.184a555.3 555.3 0 0 0 .032 4.246c.211 19.051.211 19.051-5.003 25.028-5.584 5.181-11.025 6.535-18.525 6.383-5.505-.624-9.289-2.816-13.164-6.691-3.141-5.074-3.874-9.639-3.852-15.548v-2.013c0-2.175.016-4.35.032-6.525l.008-4.548c.008-3.975.027-7.95.05-11.925.02-4.062.03-8.125.04-12.187.02-7.96.056-15.92.097-23.879Z" fill="#0E4E25"/><path d="M576.938 742.25c5.544 3.168 8.722 5.702 11.062 11.75.353 3.635.284 7.228.188 10.875l-.042 2.953A636.505 636.505 0 0 1 588 775c-2.646.027-5.292.047-7.938.063l-2.287.025A182.68 182.68 0 0 1 572 775c-2.12-2.12-1.418-6.62-1.563-9.563l-.13-2.443A1762.98 1762.98 0 0 1 570 757l-5 1c-.025 6.942-.043 13.883-.055 20.825-.005 2.363-.012 4.726-.02 7.09-.013 3.39-.018 6.78-.023 10.17l-.015 3.218v2.972l-.007 2.624c-.016 2.16-.016 2.16 1.12 4.101 1.975-.348 1.975-.348 4-1 1.65-3.3 1.383-6.991 1.563-10.625l.13-2.43c.107-1.981.207-3.963.307-5.945h16c.082 3.334.14 6.666.188 10l.076 2.832c.066 6.363-.206 12.616-4.575 17.69-5.677 5.113-11.57 5.957-18.939 5.787-5.007-.562-8.762-2.26-12.281-5.887-5.482-7.075-5.785-14.581-5.805-23.219l-.02-3.12c-.01-2.171-.015-4.343-.015-6.515-.004-3.294-.04-6.587-.078-9.88-.006-2.12-.01-4.24-.012-6.36l-.043-2.943c.049-7.511 1.16-15.61 6.313-21.427 6.492-5.861 15.946-7.032 24.129-3.708Z" fill="#0D4F25"/><path d="M1390.316 742.953c4.396 2.733 7.434 7.048 8.684 12.047.15 3.353.09 6.64 0 10h-16l-1-7-5-1c-.878 2.204-.878 2.204-1 5 3.502 6.35 8.89 10.926 14.156 15.814 5.844 5.631 9.242 10.872 10.375 18.995-.08 9.409-.923 16.75-6.968 24.191-5.992 4.676-12.218 4.772-19.563 4-5.312-1.588-9.118-4.196-12-9-3.69-7.476-3.239-14.8-3-23h17l1 15 6 1c-.06-1.876-.15-3.75-.25-5.625l-.14-3.164c-1.474-7.765-7.978-12.718-13.477-17.912-5.622-5.448-9.575-10.377-9.79-18.504.01-.716.02-1.432.032-2.17l.021-2.26c.252-6.391 1.88-10.872 6.604-15.365 6.45-5.067 17.043-4.252 24.316-1.047Z" fill="#0E4F26"/><path d="M754.316 742.953c4.396 2.733 7.434 7.048 8.684 12.047.15 3.353.09 6.64 0 10h-16l-1-7-5-1c-.878 2.204-.878 2.204-1 5 3.502 6.35 8.89 10.926 14.156 15.814 5.649 5.444 9.171 10.662 10.34 18.522-.162 8.42-.508 16.788-5.808 23.664-6.783 5.047-12.323 5.988-20.688 5-5.313-1.6-9.114-4.19-12-9-3.69-7.476-3.239-14.8-3-23h17l1 15h5c.11-1.707.186-3.416.25-5.125l.14-2.883c-.991-7.596-7.968-12.697-13.257-17.693-5.651-5.475-9.584-10.382-9.74-18.554l.044-2.183.032-2.27c.224-5.816 1.168-10.163 5.531-14.292 7.097-5.793 17.05-5.69 25.316-2.047Z" fill="#3FB6FA"/><path d="M1062.316 742.965c4.312 2.65 6.655 6.199 7.996 10.972.89 3.845.688 6.893.688 11.063h-17l-1-8-5 1c-.068 3.912.229 6.034 2.706 9.136a212.88 212.88 0 0 0 7.107 6.802c13.039 12.076 13.039 12.076 13.718 21.937.01 1.708 0 3.417-.031 5.125.015.85.03 1.702.047 2.578-.044 7.116-1.99 12.288-6.485 17.797-5.685 4.48-12.135 4.345-19.062 3.625-5.85-1.688-9.659-4.89-13-10-2.7-7.201-2.147-14.375-2-22h17l1 15 4 1c1.695-1.695 1.332-3.74 1.438-6.063-.16-8.85-5.294-12.843-11.31-18.668-7.216-7.022-12.091-12.293-12.628-22.769.257-6.128 1.788-11.54 5.996-16.133 6.933-6.05 17.583-6.084 25.82-2.402Z" fill="#0E4F25"/><path d="M853 742h33v16h-16v15h15v16h-15v19h17v16h-34v-82Z" fill="#3CB5FB"/><path d="M686 742h32v15h-16v17h16v15h-16v19h18v16h-34v-82Z" fill="#094C22"/><path d="M1205 742h35v16h-9v66h-17v-67h-9v-15Z" fill="#0E4F26"/><path d="M767 742h35v15h-9v67h-17v-67h-9v-15Z" fill="#3FB5FA"/><path d="M1124 742h16v68h17v14h-33v-82Z" fill="#094C21"/><path d="M472.922 709.66c4.575 2.95 8.044 7.297 10.078 12.34.9 7.33.58 14.001-4 20-4.918 5.22-9.875 8.24-17.188 8.5-6.423-.122-10.897-2.47-15.812-6.5-5.298-5.845-5.351-12.057-5.273-19.613.485-6.015 3.49-8.766 7.71-12.637 7.618-6.152 15.77-6.37 24.485-2.09Z" fill="#3CB5FB"/><path d="M1244 742h16v82h-16v-82Z" fill="#0E4F26"/><path d="M974 869c3.042-.081 6.082-.14 9.125-.188l2.594-.076c5.187-.06 8.827.287 13.281 3.264 2.673 4.01 2.71 7.284 2 12-2 3.063-2 3.063-4 5l1.875.813C1001 891 1001 891 1003 894c.343 4.258.44 6.935-1.188 10.875-2.607 3.057-5.331 3.99-9.307 4.352-.854-.01-1.708-.02-2.587-.032l-2.822-.02-2.909-.05-2.966-.027A974.057 974.057 0 0 1 974 909v-2h5l-1-35-4-1v-2Z" fill="#141414"/><path d="M653 866h9v41h5v2h-9l-1-3-1.195 1.465c-2.316 1.97-3.668 2.029-6.68 2.097l-2.555.13c-3.124-.841-4.656-2.313-6.589-4.88-1.695-3.13-1.767-6.285-1.668-9.75l.043-2.14c.257-4.961.943-8.515 4.652-11.922 3.848-1.932 7.824-1.66 11.992-1l2 1 1-13h-5v-2Z" fill="#050505"/><path d="M1142 878v4h-6l2 3c.457 4.94.213 8.122-3 12-4.25 2.5-9.175 2.6-14 3l-1 4 3.324.043c1.455.047 2.91.095 4.363.144l2.186.018c4.116.17 5.767.517 9.143 3.123C1141 910 1141 910 1141.062 913.563c-1.131 3.66-2.05 5.134-5.062 7.437-5.481 1.827-11.665 1.905-17.063-.188-2.25-2.105-3.065-3.879-3.937-6.812l4-1 .875 2.438c.858 2.695.858 2.695 3.125 3.562 5.439.556 9.525.465 14-3-.344-2.473-.344-2.473-1-5-3.807-1.903-8.516-1.358-12.715-1.523C1120 909 1120 909 1118.04 907.68c-1.758-2.843-.657-5.533-.039-8.68.319-3.007.319-3.007-1.5-4.813-2.034-2.966-2.005-4.652-1.5-8.187 1.8-2.7 3.084-4.542 6-6 3.25-.031 6.49.068 9.738.16 4.107-.201 7.202-2.16 11.262-2.16Z" fill="#0D0D0D"/><path d="m907 878 1 4-6 1 2 3c.612 3.934.15 5.722-1.75 9.25-3.853 4.29-9.825 4.248-15.25 4.75v4l3.14.113c1.37.066 2.74.132 4.11.2l2.066.068c3.052.163 5.404.474 8.133 1.885 2.462 2.753 2.16 5.023 2.016 8.574-.465 2.16-.465 2.16-2.84 4.66-5.475 3.128-10.36 3.242-16.625 2.5-2.848-1.356-3.923-2.519-6-5v-3l4-1 .875 2.438c.858 2.695.858 2.695 3.125 3.562 2.076.198 2.076.198 4.375.188l2.336.042c2.507-.252 4.122-.978 6.289-2.23v-6c-3.807-1.903-8.516-1.358-12.715-1.523C886 909 886 909 884.078 907.648c-1.682-2.571-1.39-4.659-1.078-7.648l2-3-1.438-1.375c-2.305-2.398-2.554-3.553-2.937-6.938.375-3.687.375-3.687 2-6.625 4.7-2.871 8.6-2.35 14-2.042 3.856-.023 6.712-2.02 10.375-2.02Z" fill="#121212"/><path d="M494 642h2l.297 2.195c1.12 7.246 2.613 11.953 8.14 17.055 5.185 3.54 9.764 4.113 15.875 4.375l2.245.117c1.814.094 3.628.177 5.443.258v1l-3.621.227c-12.903.801-12.903.801-23.379 7.773-3.86 5.18-4.707 10.664-5 17l-2-1c-.457-2.258-.457-2.258-.813-5.125-1.227-7.225-3.48-10.949-9.437-15.188-6.65-3.002-14.571-3.067-21.75-3.687v-1l2.781-.113c9.244-.495 17.343-1.01 24.219-7.887 3.725-5.277 4.71-9.592 5-16Z" fill="#15522C"/><path d="M942 869c3.05 1.992 4.531 3.358 5.543 6.902.32 3.143.157 5.215-1.84 7.735-1.826 1.595-3.71 2.982-5.703 4.363a963.707 963.707 0 0 0-4.375 3.25l-2.023 1.453c-1.738 1.224-1.738 1.224-2.602 3.297-.197 1.914-.197 1.914-.188 4l-.042 2.125c.065 2.12.065 2.12 2.23 3.875 1.908.355 1.908.355 4 .313l2.125.05L941 906c2.06-3.089 2.239-3.71 2.125-7.188L943 895l4-2c1.172 1.955 2.337 3.914 3.5 5.875l1.969 3.305C954 905 954 905 954 907h5v2h-9l-4-7-1.375 2.938C943 908 943 908 941 909c-9.687.938-9.687.938-13.625-1.875-2.344-3.623-2.878-5.764-2.375-10.125 2.428-3.413 4.515-5.677 8-8-.743-3.073-.743-3.073-3-4.75-2.737-3.08-3-5.167-3-9.25 3.892-6.173 8.033-7.033 15-6Z" fill="#141414"/><path d="M795 880c2.934 1.796 4.472 2.944 6 6 .084 1.594.107 3.192.098 4.79l-.01 2.85-.025 2.985-.014 3.008c-.012 2.456-.028 4.911-.049 7.367h5l-1 2c-6.625.25-6.625.25-10-2l-3 2c-2.375.336-2.375.336-5 .375l-2.625.086C782 909 782 909 780.211 907.199c-1.76-3.195-1.602-5.618-1.211-9.199 1.831-2.616 2.91-2.97 6-4 1.895-.069 3.792-.085 5.688-.063l3.011.028L796 894c-.114-1.46-.242-2.917-.375-4.375-.07-.812-.14-1.624-.21-2.46-.244-2.368-.244-2.368-2.415-4.165-3.583-.167-3.583-.167-7 0l-1 7h-5c.49-6.5.49-6.5 2.738-8.703 3.912-2.243 7.89-1.955 12.262-1.297Z" fill="#171717"/><path d="M1209 880c2.934 1.796 4.472 2.944 6 6 .136 3.005.043 5.99 0 9h-17l1 11 4.813.25 2.707.14c2.644-.132 2.644-.132 4.117-2.406L1212 902h3c-1.25 3.653-1.671 4.78-5 7-5.087.677-9.557.825-14.063-1.75-4.393-5.102-4.357-9.519-4.261-16.105.441-4.284 1.392-6.045 4.324-9.145 4.236-2.824 8.025-2.667 13-2ZM625 880c2.934 1.796 4.472 2.944 6 6 .136 3.005.043 5.99 0 9h-17l1 11 4.813.25 2.707.14c2.644-.132 2.644-.132 4.117-2.406L628 902h3c-1.25 3.653-1.671 4.78-5 7-5.087.677-9.557.825-14.063-1.75-4.393-5.102-4.357-9.519-4.261-16.105.441-4.284 1.392-6.045 4.324-9.145 4.236-2.824 8.025-2.667 13-2Z" fill="#0B0B0B"/><path d="M1095 756c2.563.25 2.563.25 5 1 1.188 2.377 1.133 3.842 1.145 6.494l.02 2.822.003 3.055.01 3.131c.005 2.188.007 4.377.007 6.565.002 3.353.02 6.706.04 10.06.003 2.123.005 4.246.005 6.37l.022 3.049-.01 2.83.005 2.492C1101 806 1101 806 1099 809c-2.625.188-2.625.188-5 0-1.213-2.425-1.133-3.984-1.145-6.693l-.02-2.953-.003-3.198-.01-3.273c-.005-2.286-.007-4.573-.007-6.86-.002-3.508-.02-7.018-.04-10.527-.003-2.217-.005-4.435-.005-6.652l-.022-3.198.01-2.953-.005-2.606C1093 758 1093 758 1095 756Z" fill="#D9E3DC"/><path d="M689 880c3.123 1.68 5.392 3.783 7 7 .125 3.563.125 3.563 0 7-1 1-1 1-4.816 1.098a762.816 762.816 0 0 1-4.746-.035l-2.444-.014c-1.998-.012-3.996-.03-5.994-.049.282 1.627.576 3.251.875 4.875l.492 2.742c.463 2.548.463 2.548 2.633 4.383 4.197.483 4.197.483 7.813-1.375 1.257-1.626 1.257-1.626 2.187-3.625h3c-.36 2.617-.756 3.77-2.707 5.605-4.136 2.516-8.622 2.136-13.293 1.395-3.797-2.712-5.893-5.472-7-10-.764-6.899-.111-11.362 4-17 4.242-2.828 8.019-2.781 13-2Z" fill="#1E1E1E"/><path d="M1342 880c3.686 1.613 4.754 2.63 7 6v9h-18l.813 4.313.457 2.425c.823 2.55 1.617 3.64 3.73 5.262 3 .667 3 .667 6 0 1.645-2.463 1.645-2.463 3-5h4c-1.25 3.653-1.671 4.78-5 7-5.061.674-9.545.802-14.063-1.688-3.347-3.995-4.216-7.658-4.187-12.812l-.016-2.781c.38-3.892 1.652-6.773 3.766-10.032 3.945-2.662 7.886-2.315 12.5-1.687Z" fill="#050505"/><path d="M1285 756c2.625.375 2.625.375 5 1 .05 7.227.086 14.453.11 21.68.01 2.46.024 4.92.04 7.38.025 3.53.036 7.059.045 10.588l.032 3.35v3.093l.014 2.732C1290 808 1290 808 1288 810c-3.536-.536-3.536-.536-5-2a75.102 75.102 0 0 1-.145-4.672l-.02-3.013-.003-3.28-.01-3.344a3137.1 3137.1 0 0 1-.007-7.019c-.002-3.59-.02-7.181-.04-10.772-.003-2.267-.005-4.535-.005-6.802l-.022-3.274.01-3.023-.005-2.669C1283 758 1283 758 1285 756Z" fill="#E4EBE7"/><path d="M1078 880h9l1 3 1.438-1.5c3.674-2.15 7.422-2.561 11.562-1.5 2.766 1.824 2.766 1.824 5 5 .605 3.791.472 7.486.313 11.313l-.069 3.11c-.059 2.528-.14 5.052-.244 7.577h4v2h-13v-2h4l-1-24c-7.301-.646-7.301-.646-10.453 1.36-2.414 4.12-2.225 8.195-2.297 12.89l-.09 2.836A472.75 472.75 0 0 0 1087 907h5v2h-14v-2h4v-25h-4v-2Z" fill="#0E0E0E"/><path d="M1178 869c2.454 1.422 3.326 2.634 5 5l1 1c.04 2 .043 4 0 6l-5 1-.367-1.934-.508-2.504-.492-2.496L1177 873c-2.229-1.114-3.53-1.165-6-1.188l-2.125-.042c-2.12.065-2.12.065-3.875 2.23-.412 3.706-.603 6.057 1.438 9.25 3.015 2.06 5.902 2.979 9.374 4.035 4.294 1.403 6.69 2.968 9.188 6.715.49 5.203-.138 8.605-3 13-4.967 3.319-11.303 2.708-17 2-3.56-2.396-4.635-3.737-5.813-7.813L1159 899l4-1 .75 3.375c.88 3.576.88 3.576 3 5.063 3.753.938 6.918 1.066 10.563-.313 1.846-1.03 1.846-1.03 2.687-3.125.448-4.032.448-4.032-1.148-7.578-2.439-1.873-4.768-2.426-7.727-3.235-5.592-1.8-8.35-2.936-11.125-8.187-.907-4.71-.685-7.903 1.875-12 4.536-4.27 10.188-3.736 16.125-3Z" fill="#0C0C0C"/><path d="M843 880h9l1 4 1.375-2c3.471-2.645 5.933-2.48 10.188-2.531 3.259.71 4.349 1.96 6.437 4.531.454 2.565.454 2.565.39 5.422l-.038 3.105-.102 3.223-.055 3.27c-.047 2.66-.113 5.32-.195 7.98h5v2h-14v-2h5c-.11-3.438-.24-6.875-.375-10.313-.03-.976-.062-1.952-.094-2.958l-.117-2.842-.095-2.619c-.19-2.545-.19-2.545-2.319-5.268-3.276-.427-5.256-.42-8.157 1.218-2.363 2.284-2.374 3.426-2.452 6.669l-.098 2.842-.043 2.958-.09 2.995A525.94 525.94 0 0 0 853 907h4v2h-14v-2h5v-25h-5v-2ZM701 880h9l1 4 1.375-2c3.471-2.645 5.933-2.48 10.188-2.531 3.259.71 4.349 1.96 6.437 4.531.454 2.565.454 2.565.39 5.422l-.038 3.105-.102 3.223-.055 3.27c-.047 2.66-.113 5.32-.195 7.98h5v2h-14v-2h5c-.11-3.438-.24-6.875-.375-10.313-.03-.976-.062-1.952-.094-2.958l-.117-2.842-.095-2.619c-.19-2.545-.19-2.545-2.319-5.268-3.276-.427-5.256-.42-8.157 1.218-2.363 2.284-2.374 3.426-2.452 6.669l-.098 2.842-.043 2.958-.09 2.995A525.94 525.94 0 0 0 711 907h4v2h-14v-2h5v-25h-5v-2Z" fill="#131313"/><path d="m651 881.563 2.063.003c2.677.6 3.438 1.099 4.937 3.434.353 2.89.51 5.487.5 8.375l.086 2.29c.015 4.237-.23 5.878-2.922 9.335-2.664 2-2.664 2-5.789 2.625C647 907 647 907 645.344 904.965c-1.687-3.72-1.785-7.023-1.719-11.028l-.035-2.142c.018-3.135.237-5.46 1.683-8.264 2.07-1.834 2.993-2.046 5.727-1.968Z" fill="#E3E3E3"/><path d="M568 869c3.699 1.574 6.03 3.476 8 7 .188 2.75.188 2.75 0 5l-5 1-1.367-6.055c-.538-2.152-.538-2.152-2.633-3.945-2.93-.28-5.155-.478-8 0-3.094 2.795-3.85 6.037-4.161 10.103a572.27 572.27 0 0 0-.089 7.272l-.063 2.54c-.032 5.14.499 8.608 3.313 13.085 1.034 1.26 1.034 1.26 3.285 1.098l2.778-.035 2.785-.028L569 906l3-6 4 1c-1.28 3.947-2.412 5.879-6 8-2.84.398-2.84.398-5.938.375l-3.09.023c-3.39-.454-5.233-1.377-7.972-3.398-3.97-5.365-4.378-10.077-4.438-16.563l-.03-2.182c.105-6.507 1.67-11.194 6.03-16.192 4.059-3.075 8.585-2.81 13.438-2.063Z" fill="#090909"/><path d="M765 742h2v15h9v67h-1v-65h-9l-.438 3.438C765 766 765 766 764 767c-1.33.098-2.666.13-4 .133l-2.438.004-2.562-.012-2.563.012-2.437-.004-2.25-.004C746 767 746 767 745 766c-.141-2.67-.042-5.324 0-8h-4c1.178 7.112 5.003 10.603 10.125 15.438l2.285 2.216A628.307 628.307 0 0 0 759 781l-1 2c-2.8-2.742-5.588-5.495-8.375-8.25l-2.406-2.355-2.305-2.286c-.702-.69-1.403-1.382-2.126-2.094-1.742-1.963-2.854-3.57-3.788-6.015.375-2.75.375-2.75 1-5 2.375-.625 2.375-.625 5-1 2 2 2 2 2 9h16c-1.1-9.968-1.1-9.968-5-19l3 1c1.688 3.563 1.688 3.563 3 7l1-12Z" fill="#C7EAFC"/><path d="M1371 880c3.125 1.688 3.125 1.688 5 4 .313 2.75.313 2.75 0 5h-5l-2-6c-2.333-.042-4.667-.04-7 0-1.27 1.053-1.27 1.053-1.188 3.438-.08 2.73-.08 2.73 2.188 4.562 1.611.486 3.24.917 4.875 1.313 3.474.999 5.013 1.586 7.75 4.062 1.568 2.993 2.119 4.318 1.375 7.625-1.813 2.813-1.813 2.813-5 5-5.251.913-9.519.842-14.188-1.813C1356 905 1356 905 1356 902h3l1 4c1.435.223 2.873.428 4.313.625l2.425.352c2.55.238 2.55.238 5.262-1.977.25-3.084.25-3.084 0-6l-2.23-.48c-10.371-2.48-10.371-2.48-13.77-7.52-.833-4-.357-5.453 1.875-8.875 4.37-2.972 7.985-3.035 13.125-2.125Z" fill="#111"/><path d="M1043 866h9v41h4v2h-13v-2h4v-39h-4v-2ZM1026 866h9v41h4v2h-13v-2h4v-39h-4v-2Z" fill="#0C0C0C"/><path d="M809 866h9v41h4v2h-14v-2h5a2460.39 2460.39 0 0 0-.262-16.553 995.11 995.11 0 0 1-.084-5.634 963.329 963.329 0 0 0-.142-8.086l-.02-2.554c-.031-2.612-.031-2.612-.492-6.173l-3-2Z" fill="#111"/><path d="M1313 880c3.293 1.28 3.95 1.926 6 5 .125 3.188.125 3.188 0 6h-5l-.438-3.438c-.174-3.37-.174-3.37-1.562-4.562-3.458-.333-3.458-.333-7 0-2.482 3.723-2.296 6.632-2.25 10.938l-.023 2.17c.014 3.782.163 6.686 2.273 9.892 4.021.277 4.021.277 8 0 1.843-1.9 1.843-1.9 3-4h3c-1.25 3.653-1.671 4.78-5 7-5.41.795-9.654.996-14.125-2.313-4.097-5.872-3.658-12.789-2.875-19.687 2.937-7.361 8.71-8.36 16-7Z" fill="#0E0E0E"/><path d="M1244 880h14v2h-4l7 20 1.75-4.375L1269 882h-4v-2h10v2h-4l-.75 3.875c-.983 4.443-2.479 8.492-4.23 12.684-1.44 3.445-2.723 6.94-4.02 10.441h-4a6473.54 6473.54 0 0 1-4.5-12.375l-1.3-3.563-1.231-3.398-1.143-3.142C1249 884 1249 884 1249 882h-5v-2Z" fill="#111"/><path d="M741 872h5v8h9v2h-9c.138 3.792.287 7.583.438 11.375l.119 3.273.127 3.125.11 2.889c.064 2.36.064 2.36 1.206 4.338 1.985-.267 1.985-.267 4-1l1-3h3c-.573 2.867-.861 3.861-3 6-7.161.568-7.161.568-9.938-1.313-2.009-3.19-2.182-5.91-2.16-9.574l.01-2.842.025-2.958.014-2.995c.012-2.44.028-4.879.049-7.318h-4v-2h4v-8Z" fill="#0D0D0D"/><path d="M984 890c8.3-.39 8.3-.39 11 0 2.116 2.008 2.875 3.362 3.434 6.219.006 3.622-.074 6.11-1.809 9.343-4.173 2.286-7.917 1.686-12.625 1.438v-17Z" fill="#E5E5E5"/><path d="M581 880h9v3l1.563-1.5c3.325-2.046 5.6-1.919 9.437-1.5 1.938 1.375 1.938 1.375 3 3v2c-1.875.625-1.875.625-4 1l-2-2c-2.5-.333-2.5-.333-5 0-2.48 2.48-2.29 3.362-2.414 6.79l-.117 2.85-.094 2.985-.117 3.008c-.095 2.455-.18 4.91-.258 7.367h6v2h-15v-2h4v-25h-4v-2Z" fill="#0C0C0C"/><path d="M993 870c2.894.228 4.56.636 6.813 2.5 1.804 3.8 1.885 7.372 1.187 11.5-2 3.063-2 3.063-4 5l1.875.813C1001 891 1001 891 1003 894c.343 4.258.44 6.935-1.188 10.875-2.175 2.55-3.622 3.146-6.812 4.125-2.895-.023-2.895-.023-5.813-.375l-2.957-.336L984 908v-1l2.082-.113 2.73-.2 2.708-.175c2.862-.59 3.832-1.115 5.48-3.512.436-2.177.436-2.177.313-4.5l-.012-2.344c-.183-2.45-.183-2.45-2.301-5.156-2.656-.583-2.656-.583-5.625-.688l-3.04-.199L984 890v-1l3.813-.25c2.726-.367 3.954-.575 6.187-2.25 1.527-3.819 1.58-7.446 1-11.5-1.318-2.519-1.318-2.519-3-4l1-1Z" fill="#0E0E0E"/><path d="M1221 880h9l1 3 1.563-1.5c3.293-2.027 5.638-1.852 9.437-1.5l2 2c-.375 2.125-.375 2.125-1 4h-3l-1-2c-3.56-.338-3.56-.338-6.636 1.22-1.733 2.26-1.786 3.619-1.876 6.448l-.107 2.705-.069 2.814-.103 2.85c-.082 2.321-.152 4.641-.209 6.963h6v2h-15v-2h5v-25h-5v-2Z" fill="#080808"/><path d="m726 774 2.05 2.059a812.724 812.724 0 0 0 6.43 6.351l3.707 3.653 1.905 1.853 1.826 1.807 1.65 1.617c3.143 3.642 3.69 6.6 3.62 11.347l-.02 2.95C747 808 747 808 746 809c-2.5.125-2.5.125-5 0-1-1-1-1-1.098-4.379.006-1.394.02-2.789.035-4.183L740 793h-17v12h-1c-.027-2.146-.046-4.292-.063-6.438l-.035-3.62C722 792 722 792 723 791c2.697-.073 5.367-.092 8.063-.063l2.298.014c1.88.012 3.76.03 5.639.049l-1.32-1.504a2194.974 2194.974 0 0 1-3.723-4.258 582.956 582.956 0 0 0-3.758-4.258l-1.636-1.855-1.497-1.68C726 776 726 776 726 774Z" fill="#D4EEFB"/><path d="m1119 900 1 4 3.324.043c1.455.047 2.91.095 4.363.144l2.186.018c4.116.17 5.767.517 9.143 3.123C1141 910 1141 910 1141.062 913.563c-1.131 3.66-2.05 5.134-5.062 7.437-5.481 1.827-11.665 1.905-17.063-.188-2.25-2.105-3.065-3.879-3.937-6.812l4-1 .875 2.438c.858 2.695.858 2.695 3.125 3.562 5.439.556 9.525.465 14-3-.344-2.473-.344-2.473-1-5-3.807-1.903-8.516-1.358-12.715-1.523-3.285-.477-3.285-.477-5.215-1.848-1.48-2.253-1.284-3.995-1.07-6.629l2-1Z" fill="#0B0B0B"/><path d="M984 871c8 0 8 0 10.5 1.438 2.236 3.819 2.26 7.247 1.5 11.562-1.5 2.563-1.5 2.563-4 4h-8v-17Z" fill="#E5E5E5"/><path d="m884 901 1.035 1.469c2.892 2.254 5.878 1.984 9.403 2.031 6.905.162 6.905.162 10 1.754 2.47 2.761 2.172 5.022 2.027 8.586-.465 2.16-.465 2.16-2.84 4.66-5.475 3.128-10.36 3.242-16.625 2.5-2.848-1.356-3.923-2.519-6-5v-3l4-1 .875 2.438c.858 2.695.858 2.695 3.125 3.562 2.076.198 2.076.198 4.375.188l2.336.042c2.507-.252 4.122-.978 6.289-2.23v-6c-3.807-1.903-8.516-1.358-12.715-1.523C886 909 886 909 884.04 907.629 883 906 883 906 883.313 903.312L884 901Z" fill="#060606"/><path d="M612 756h2c.43 5.178.857 10.355 1.282 15.533l.436 5.282c.21 2.534.418 5.068.626 7.603l.199 2.374c.303 3.746.536 7.45.457 11.208h-8c.733-14.022 1.841-28.008 3-42Z" fill="#CCDCD2"/><path d="M1277 880h10v27h4v2h-14v-2h5v-25h-5v-2ZM1060 880h10v27h4v2h-14v-2h5v-25h-5v-2Z" fill="#171717"/><path d="M911 756h2c1.378 13.707 2.31 27.221 2 41h-6c-.456-13.711.89-27.347 2-41Z" fill="#BEEAFC"/><path d="M826 880h9v27h5v2h-14v-2h4v-25h-4v-2ZM760 880h9v27h5v2h-14v-2h4v-25h-4v-2ZM655 880l2 2c-2.762 1.381-5.09.932-8.125.742L647 883c-2.482 3.723-2.296 6.632-2.25 10.938l-.023 2.17c.014 3.782.163 6.686 2.273 9.892h8l-1 3c-1.559.163-3.123.28-4.688.375l-2.636.21c-3.253-.711-4.723-2.12-6.701-4.767-1.682-3.136-1.761-6.29-1.663-9.755l.044-2.141c.256-4.958.94-8.517 4.652-11.918 3.825-1.928 7.854-1.845 11.992-1.004Z" fill="#101010"/><path d="M1009 880h9v27h4v2h-13v-2h4v-25h-4v-2Z" fill="#0D0D0D"/><path d="M896 882c1.938 1 1.938 1 3 3 .76 6.832.76 6.832-1.625 10.5-3.078 1.944-4.799 2.109-8.375 1.5-2.229-1.783-2.874-3.129-3.281-5.941-.131-2.968-.066-5.407 1.343-8.059 3.07-1.584 5.555-1.362 8.938-1Z" fill="#DFDFDF"/><path d="M1131 882c2.468 3.701 2.307 5.622 2 10-.563 2.375-.563 2.375-2 4-3.438.938-3.438.938-7 1-2.149-1.504-2.836-2.671-4-5-.446-6.135-.446-6.135 1-8.938 3.395-1.803 6.192-1.425 10-1.062Z" fill="#E0E0E0"/><path d="M885 774h2c.027 2.646.047 5.292.063 7.938l.025 2.287A182.68 182.68 0 0 1 887 790c-1 1-1 1-4.379 1.098-1.394-.006-2.789-.02-4.183-.035L871 791v16h17v11h2l-.07-1.844c-.176-8.518.888-16.743 2.07-25.156h1c.118 7.084-.342 14.011-1 21.063l-.29 3.2c-.232 2.58-.47 5.159-.71 7.737l-4 1v-16h-17v-19h15v-15Z" fill="#CBEEFC"/><path d="m861.938 879.563 2.59-.06c3.304.664 4.366 1.898 6.472 4.497.454 2.565.454 2.565.39 5.422l-.038 3.105-.102 3.223-.055 3.27c-.047 2.66-.113 5.32-.195 7.98h5v2h-14v-2h5c-.11-3.438-.24-6.875-.375-10.313-.03-.976-.062-1.952-.094-2.958l-.117-2.842-.095-2.619c-.19-2.545-.19-2.545-2.319-5.268-2.437-.364-2.437-.364-5.125-.188l-2.758.083L854 883c2.443-3.02 4.1-3.432 7.938-3.438ZM719.938 879.563l2.59-.06c3.304.664 4.366 1.898 6.472 4.497.454 2.565.454 2.565.39 5.422l-.038 3.105-.102 3.223-.055 3.27c-.047 2.66-.113 5.32-.195 7.98h5v2h-14v-2h5c-.11-3.438-.24-6.875-.375-10.313-.03-.976-.062-1.952-.094-2.958l-.117-2.842-.095-2.619c-.19-2.545-.19-2.545-2.319-5.268-2.437-.364-2.437-.364-5.125-.188l-2.758.083L712 883c2.443-3.02 4.1-3.432 7.938-3.438Z" fill="#090909"/><path d="m926 742 2 1c.907 2.72 1.17 4.561 1.281 7.379l.114 2.54.21 5.298.114 2.537.092 2.322c.081 2.007.081 2.007 1.189 3.924.138 1.339.225 2.683.281 4.027l.114 2.4.105 2.51c.069 1.635.142 3.269.219 4.903l.092 2.199c.136 2.174.136 2.174 1.189 4.961.134 1.383.223 2.771.281 4.16l.114 2.404.21 5.008.114 2.4.092 2.196c.09 1.928.09 1.928 1.189 3.832.072 2.718.093 5.409.063 8.125l-.014 2.285c-.012 1.863-.03 3.727-.049 5.59-2.21-3.626-2.481-6.994-2.87-11.184l-.207-2.17c-.225-2.36-.437-4.722-.65-7.083l-.462-4.932c-.322-3.443-.64-6.886-.953-10.33-.4-4.412-.81-8.823-1.224-13.235-.393-4.209-.784-8.419-1.173-12.629l-.226-2.432c-.21-2.274-.418-4.547-.624-6.821l-.359-3.92C926 746 926 746 926 742Z" fill="#CEECFB"/><path d="M688 882c1.938 1.563 1.938 1.563 3 4v7h-14c.597-7.284.597-7.284 2.125-10 3.065-1.635 5.484-1.424 8.875-1Z" fill="#D9D9D9"/><path d="M287 856c14.086.742 14.086.742 21 3 5.47.97 10.768 1.16 16.3 1.168l2.657.01c1.846.005 3.692.007 5.539.007 2.798.002 5.595.02 8.393.04 1.804.003 3.608.005 5.412.005l2.494.022c9.739.247 9.739.247 18.205-3.252 2.67-.141 5.324-.042 8 0-23.54 13.328-63.21 6.595-88 0v-1Z" fill="#C8EBFC"/><path d="M1337.5 881.563c3.5.437 3.5.437 5.438 1.437 1.735 3.266 1.242 6.344 1.062 10h-13c-.201-3.492-.35-6.2 1.063-9.438 1.937-1.562 1.937-1.562 5.437-2Z" fill="#DEDEDE"/><path d="M1201.91 881.621c2.152-.058 2.152-.058 6.09.379 2 2 2 2 2.195 4.164L1210 893h-13c0-10.405 0-10.405 4.91-11.379ZM617.91 881.621c2.153-.058 2.153-.058 6.09.379 2 2 2 2 2.195 4.164L626 893h-13c0-10.405 0-10.405 4.91-11.379Z" fill="#DCDCDC"/><path d="M940 871c2.382 2.382 2.32 3.05 2.375 6.313-.07 4.39-1.162 6.574-4.375 9.687-3-1-3-1-4.688-3.688-1.376-3.472-1.804-5.623-1.312-9.312 2.102-3.32 4.232-3.483 8-3Z" fill="#E0E0E0"/><path d="M541 678c2 1 2 1 3.375 3.375 1.644 2.655 3.139 3.825 5.625 5.625v2l-2.313 1.313c-3.006 1.887-4.086 3.568-5.687 6.687l-1.688-2.188c-2.291-2.787-4.727-5.298-7.312-7.812l2.875-1.688c3.214-2.378 4.08-3.552 5.125-7.312Z" fill="#17502B"/><path d="m1240 742 4 1v80h-1l-1-66h-2v-15Z" fill="#E2F0E7"/><path d="m791.688 895.875 2.449.055L796 896c.313 3.25.313 3.25 0 7-2.483 2.767-3.996 3.86-7.688 4.375C786 907 786 907 784 905c-.313-3.5-.313-3.5 0-7 3.204-2.136 4.02-2.231 7.688-2.125Z" fill="#E0E0E0"/><path d="M1339.555 879.707c3.131.375 5.038 1.262 7.445 3.293 2 3 2 3 2 12h-18v-1h13l-1-11c-7.498-.413-7.498-.413-14 3l-2 1c2.939-6.556 5.563-7.507 12.555-7.293Z" fill="#242424"/><path d="m1125.625 879.938 2.477.027L1130 880v2l-3.375.375c-3.656.272-3.656.272-5.625 2.625-.214 3.845-.179 7.316 1 11h2v2h6v1l-1.863.184-2.45.254c-.8.08-1.6.162-2.425.246-2.423.269-2.423.269-5.262 1.316l.75-1.688.25-2.312-1.938-2.375C1115 892 1115 892 1114.5 889c.615-3.692 1.916-5.34 4.5-8 2.405-1.203 3.95-1.1 6.625-1.063Z" fill="#1B1B1B"/><path d="m907 878 1 4-6 1 2 3c.635 4.08.139 5.758-1.938 9.375-1.802 2-2.71 2.569-5.398 3-2.252 0-4.428-.112-6.664-.375v-1l3.438-.875L897 895c1.114-2.229 1.165-3.53 1.188-6l.042-2.125c-.065-2.12-.065-2.12-2.23-3.875v-3l2.813-.438c2.804-.494 5.356-1.562 8.187-1.562Z" fill="#0C0C0C"/><path d="M847 752c3.265 3.265 2.369 7.313 2.375 11.75l.074 2.71c.026 5.93-1.021 8.594-4.449 13.54l.872 2.103c1.563 4.014 1.377 7.649 1.323 11.917l-.008 2.601c-.011 2.73-.037 5.461-.062 8.192-.01 1.856-.02 3.712-.027 5.568-.022 4.54-.057 9.08-.098 13.619h-1l-.06-3.44c-.076-4.21-.165-8.42-.257-12.63a1433.39 1433.39 0 0 1-.105-5.468c-.046-2.62-.104-5.238-.164-7.857l-.035-2.471c-.101-3.868-.187-5.846-2.379-9.134l-3-1v-2a262.496 262.496 0 0 1 5-4c1.23-2.461 1.206-4.258 1.316-7.008l.127-2.988.12-3.129.13-3.152c.107-2.574.209-5.149.307-7.723Z" fill="#C3E7FA"/><path d="M1199 880c8.975-.627 8.975-.627 13.063 1.875 3.812 4.181 3.015 7.647 2.937 13.125h-17v7h-1v-8h13l-.438-4.938c-.08-.916-.162-1.833-.246-2.777-.076-2.247-.076-2.247-1.316-3.285a103.65 103.65 0 0 0-4.563-1.063l-2.503-.535L1199 881v-1ZM615 880c8.975-.627 8.975-.627 13.063 1.875 3.812 4.181 3.015 7.647 2.937 13.125h-17v7h-1v-8h13l-.438-4.938c-.08-.916-.162-1.833-.246-2.777-.076-2.247-.076-2.247-1.316-3.285a103.65 103.65 0 0 0-4.563-1.063l-2.503-.535L615 881v-1Z" fill="#2E2E2E"/><path d="M824 757h6c1.807 1.807 1.173 4.504 1.188 6.938l.042 3.277C831 770 831 770 829 772h-5v-15Z" fill="#DCEEF4"/><path d="M657 757h6c1.807 1.807 1.173 4.504 1.188 6.938l.042 3.277C664 770 664 770 662 772h-5v-15Z" fill="#DFE9E3"/><path d="M869 758h1v15h15v16h-15v-2h13v-12l-2.809.035-3.629.028-3.62.035C870 775 870 775 869 774a210.174 210.174 0 0 1-.063-8.063l.014-2.298c.012-1.88.03-3.76.049-5.639Z" fill="#5FB8ED"/><path d="M954 769h1c.739 4.234 1.469 8.47 2.191 12.708.247 1.441.497 2.883.748 4.324.361 2.069.714 4.14 1.065 6.21l.65 3.777C960 799 960 799 959 801c-2-3-2-3-3-12l-1 35h-1v-55Z" fill="#CBEDFD"/><path d="M506 716h1c.05 4.604.086 9.208.11 13.812.01 1.56.023 3.12.04 4.68.132 12.03-.131 23.744-4.365 35.168-1.306 3.894-2.09 7.92-2.941 11.934L499 784l-3 1 .564-1.779c2.028-6.554 3.628-13.139 5.061-19.846l.656-2.984c2.238-10.362 2.953-20.305 3.281-30.891l.131-3.938c.106-3.187.208-6.374.307-9.562Z" fill="#C8EAFB"/><path d="m788.688 894.813 3.574.082L795 895v1l-10 2v7l5 2v2c-7.38.484-7.38.484-10-1.563-1.37-3.34-1.39-5.863-1-9.437 2.475-3.814 5.438-3.314 9.688-3.188Z" fill="#0C0C0C"/><path d="M431 764c7.144 8.27 7.538 21.016 7.273 31.434-.315 4.11-.972 7.663-2.273 11.566h-1l.016-1.753c.784-19.109.784-19.109-4.016-37.247v-4Z" fill="#C6E8F8"/><path d="M494 701h1c.822 16.52-.514 33.583-7 49-1.226-3.513-.738-5.621.375-9.125 1.387-4.69 2.091-9.104 2.414-13.977C491 725 491 725 492 724c.145-1.452.227-2.91.281-4.367l.114-2.684.105-2.824c.069-1.83.142-3.662.219-5.492l.092-2.472C493 704 493 704 494 701Z" fill="#CBEBFA"/><path d="M587 754h1v21c-3.93.03-3.93.03-7.938.063l-2.503.027A179.38 179.38 0 0 1 572 775c-1-1-1-1-1.098-4.379.007-1.394.019-2.789.035-4.183l.014-2.155c.012-1.76.03-3.522.049-5.283h2v14h14v-19Z" fill="#457055"/><path d="M984 787h1c.027 1.77.046 3.542.063 5.313l.035 2.988C985 798 985 798 984 801c-.305 3.125-.508 6.25-.719 9.383C983 813 983 813 982 814c-.208 1.662-.367 3.33-.5 5-.389 4.889-.389 4.889-1.5 6-2.697.073-5.367.092-8.063.063l-2.298-.014c-1.88-.012-3.76-.03-5.639-.049v-1h15l.371-5.172c.563-6.756 1.575-13.395 2.692-20.078l.564-3.45c.453-2.767.911-5.534 1.373-8.3Z" fill="#CBEBFB"/><path d="m903 912 1 3h2c-1.47 3.874-3.336 5.168-7 7-4.703.76-9.74 1.09-14.113-1.02-1.637-1.293-1.637-1.293-3.887-3.98v-3l4-1 .875 2.438c.858 2.695.858 2.695 3.125 3.562 2.076.198 2.076.198 4.375.188l2.336.042c2.56-.257 4.14-.822 6.289-2.23.812-2.555.812-2.555 1-5Z" fill="#262626"/><path d="m931 892 1 2-1 2c-.497 5.199-.497 5.199 1.125 9.938 2.556 1.448 4.978 1.74 7.875 2.062v1c-9.142.628-9.142.628-12.563-1.875-2.42-3.578-3.035-5.767-2.437-10.125 1.831-2.055 3.73-3.391 6-5Z" fill="#090909"/><path d="M1166 869c10.668-.766 10.668-.766 13.875 1.078 1.313 1.36 1.313 1.36 3.125 3.922l1 1c.04 2 .043 4 0 6l-5 1-2-9-11-3v-1ZM558 869c10.797-.566 10.797-.566 15 3 2.295 2.374 2.961 3.428 3.188 6.75L576 881l-5 1-1.367-6.055c-.538-2.152-.538-2.152-2.633-3.945-2.197-.677-2.197-.677-4.625-1.125l-2.477-.508L558 870v-1Z" fill="#171717"/><path d="M689 881c5.148 2.574 5.148 2.574 7 6v7h-18v-1h13l-2-12Z" fill="#0E0E0E"/><path d="M1265 880h10v2h-4l-.75 3.875c-1.425 6.432-3.585 12.628-7.25 18.125-1.102-3.306-.959-3.83.18-6.941l.816-2.268.879-2.354.855-2.365c2.054-5.64 2.054-5.64 3.27-8.072h-4v-2Z" fill="#2B2B2B"/><path d="M1371 880c3.125 1.688 3.125 1.688 5 4 .313 2.75.313 2.75 0 5h-5l-2-6c-4.548-.178-7.88.002-12 2 2.842-6.294 7.639-5.719 14-5Z" fill="#1A1A1A"/><path d="m506 670 2 1-1.313 1.137c-3.64 3.21-3.64 3.21-5.125 7.676.221 2.155.221 2.155 1.438 3.187l1 7 1 1c.91 6.369 1.12 12.573 1 19h-1l-.335-2.06a7431.57 7431.57 0 0 0-1.54-9.378l-.527-3.24c-.802-4.857-1.648-9.645-2.836-14.424-.762-3.898-.762-3.898.925-6.836C503 672 503 672 506 670Z" fill="#C6EAFB"/><path d="M397 718c7.488 3.436 14.479 8.907 20 15l-3 1-1 2c-1.919-2.06-3.835-4.123-5.75-6.188l-1.633-1.751c-3.015-3.255-5.895-6.553-8.617-10.061Z" fill="#51B3ED"/><path d="m498 678 2 1v7l-2 1c-1.252 5.19-1.318 10.56-1.563 15.875l-.13 2.664c-.106 2.154-.207 4.307-.307 6.461h-1c-.748-7.026-1.138-13.934-1-21h1l.402-2.336.536-3.039.527-3.023C497 680 497 680 498 678Z" fill="#64B2D1"/><path d="M581 880h9v3l1.563-1.5c3.325-2.046 5.6-1.919 9.437-1.5 1.938 1.375 1.938 1.375 3 3v2c-1.875.625-1.875.625-4 1l-2-2c-3.733-.383-4.776-.15-8 2l-1-5-8 1v-2Z" fill="#1C1C1C"/><path d="m1119 913 .875 2.438c.858 2.695.858 2.695 3.125 3.562 2.207.07 4.417.084 6.625.063l3.602-.028L1136 919v2c-5.481 1.827-11.665 1.905-17.063-.188-2.25-2.105-3.065-3.879-3.937-6.812 2-1 2-1 4-1Z" fill="#0F0F0F"/><path d="M740 789c3.28 2.416 5.535 4.172 7 8 .23 2.762.23 2.762.188 5.688l-.02 2.949C747 808 747 808 746 809c-2.5.125-2.5.125-5 0-1-1-1-1-1.098-4.379.007-1.394.019-2.789.035-4.183l.014-2.155c.012-1.76.03-3.522.049-5.283h1v14h4c-.206-8.837-.206-8.837-5-16v-2Z" fill="#D0EEFB"/><path d="M911 772h2l1 24h-3v-24Z" fill="#E8EBEE"/><path d="M739 791c3.161 1.37 3.993 1.99 6 5 .195 2.7.195 2.7.125 5.688l-.055 3.011L745 807h-4l-.184-2.992-.254-3.883c-.08-1.276-.162-2.552-.246-3.867-.108-3.141-.108-3.141-1.316-5.258Z" fill="#E9EBEC"/><path d="M1317 882c2.29 3.435 2.178 4.985 2 9h-5l-1-7-7-2v-1c4.28-1.26 6.934-.807 11 1Z" fill="#212121"/><path d="M484 809c.578 1.91.578 1.91 1 4-1.25 1.438-1.25 1.438-3 3l-1.3 2.18c-2.014 3.342-4.275 6.407-6.637 9.508l-1.303 1.76c-2.293 3.01-4.144 5.252-7.76 6.552l1.031-1.363c6.296-8.355 12.557-16.674 17.969-25.637Z" fill="#CAEBFB"/><path d="M792 881v1l-6 1-1 7h-5c.48-6.36.48-6.36 2.625-9 3.363-1.416 5.871-.741 9.375 0Z" fill="#282828"/><path d="M470.563 706.375C473 708 473 708 474 710l-3.438-1c-8.634-2.098-14.714-1.156-22.562 3 1.122-3.365 1.455-3.621 4.438-5.188 6.084-2.84 11.905-2.837 18.125-.437Z" fill="#D1EDFA"/><path d="M526 636c4 4.625 4 4.625 4 8h-2l-1 3-1.688-1.438c-2.495-1.686-4.357-2.152-7.312-2.562l1.813-.813c2.927-1.588 4.696-3.206 6.187-6.187Z" fill="#235435"/><path d="M395 716c5.04.445 7.376 2.713 11 6-3 0-3 0-7-2l11 11-1 2a1119.08 1119.08 0 0 1-6.438-6.25l-1.853-1.777-1.768-1.739-1.634-1.587c-1.478-1.863-1.899-3.325-2.307-5.647Z" fill="#C8E9F9"/><path d="M1238.625 879.625C1242 880 1242 880 1244 882c-.375 2.125-.375 2.125-1 4h-3l-1-2h-8c2.486-3.182 3.517-3.95 7.625-4.375Z" fill="#161616"/><path d="m483 722 2 1c.611 13.988.611 13.988-4.688 19.875L479 744l-2-1 1.938-2.813c2.747-4.246 3.251-7.413 3.625-12.375l.253-3.292L483 722Z" fill="#CDECFA"/><path d="M725 751c1.115 3.506.973 6.595.813 10.25-.061 6.73 1.125 11.549 5.824 16.46L733 779l-1 2a512.543 512.543 0 0 1-2.875-3.25l-1.617-1.828c-3.766-4.8-3.79-8.612-3.696-14.547l.002-2.352c.045-5.742.045-5.742 1.186-8.023Z" fill="#5BB6EB"/><path d="m1240 742 3 2c.293 2.82.293 2.82.188 6.125l-.083 3.32L1243 756l-3 1v-15Z" fill="#BFD0C4"/><path d="M1160 898h3l.75 3.313c1.27 3.746 1.908 4.793 5.25 6.687-1.688.813-1.688.813-4 1-2.999-2.371-4.707-4.08-5.875-7.75L1159 899l1-1Z" fill="#1B1B1B"/><path d="M896 745h2l-2 22h-1c-.029-3.292-.047-6.583-.063-9.875l-.025-2.84-.01-2.715-.016-2.507C895 747 895 747 896 745Z" fill="#C8E9FA"/><path d="m572 900 4 1c-.868 2.677-1.754 4.705-3.563 6.875-3.816 1.762-7.39.843-11.437.125v-1l3.813-.125c2.197-.183 2.197-.183 4.187-.875 2.086-2.918 2.086-2.918 3-6Z" fill="#303030"/><path d="m885 913 .688 2.375c1.093 2.844 1.093 2.844 3.937 3.938L892 920v1c-6.344.488-6.344.488-9.438-1.813C881 917 881 917 881 914c2-1 2-1 4-1Z" fill="#101010"/><path d="M1078 880h9l1 3 1.688-1.5c2.694-1.748 4.166-1.762 7.312-1.5v2c-3.648 1.273-7.194 2.328-11 3v-4l-8 1v-2Z" fill="#202020"/><path d="m650.063 879.688 2.66.011C655 880 655 880 657 882c-2.502 1.251-4.032.967-6.813.813-3.855-.062-4.943.031-8.312 2.187L640 887c2.334-5.207 4.153-7.426 10.063-7.313Z" fill="#1E1E1E"/><path d="M831 867c2.125.375 2.125.375 4 1 .563 1.938.563 1.938 1 4-1 1-1 1-3.563 1.063L830 873c-.625-1.875-.625-1.875-1-4l2-2ZM765 867c2.125.375 2.125.375 4 1 .563 1.938.563 1.938 1 4-1 1-1 1-3.563 1.063L764 873c-.625-1.875-.625-1.875-1-4l2-2Z" fill="#1C1C1C"/><path d="M1386 903c1.675.286 3.344.618 5 1l-1 5h-5a99.984 99.984 0 0 1 0-5l1-1Z" fill="#0F0F0F"/><path d="m1282 867 5 1-1 5-5-1 1-5ZM1065 867l5 1-1 5-5-1 1-5Z" fill="#141414"/><path d="M736 739h14v2l2 1-16-1v-2Z" fill="#D3EEF9"/><path d="M1014 867c2.125.375 2.125.375 4 1v5h-5c-.625-1.875-.625-1.875-1-4l2-2Z" fill="#121212"/><path d="M1316 902h3c-.856 2.711-1.452 4.554-3.688 6.375-3.283.887-6.012.26-9.312-.375v-1l3.313-.25c3.723-.362 3.723-.362 5.437-2.813L1316 902ZM1212 902h3c-.856 2.711-1.452 4.554-3.688 6.375-3.283.887-6.012.26-9.312-.375v-1l3.313-.25c3.723-.362 3.723-.362 5.437-2.813L1212 902ZM628 902h3c-.856 2.711-1.452 4.554-3.688 6.375-3.283.887-6.012.26-9.312-.375v-1l3.313-.25c3.723-.362 3.723-.362 5.437-2.813L628 902Z" fill="#343434"/><path d="M397 718c4.044 1.78 7.46 4.395 11 7l-2 3a1766.205 1766.205 0 0 1-4.5-4.438l-2.531-2.496C397 719 397 719 397 718Z" fill="#67B2DE"/><path d="M1265 880h10v2h-4l-2 4v-4h-4v-2Z" fill="#181818"/><path d="M1330 789c2.2 4.398 2.519 7.186 3 12l-3 2v-14Z" fill="#D5E8DC"/><path d="M189 776c3.29 2.797 5.063 6.195 7 10-1 2-1 2-3 3-.67-1.79-1.336-3.582-2-5.375l-1.125-3.023C189 778 189 778 189 776Z" fill="#71B6DF"/><path d="M1136 919v2c-3.15 1.05-5.388 1.101-8.688 1.063l-3.011-.028L1122 922c4.645-2.463 8.745-3 14-3Z" fill="#272727"/><path d="m464 836 1 3c-2.894 4.17-4.99 6.569-10 8l1.207-1.39c2.704-3.133 5.373-6.249 7.793-9.61Z" fill="#D2EDF8"/><path d="M1345 902h4c-1.477 4.677-1.477 4.677-4.125 6.313L1343 909a84.76 84.76 0 0 1 2-7Z" fill="#292929"/><path d="m301 705 2 1-9 9c0-3.956 1.405-5.109 4-8l3-2Z" fill="#C8DCCF"/><path d="m506 670 2 1-1.242 1.207-1.633 1.606-1.617 1.582c-1.716 1.738-1.716 1.738-3.508 4.605l-1-3c2.1-3.076 3.886-4.924 7-7Z" fill="#CDE2DA"/><path d="M1142 878v4h-7l1-3c3-1 3-1 6-1Z" fill="#1B1B1B"/><path d="m934 887 1 4-9 6c1.499-3.816 3.799-5.537 7-8l1-2Z" fill="#1F1F1F"/><path d="M194 787c1.938.75 1.938.75 4 2 .75 2.125.75 2.125 1 4l-3 2c-1.765-3.088-2-4.233-2-8Z" fill="#53B3EB"/><path d="m254 581 2 1-8 8-2-1c2.416-3.192 4.68-5.747 8-8Z" fill="#2A5C3C"/><path d="M885 898h11v1l-1.898.113-2.477.2-2.46.175c-2.544.342-2.544.342-4.165 3.512l-2-1 2-4Z" fill="#3C3C3C"/><path d="m907 878 1 4h-7l1-3c3-1 3-1 5-1Z" fill="#141414"/><path d="M495 785c1.471 3.825.454 6.283-1 10l-1 2h-2l4-12Z" fill="#C8EAFA"/><path d="m1275 743 2 1-8 8c0-3 0-3 2.438-5.625L1274 744l1-1Z" fill="#275839"/><path d="M1368 881v1l-1.898.402-2.477.535-2.46.528c-2.194.458-2.194.458-4.165 1.535 2.637-5.84 4.95-5.008 11-4Z" fill="#2E2E2E"/><path d="m1368 743 2 1-7 7c0-3 0-3 2.5-5.688L1368 743Z" fill="#225535"/><path d="M390 885c-2 2-2 2-3.945 2.195L380 887c6.25-3.125 6.25-3.125 10-2Z" fill="#CEEBF9"/></svg>