<?xml version="1.0" encoding="UTF-8"?>
<!DOCTYPE svg PUBLIC "-//W3C//DTD SVG 1.1//EN" "http://www.w3.org/Graphics/SVG/1.1/DTD/svg11.dtd">
<svg xmlns="http://www.w3.org/2000/svg" version="1.1" width="295px" height="295px" style="shape-rendering:geometricPrecision; text-rendering:geometricPrecision; image-rendering:optimizeQuality; fill-rule:evenodd; clip-rule:evenodd" xmlns:xlink="http://www.w3.org/1999/xlink">
<g><path style="opacity:0.694" fill="#9ab5cf" d="M 159.5,10.5 C 159.5,10.8333 159.5,11.1667 159.5,11.5C 151.833,11.5 144.167,11.5 136.5,11.5C 144.024,9.59032 151.69,9.25699 159.5,10.5 Z"/></g>
<g><path style="opacity:0.655" fill="#a6c4e5" d="M 131.5,12.5 C 129.485,13.9238 127.152,14.5905 124.5,14.5C 126.438,12.8372 128.772,12.1706 131.5,12.5 Z"/></g>
<g><path style="opacity:0.239" fill="#badaf2" d="M 159.5,11.5 C 159.5,11.1667 159.5,10.8333 159.5,10.5C 168.289,10.4524 176.622,12.1191 184.5,15.5C 176.244,13.6239 167.91,12.2906 159.5,11.5 Z"/></g>
<g><path style="opacity:1" fill="#2d5eaf" d="M 136.5,11.5 C 144.167,11.5 151.833,11.5 159.5,11.5C 167.91,12.2906 176.244,13.6239 184.5,15.5C 186.102,17.0739 188.102,17.7406 190.5,17.5C 195.827,19.1588 200.493,21.8255 204.5,25.5C 205.486,27.4077 207.152,28.4077 209.5,28.5C 209.833,29.5 210.5,30.1667 211.5,30.5C 211.209,31.6491 210.376,32.3158 209,32.5C 206.863,31.9233 204.696,31.59 202.5,31.5C 201.817,29.8235 200.483,29.1568 198.5,29.5C 196.824,27.1663 194.491,26.1663 191.5,26.5C 188.505,26.7062 185.838,26.0395 183.5,24.5C 183.5,24.1667 183.5,23.8333 183.5,23.5C 183.082,22.7784 182.416,22.2784 181.5,22C 177.514,21.5012 173.514,21.3345 169.5,21.5C 162.5,21.5 155.5,21.5 148.5,21.5C 148.611,20.8826 148.944,20.3826 149.5,20C 147.5,19.6667 145.5,19.3333 143.5,19C 146.095,17.1072 148.761,17.1072 151.5,19C 160.175,19.3671 168.842,19.8671 177.5,20.5C 180.295,20.5474 182.961,20.0474 185.5,19C 184.833,18.3333 184.167,17.6667 183.5,17C 177.599,17.286 172.266,15.9527 167.5,13C 153.862,11.4598 140.529,12.6265 127.5,16.5C 124.57,19.6492 121.07,21.9825 117,23.5C 113.172,22.3081 109.338,22.3081 105.5,23.5C 104.833,23.5 104.167,23.5 103.5,23.5C 103.842,22.6618 104.508,22.3284 105.5,22.5C 108.545,21.7206 111.211,20.3873 113.5,18.5C 113.842,17.6618 114.508,17.3284 115.5,17.5C 118.785,17.0719 121.785,16.0719 124.5,14.5C 127.152,14.5905 129.485,13.9238 131.5,12.5C 132.919,11.5489 134.585,11.2155 136.5,11.5 Z"/></g>
<g><path style="opacity:0.118" fill="#c3e1f7" d="M 124.5,14.5 C 121.785,16.0719 118.785,17.0719 115.5,17.5C 118.084,15.5275 121.084,14.5275 124.5,14.5 Z"/></g>
<g><path style="opacity:1" fill="#0954b9" d="M 148.5,21.5 C 147.833,21.5 147.167,21.5 146.5,21.5C 142.973,21.5037 139.473,21.8371 136,22.5C 133.499,22.4162 131.166,21.7495 129,20.5C 125.816,21.7242 125.983,22.8909 129.5,24C 127.101,24.711 124.768,24.5443 122.5,23.5C 119.947,24.8049 117.28,25.8049 114.5,26.5C 113.614,27.325 113.281,28.325 113.5,29.5C 109.723,30.994 105.723,31.6606 101.5,31.5C 101.318,33.5914 101.652,35.5914 102.5,37.5C 99.0867,38.823 95.7533,38.6563 92.5,37C 94.0589,36.0201 95.7256,35.1867 97.5,34.5C 96.7542,33.2638 96.4208,31.9305 96.5,30.5C 97.8734,30.6567 99.2068,30.49 100.5,30C 101.269,27.0737 102.935,24.9071 105.5,23.5C 109.338,22.3081 113.172,22.3081 117,23.5C 121.07,21.9825 124.57,19.6492 127.5,16.5C 140.529,12.6265 153.862,11.4598 167.5,13C 172.266,15.9527 177.599,17.286 183.5,17C 184.167,17.6667 184.833,18.3333 185.5,19C 182.961,20.0474 180.295,20.5474 177.5,20.5C 168.842,19.8671 160.175,19.3671 151.5,19C 148.761,17.1072 146.095,17.1072 143.5,19C 145.5,19.3333 147.5,19.6667 149.5,20C 148.944,20.3826 148.611,20.8826 148.5,21.5 Z"/></g>
<g><path style="opacity:0.192" fill="#bed9f2" d="M 184.5,15.5 C 186.786,15.595 188.786,16.2616 190.5,17.5C 188.102,17.7406 186.102,17.0739 184.5,15.5 Z"/></g>
<g><path style="opacity:0.078" fill="#b7ceea" d="M 113.5,18.5 C 111.211,20.3873 108.545,21.7206 105.5,22.5C 107.579,20.127 110.246,18.7936 113.5,18.5 Z"/></g>
<g><path style="opacity:1" fill="#2e5f9a" d="M 169.5,22.5 C 169.5,22.1667 169.5,21.8333 169.5,21.5C 173.514,21.3345 177.514,21.5012 181.5,22C 182.416,22.2784 183.082,22.7784 183.5,23.5C 180.518,23.0371 177.518,22.7038 174.5,22.5C 172.833,22.5 171.167,22.5 169.5,22.5 Z"/></g>
<g><path style="opacity:0.029" fill="#c8e6f4" d="M 146.5,21.5 C 147.167,21.5 147.833,21.5 148.5,21.5C 155.5,21.5 162.5,21.5 169.5,21.5C 169.5,21.8333 169.5,22.1667 169.5,22.5C 156.943,21.945 144.609,23.2783 132.5,26.5C 132.5,26.1667 132.5,25.8333 132.5,25.5C 137.306,24.2807 141.972,22.9473 146.5,21.5 Z"/></g>
<g><path style="opacity:0.675" fill="#9fc7dd" d="M 174.5,22.5 C 177.518,22.7038 180.518,23.0371 183.5,23.5C 183.5,23.8333 183.5,24.1667 183.5,24.5C 180.219,24.5797 177.219,23.913 174.5,22.5 Z"/></g>
<g><path style="opacity:0.486" fill="#b3d3ed" d="M 101.5,24.5 C 101.027,25.9063 100.027,26.573 98.5,26.5C 98.9731,25.0937 99.9731,24.427 101.5,24.5 Z"/></g>
<g><path style="opacity:0.906" fill="#87a6d1" d="M 191.5,26.5 C 194.491,26.1663 196.824,27.1663 198.5,29.5C 195.759,29.2927 193.426,28.2927 191.5,26.5 Z"/></g>
<g><path style="opacity:0.961" fill="#6d98c2" d="M 204.5,25.5 C 206.674,25.7497 208.341,26.7497 209.5,28.5C 207.152,28.4077 205.486,27.4077 204.5,25.5 Z"/></g>
<g><path style="opacity:0.455" fill="#b6d4ef" d="M 98.5,26.5 C 98.0269,27.9063 97.0269,28.573 95.5,28.5C 95.9731,27.0937 96.9731,26.427 98.5,26.5 Z"/></g>
<g><path style="opacity:0.91" fill="#3b67a3" d="M 132.5,25.5 C 132.5,25.8333 132.5,26.1667 132.5,26.5C 127.57,26.8067 123.237,28.4733 119.5,31.5C 119.158,32.3382 118.492,32.6716 117.5,32.5C 116.833,32.5 116.167,32.5 115.5,32.5C 120.243,28.3061 125.91,25.9727 132.5,25.5 Z"/></g>
<g><path style="opacity:0.063" fill="#d7e9f7" d="M 132.5,26.5 C 128.334,28.4088 124.001,30.0755 119.5,31.5C 123.237,28.4733 127.57,26.8067 132.5,26.5 Z"/></g>
<g><path style="opacity:0.02" fill="#b9e5f7" d="M 209.5,28.5 C 211.027,28.427 212.027,29.0937 212.5,30.5C 212.167,30.5 211.833,30.5 211.5,30.5C 210.5,30.1667 209.833,29.5 209.5,28.5 Z"/></g>
<g><path style="opacity:0.835" fill="#7ea5ca" d="M 198.5,29.5 C 200.483,29.1568 201.817,29.8235 202.5,31.5C 200.847,31.3404 199.514,30.6737 198.5,29.5 Z"/></g>
<g><path style="opacity:0.714" fill="#97bbdd" d="M 95.5,28.5 C 94.4154,30.5869 92.7488,31.9202 90.5,32.5C 91.5846,30.4131 93.2512,29.0798 95.5,28.5 Z"/></g>
<g><path style="opacity:0.788" fill="#9fbbd8" d="M 115.5,32.5 C 116.167,32.5 116.833,32.5 117.5,32.5C 114.506,34.9998 111.173,36.9998 107.5,38.5C 107.833,37.8333 108.167,37.1667 108.5,36.5C 110.699,34.9015 113.032,33.5682 115.5,32.5 Z"/></g>
<g><path style="opacity:0.514" fill="#9cc4e1" d="M 90.5,32.5 C 89.0892,34.914 87.0892,36.5806 84.5,37.5C 85.9108,35.086 87.9108,33.4194 90.5,32.5 Z"/></g>
<g><path style="opacity:0.163" fill="#c0e8fd" d="M 190.5,38.5 C 177.496,38.3334 164.496,38.5001 151.5,39C 149.146,39.8471 146.812,40.6805 144.5,41.5C 145.975,39.5905 147.975,38.4238 150.5,38C 164.006,37.173 177.34,37.3396 190.5,38.5 Z"/></g>
<g><path style="opacity:0.455" fill="#8bb2d6" d="M 213.5,37.5 C 215.027,37.427 216.027,38.0937 216.5,39.5C 214.973,39.573 213.973,38.9063 213.5,37.5 Z"/></g>
<g><path style="opacity:0.004" fill="#dcf1fb" d="M 107.5,38.5 C 107.027,39.9063 106.027,40.573 104.5,40.5C 104.973,39.0937 105.973,38.427 107.5,38.5 Z"/></g>
<g><path style="opacity:1" fill="#5177ac" d="M 211.5,30.5 C 211.833,30.5 212.167,30.5 212.5,30.5C 219.188,35.1878 224.854,40.8545 229.5,47.5C 229.631,48.2389 229.464,48.9056 229,49.5C 228.329,48.7476 227.496,48.4142 226.5,48.5C 223.141,45.4715 219.808,42.4715 216.5,39.5C 216.027,38.0937 215.027,37.427 213.5,37.5C 209.665,35.7505 205.999,33.7505 202.5,31.5C 204.696,31.59 206.863,31.9233 209,32.5C 210.376,32.3158 211.209,31.6491 211.5,30.5 Z"/></g>
<g><path style="opacity:1" fill="#2960ac" d="M 108.5,36.5 C 108.167,37.1667 107.833,37.8333 107.5,38.5C 105.973,38.427 104.973,39.0937 104.5,40.5C 104.167,41.5 103.5,42.1667 102.5,42.5C 100.973,42.427 99.9731,43.0937 99.5,44.5C 98.8333,44.8333 98.1667,45.1667 97.5,45.5C 98.0352,42.7615 97.0352,40.9282 94.5,40C 96.4406,39.2571 98.2739,39.4238 100,40.5C 102.727,38.9387 105.561,37.6054 108.5,36.5 Z"/></g>
<g><path style="opacity:0.549" fill="#9fc2e1" d="M 84.5,37.5 C 82.5698,41.1002 79.9031,44.1002 76.5,46.5C 78.4302,42.8998 81.0969,39.8998 84.5,37.5 Z"/></g>
<g><path style="opacity:0.004" fill="#def2fb" d="M 102.5,42.5 C 102.027,43.9063 101.027,44.573 99.5,44.5C 99.9731,43.0937 100.973,42.427 102.5,42.5 Z"/></g>
<g><path style="opacity:0.349" fill="#b8dbf4" d="M 144.5,41.5 C 142.833,43.8333 140.833,45.8333 138.5,47.5C 139.5,44.5 141.5,42.5 144.5,41.5 Z"/></g>
<g><path style="opacity:1" fill="#066cd3" d="M 176.5,90.5 C 175.292,91.2341 173.959,91.5674 172.5,91.5C 172.666,87.4862 172.499,83.4862 172,79.5C 171.124,77.3645 169.624,76.0312 167.5,75.5C 166.571,74.6851 165.571,73.8518 164.5,73C 160.404,73.0062 156.404,72.8396 152.5,72.5C 151.378,71.0527 149.878,70.0527 148,69.5C 147.333,70.1667 146.667,70.8333 146,71.5C 144.667,69.8333 143.333,68.1667 142,66.5C 141.333,67.8333 140.667,67.8333 140,66.5C 139.667,67.1667 139.333,67.8333 139,68.5C 140.473,61.6451 141.306,54.6451 141.5,47.5C 143.853,44.5322 146.853,42.3655 150.5,41C 163.162,40.5001 175.829,40.3334 188.5,40.5C 188.284,49.5229 188.617,58.5229 189.5,67.5C 187.349,72.4234 184.183,76.7567 180,80.5C 179.51,81.7932 179.343,83.1266 179.5,84.5C 178.5,84.5 177.5,84.5 176.5,84.5C 176.5,86.5 176.5,88.5 176.5,90.5 Z"/></g>
<g><path style="opacity:1" fill="#1356b6" d="M 146.5,21.5 C 141.972,22.9473 137.306,24.2807 132.5,25.5C 125.91,25.9727 120.243,28.3061 115.5,32.5C 113.032,33.5682 110.699,34.9015 108.5,36.5C 105.561,37.6054 102.727,38.9387 100,40.5C 98.2739,39.4238 96.4406,39.2571 94.5,40C 97.0352,40.9282 98.0352,42.7615 97.5,45.5C 95.9891,46.5025 94.3224,47.1692 92.5,47.5C 91.5655,48.5676 91.2322,49.901 91.5,51.5C 90.1667,51.5 88.8333,51.5 87.5,51.5C 85.6773,54.1633 84.6773,57.1633 84.5,60.5C 80.8132,61.8742 79.1466,64.5408 79.5,68.5C 78.6743,71.4848 77.341,74.1515 75.5,76.5C 74.5,76.5 73.5,76.5 72.5,76.5C 72.4921,79.5448 72.1587,82.5448 71.5,85.5C 69.6565,87.2789 68.9898,89.6122 69.5,92.5C 69.5,92.8333 69.5,93.1667 69.5,93.5C 67.7345,96.1226 67.0679,99.1226 67.5,102.5C 67.5,102.833 67.5,103.167 67.5,103.5C 67.1667,103.5 66.8333,103.5 66.5,103.5C 66.6414,98.1327 66.8081,92.7994 67,87.5C 65.647,86.3147 64.4803,84.9814 63.5,83.5C 62.7132,84.2421 62.0465,85.0754 61.5,86C 60.5632,86.6917 59.8966,86.525 59.5,85.5C 60.1503,80.9987 61.9836,76.9987 65,73.5C 65.5022,70.4869 66.0022,67.4869 66.5,64.5C 67.5,64.5 68.5,64.5 69.5,64.5C 69.2011,62.396 69.5344,60.396 70.5,58.5C 71.6086,59.5896 72.6086,59.5896 73.5,58.5C 72.3775,56.5184 72.3775,54.5184 73.5,52.5C 73.5,51.8333 73.5,51.1667 73.5,50.5C 75.2624,49.7377 76.2624,48.4044 76.5,46.5C 79.9031,44.1002 82.5698,41.1002 84.5,37.5C 87.0892,36.5806 89.0892,34.914 90.5,32.5C 92.7488,31.9202 94.4154,30.5869 95.5,28.5C 97.0269,28.573 98.0269,27.9063 98.5,26.5C 100.027,26.573 101.027,25.9063 101.5,24.5C 101.842,23.6618 102.508,23.3284 103.5,23.5C 104.167,23.5 104.833,23.5 105.5,23.5C 102.935,24.9071 101.269,27.0737 100.5,30C 99.2068,30.49 97.8734,30.6567 96.5,30.5C 96.4208,31.9305 96.7542,33.2638 97.5,34.5C 95.7256,35.1867 94.0589,36.0201 92.5,37C 95.7533,38.6563 99.0867,38.823 102.5,37.5C 101.652,35.5914 101.318,33.5914 101.5,31.5C 105.723,31.6606 109.723,30.994 113.5,29.5C 113.281,28.325 113.614,27.325 114.5,26.5C 117.28,25.8049 119.947,24.8049 122.5,23.5C 124.768,24.5443 127.101,24.711 129.5,24C 125.983,22.8909 125.816,21.7242 129,20.5C 131.166,21.7495 133.499,22.4162 136,22.5C 139.473,21.8371 142.973,21.5037 146.5,21.5 Z"/></g>
<g><path style="opacity:0.522" fill="#91b6d4" d="M 76.5,46.5 C 76.2624,48.4044 75.2624,49.7377 73.5,50.5C 73.7376,48.5956 74.7376,47.2623 76.5,46.5 Z"/></g>
<g><path style="opacity:0.988" fill="#789dc4" d="M 99.5,44.5 C 97.5483,47.1184 95.215,49.4518 92.5,51.5C 92.5,50.1667 92.5,48.8333 92.5,47.5C 94.3224,47.1692 95.9891,46.5025 97.5,45.5C 98.1667,45.1667 98.8333,44.8333 99.5,44.5 Z"/></g>
<g><path style="opacity:0.914" fill="#3f79bb" d="M 190.5,38.5 C 191.659,49.3255 191.826,60.3255 191,71.5C 185.92,77.7337 181.086,84.067 176.5,90.5C 176.5,88.5 176.5,86.5 176.5,84.5C 177.5,84.5 178.5,84.5 179.5,84.5C 179.343,83.1266 179.51,81.7932 180,80.5C 184.183,76.7567 187.349,72.4234 189.5,67.5C 188.617,58.5229 188.284,49.5229 188.5,40.5C 175.829,40.3334 163.162,40.5001 150.5,41C 146.853,42.3655 143.853,44.5322 141.5,47.5C 140.256,50.1026 138.589,52.436 136.5,54.5C 136.5,53.1667 136.5,51.8333 136.5,50.5C 137.906,50.0269 138.573,49.0269 138.5,47.5C 140.833,45.8333 142.833,43.8333 144.5,41.5C 146.812,40.6805 149.146,39.8471 151.5,39C 164.496,38.5001 177.496,38.3334 190.5,38.5 Z"/></g>
<g><path style="opacity:0.165" fill="#b3ddf1" d="M 138.5,47.5 C 138.573,49.0269 137.906,50.0269 136.5,50.5C 136.427,48.9731 137.094,47.9731 138.5,47.5 Z"/></g>
<g><path style="opacity:1" fill="#5178b5" d="M 92.5,47.5 C 92.5,48.8333 92.5,50.1667 92.5,51.5C 89.8046,54.5256 87.1379,57.5256 84.5,60.5C 84.6773,57.1633 85.6773,54.1633 87.5,51.5C 88.8333,51.5 90.1667,51.5 91.5,51.5C 91.2322,49.901 91.5655,48.5676 92.5,47.5 Z"/></g>
<g><path style="opacity:0.514" fill="#95b9da" d="M 73.5,50.5 C 73.5,51.1667 73.5,51.8333 73.5,52.5C 72.5,53.1667 71.5,53.8333 70.5,54.5C 70.7376,52.5956 71.7376,51.2623 73.5,50.5 Z"/></g>
<g><path style="opacity:0.278" fill="#e3f5d0" d="M 209.5,58.5 C 209.859,56.629 210.859,55.129 212.5,54C 212.167,53.8333 211.833,53.6667 211.5,53.5C 208.814,55.8558 206.147,58.1891 203.5,60.5C 205.639,55.5108 209.305,52.6775 214.5,52C 213.763,54.9009 212.097,57.0675 209.5,58.5 Z"/></g>
<g><path style="opacity:0.118" fill="#c0e3f0" d="M 70.5,54.5 C 70.573,56.0269 69.9063,57.0269 68.5,57.5C 68.427,55.9731 69.0937,54.9731 70.5,54.5 Z"/></g>
<g><path style="opacity:0.671" fill="#a4b8c6" d="M 229.5,47.5 C 234.998,51.5021 238.164,56.8354 239,63.5C 234.825,58.4691 230.659,53.4691 226.5,48.5C 227.496,48.4142 228.329,48.7476 229,49.5C 229.464,48.9056 229.631,48.2389 229.5,47.5 Z"/></g>
<g><path style="opacity:0.231" fill="#e8fcd3" d="M 99.5,55.5 C 97.5,58.1667 95.1667,60.5 92.5,62.5C 93.8333,59.1667 96.1667,56.8333 99.5,55.5 Z"/></g>
<g><path style="opacity:0.992" fill="#b0cd7e" d="M 209.5,58.5 C 208.331,61.5113 206.664,64.178 204.5,66.5C 205.35,64.5056 205.85,62.5056 206,60.5C 204.008,61.6647 202.175,62.998 200.5,64.5C 200.738,62.5956 201.738,61.2623 203.5,60.5C 206.147,58.1891 208.814,55.8558 211.5,53.5C 211.833,53.6667 212.167,53.8333 212.5,54C 210.859,55.129 209.859,56.629 209.5,58.5 Z"/></g>
<g><path style="opacity:0.961" fill="#7a9dcd" d="M 68.5,57.5 C 68.413,60.5779 67.0797,62.9112 64.5,64.5C 65.0787,61.6689 66.412,59.3356 68.5,57.5 Z"/></g>
<g><path style="opacity:0.094" fill="#edf7d3" d="M 93.5,67.5 C 95.0236,63.7978 97.1903,60.4645 100,57.5C 100.692,56.5632 100.525,55.8966 99.5,55.5C 100.314,53.7274 101.648,53.2274 103.5,54C 100.511,58.8351 97.1781,63.3351 93.5,67.5 Z"/></g>
<g><path style="opacity:1" fill="#708cc0" d="M 84.5,60.5 C 82.8283,63.2132 81.1616,65.8798 79.5,68.5C 79.1466,64.5408 80.8132,61.8742 84.5,60.5 Z"/></g>
<g><path style="opacity:1" fill="#9ec566" d="M 99.5,55.5 C 100.525,55.8966 100.692,56.5632 100,57.5C 97.1903,60.4645 95.0236,63.7978 93.5,67.5C 93.3404,69.153 92.6737,70.4863 91.5,71.5C 91.762,70.0222 91.4287,68.6888 90.5,67.5C 88.4807,69.1897 86.4807,70.8564 84.5,72.5C 86.6885,68.7929 89.3552,65.4595 92.5,62.5C 95.1667,60.5 97.5,58.1667 99.5,55.5 Z"/></g>
<g><path style="opacity:0.675" fill="#6798c1" d="M 136.5,50.5 C 136.5,51.8333 136.5,53.1667 136.5,54.5C 135.833,62.5 135.167,70.5 134.5,78.5C 134.5,71.5 134.5,64.5 134.5,57.5C 134.171,54.7718 134.837,52.4385 136.5,50.5 Z"/></g>
<g><path style="opacity:1" fill="#0d6bcd" d="M 141.5,47.5 C 141.306,54.6451 140.473,61.6451 139,68.5C 139.333,67.8333 139.667,67.1667 140,66.5C 140.667,67.8333 141.333,67.8333 142,66.5C 143.333,68.1667 144.667,69.8333 146,71.5C 146.667,70.8333 147.333,70.1667 148,69.5C 149.878,70.0527 151.378,71.0527 152.5,72.5C 150.933,77.3699 150.433,82.3699 151,87.5C 151.862,89.087 152.529,90.7536 153,92.5C 154.011,93.3366 155.178,93.67 156.5,93.5C 156.577,94.7498 157.244,95.5831 158.5,96C 160.81,96.4966 163.143,96.6633 165.5,96.5C 167.947,96.385 169.947,95.385 171.5,93.5C 172.043,93.56 172.376,93.8933 172.5,94.5C 170.377,96.7454 169.377,99.4121 169.5,102.5C 169.608,104.514 168.942,106.18 167.5,107.5C 166.735,107.923 165.902,108.257 165,108.5C 163.756,106.424 161.923,105.424 159.5,105.5C 159.267,103.938 158.6,102.605 157.5,101.5C 155.925,99.8863 155.259,97.8863 155.5,95.5C 150.818,94.1554 146.151,92.8221 141.5,91.5C 139.998,89.825 138.665,87.9917 137.5,86C 131.609,85.4028 126.609,84.2362 122.5,82.5C 121.737,81.7321 120.737,81.2321 119.5,81C 112.808,80.1691 106.142,80.3358 99.5,81.5C 98.6791,83.7828 98.0124,86.1162 97.5,88.5C 98.4429,97.1315 98.7763,105.798 98.5,114.5C 97.7321,113.737 97.2321,112.737 97,111.5C 96.5002,100.839 96.3335,90.1719 96.5,79.5C 109.344,79.8287 122.011,79.4954 134.5,78.5C 135.167,70.5 135.833,62.5 136.5,54.5C 138.589,52.436 140.256,50.1026 141.5,47.5 Z"/></g>
<g><path style="opacity:1" fill="#a0cb62" d="M 204.5,66.5 C 202.403,71.6894 200.07,76.6894 197.5,81.5C 197.342,78.6391 198.008,75.9724 199.5,73.5C 199.167,72.8333 198.833,72.1667 198.5,71.5C 197.097,73.5699 195.43,75.2365 193.5,76.5C 195.043,71.9758 197.377,67.9758 200.5,64.5C 202.175,62.998 204.008,61.6647 206,60.5C 205.85,62.5056 205.35,64.5056 204.5,66.5 Z"/></g>
<g><path style="opacity:1" fill="#6688bf" d="M 64.5,64.5 C 64.8021,68.3799 63.4688,71.3799 60.5,73.5C 61.0749,70.0884 62.4082,67.0884 64.5,64.5 Z"/></g>
<g><path style="opacity:0.6" fill="#96c2de" d="M 165.5,75.5 C 166.167,75.5 166.833,75.5 167.5,75.5C 168.11,76.391 168.443,77.391 168.5,78.5C 167.167,77.8333 166.167,76.8333 165.5,75.5 Z"/></g>
<g><path style="opacity:1" fill="#1855a6" d="M 73.5,52.5 C 72.3775,54.5184 72.3775,56.5184 73.5,58.5C 72.6086,59.5896 71.6086,59.5896 70.5,58.5C 69.5344,60.396 69.2011,62.396 69.5,64.5C 68.5,64.5 67.5,64.5 66.5,64.5C 66.0022,67.4869 65.5022,70.4869 65,73.5C 61.9836,76.9987 60.1503,80.9987 59.5,85.5C 58.2679,88.1836 58.2679,91.0169 59.5,94C 59.1667,94.5 58.8333,95 58.5,95.5C 57.7492,94.624 57.2492,93.624 57,92.5C 56.8333,96.6667 56.6667,100.833 56.5,105C 57.6186,114.434 58.2853,123.934 58.5,133.5C 57.8333,132.833 57.1667,132.167 56.5,131.5C 56.5,130.833 56.5,130.167 56.5,129.5C 56.0728,125.176 55.7395,120.842 55.5,116.5C 55.5,108.167 55.5,99.8333 55.5,91.5C 55.5,91.1667 55.5,90.8333 55.5,90.5C 57.1628,88.5615 57.8294,86.2282 57.5,83.5C 58.6491,83.2089 59.3158,82.3756 59.5,81C 60.0767,78.863 60.41,76.6963 60.5,74.5C 60.5,74.1667 60.5,73.8333 60.5,73.5C 63.4688,71.3799 64.8021,68.3799 64.5,64.5C 67.0797,62.9112 68.413,60.5779 68.5,57.5C 69.9063,57.0269 70.573,56.0269 70.5,54.5C 71.5,53.8333 72.5,53.1667 73.5,52.5 Z"/></g>
<g><path style="opacity:1" fill="#7995c8" d="M 75.5,76.5 C 74.5371,79.7442 73.2038,82.7442 71.5,85.5C 72.1587,82.5448 72.4921,79.5448 72.5,76.5C 73.5,76.5 74.5,76.5 75.5,76.5 Z"/></g>
<g><path style="opacity:0.3" fill="#bbe1fe" d="M 134.5,57.5 C 134.5,64.5 134.5,71.5 134.5,78.5C 121.5,78.5 108.5,78.5 95.5,78.5C 95.1667,78.5 94.8333,78.5 94.5,78.5C 107.323,77.5045 120.323,77.1712 133.5,77.5C 133.176,70.6457 133.509,63.979 134.5,57.5 Z"/></g>
<g><path style="opacity:0.941" fill="#9ecc5b" d="M 202.5,78.5 C 210.085,77.235 216.752,78.9017 222.5,83.5C 219.777,82.6481 217.11,81.4814 214.5,80C 210.514,79.5012 206.514,79.3345 202.5,79.5C 200.376,83.9364 198.543,88.6031 197,93.5C 194.096,95.3575 192.429,98.0241 192,101.5C 191.511,96.8312 192.344,92.4979 194.5,88.5C 194.343,89.8734 194.51,91.2068 195,92.5C 196.094,90.9221 196.928,89.2554 197.5,87.5C 197.5,86.5 197.5,85.5 197.5,84.5C 198.69,82.1307 200.357,80.1307 202.5,78.5 Z"/></g>
<g><path style="opacity:0.094" fill="#e8fbc7" d="M 226.5,86.5 C 225.167,85.5 223.833,84.5 222.5,83.5C 216.752,78.9017 210.085,77.235 202.5,78.5C 209.898,76.0604 216.898,77.2271 223.5,82C 225.141,83.129 226.141,84.629 226.5,86.5 Z"/></g>
<g><path style="opacity:0.835" fill="#badb8d" d="M 81.5,77.5 C 81.5,78.1667 81.5,78.8333 81.5,79.5C 80.0164,83.1323 78.0164,86.4656 75.5,89.5C 76.4654,84.9024 78.4654,80.9024 81.5,77.5 Z"/></g>
<g><path style="opacity:1" fill="#78c40a" d="M 197.5,81.5 C 195.935,83.5093 194.935,85.8427 194.5,88.5C 192.344,92.4979 191.511,96.8312 192,101.5C 192.429,98.0241 194.096,95.3575 197,93.5C 198.543,88.6031 200.376,83.9364 202.5,79.5C 206.514,79.3345 210.514,79.5012 214.5,80C 217.11,81.4814 219.777,82.6481 222.5,83.5C 223.833,84.5 225.167,85.5 226.5,86.5C 226.5,87.8333 226.5,89.1667 226.5,90.5C 228.361,104.068 229.027,117.735 228.5,131.5C 215.418,132.136 202.585,131.469 190,129.5C 187.852,130.977 186.518,132.977 186,135.5C 185.333,132.833 184.667,132.833 184,135.5C 180.887,132.074 180.72,128.407 183.5,124.5C 183.032,122.866 182.032,121.7 180.5,121C 181.38,119.644 181.714,118.144 181.5,116.5C 183.226,116.815 184.893,116.981 186.5,117C 186.955,114.688 187.955,112.688 189.5,111C 189.167,110 188.833,109 188.5,108C 189.167,107.667 189.833,107.333 190.5,107C 187.13,104.346 185.796,100.846 186.5,96.5C 186.5,95.1667 186.5,93.8333 186.5,92.5C 190.376,87.8827 192.709,82.5493 193.5,76.5C 195.43,75.2365 197.097,73.5699 198.5,71.5C 198.833,72.1667 199.167,72.8333 199.5,73.5C 198.008,75.9724 197.342,78.6391 197.5,81.5 Z"/></g>
<g><path style="opacity:0.925" fill="#5d87bb" d="M 60.5,74.5 C 60.41,76.6963 60.0767,78.863 59.5,81C 59.3158,82.3756 58.6491,83.2089 57.5,83.5C 57.5275,80.0836 58.5275,77.0836 60.5,74.5 Z"/></g>
<g><path style="opacity:1" fill="#3473bc" d="M 122.5,82.5 C 126.609,84.2362 131.609,85.4028 137.5,86C 138.665,87.9917 139.998,89.825 141.5,91.5C 138.881,91.0745 136.547,90.0745 134.5,88.5C 132.898,86.9261 130.898,86.2594 128.5,86.5C 125.582,85.6345 122.582,84.6345 119.5,83.5C 118.304,83.8457 118.304,84.3457 119.5,85C 121.765,86.1178 124.099,86.9512 126.5,87.5C 129.563,89.0252 132.23,91.0252 134.5,93.5C 133.167,93.5 131.833,93.5 130.5,93.5C 128.189,91.9318 125.522,91.0984 122.5,91C 121.359,90.2588 121.359,89.4255 122.5,88.5C 121.088,87.1936 119.421,86.3603 117.5,86C 116.663,84.9887 116.33,83.8221 116.5,82.5C 118.5,82.5 120.5,82.5 122.5,82.5 Z"/></g>
<g><path style="opacity:0.29" fill="#d9f1b2" d="M 87.5,81.5 C 87.2785,84.0673 86.6118,86.4006 85.5,88.5C 85.1706,85.7718 85.8372,83.4385 87.5,81.5 Z"/></g>
<g><path style="opacity:0.114" fill="#ade9f9" d="M 128.5,86.5 C 127.508,86.3284 126.842,86.6618 126.5,87.5C 124.099,86.9512 121.765,86.1178 119.5,85C 118.304,84.3457 118.304,83.8457 119.5,83.5C 122.582,84.6345 125.582,85.6345 128.5,86.5 Z"/></g>
<g><path style="opacity:0.961" fill="#a3cf67" d="M 193.5,76.5 C 192.709,82.5493 190.376,87.8827 186.5,92.5C 188.316,86.8748 190.649,81.5415 193.5,76.5 Z"/></g>
<g><path style="opacity:0.427" fill="#a8c8e2" d="M 57.5,83.5 C 57.8294,86.2282 57.1628,88.5615 55.5,90.5C 55.7215,87.9327 56.3882,85.5994 57.5,83.5 Z"/></g>
<g><path style="opacity:0.933" fill="#678dbc" d="M 71.5,85.5 C 71.2785,88.0673 70.6118,90.4006 69.5,92.5C 68.9898,89.6122 69.6565,87.2789 71.5,85.5 Z"/></g>
<g><path style="opacity:0.529" fill="#aed6f1" d="M 128.5,86.5 C 130.898,86.2594 132.898,86.9261 134.5,88.5C 132.214,88.405 130.214,87.7384 128.5,86.5 Z"/></g>
<g><path style="opacity:0.933" fill="#5484be" d="M 167.5,75.5 C 169.624,76.0312 171.124,77.3645 172,79.5C 172.499,83.4862 172.666,87.4862 172.5,91.5C 172.167,92.1667 171.833,92.8333 171.5,93.5C 169.947,95.385 167.947,96.385 165.5,96.5C 165.5,96.1667 165.5,95.8333 165.5,95.5C 166.29,94.5987 167.29,93.9321 168.5,93.5C 169.906,93.0269 170.573,92.0269 170.5,90.5C 170.81,86.3005 170.143,82.3005 168.5,78.5C 168.443,77.391 168.11,76.391 167.5,75.5 Z"/></g>
<g><path style="opacity:0.075" fill="#dbf7af" d="M 197.5,81.5 C 197.5,82.5 197.5,83.5 197.5,84.5C 196.167,85.5 196.167,86.5 197.5,87.5C 196.928,89.2554 196.094,90.9221 195,92.5C 194.51,91.2068 194.343,89.8734 194.5,88.5C 194.935,85.8427 195.935,83.5093 197.5,81.5 Z"/></g>
<g><path style="opacity:1" fill="#5989c4" d="M 152.5,72.5 C 156.404,72.8396 160.404,73.0062 164.5,73C 165.571,73.8518 166.571,74.6851 167.5,75.5C 166.833,75.5 166.167,75.5 165.5,75.5C 157.529,73.1552 153.529,76.1552 153.5,84.5C 153.14,88.0096 154.14,91.0096 156.5,93.5C 155.178,93.67 154.011,93.3366 153,92.5C 152.529,90.7536 151.862,89.087 151,87.5C 150.433,82.3699 150.933,77.3699 152.5,72.5 Z"/></g>
<g><path style="opacity:0.635" fill="#c5e79d" d="M 75.5,89.5 C 75.5905,92.1522 74.9238,94.4855 73.5,96.5C 73.4095,93.8478 74.0762,91.5145 75.5,89.5 Z"/></g>
<g><path style="opacity:1" fill="#076cd2" d="M 122.5,82.5 C 120.5,82.5 118.5,82.5 116.5,82.5C 116.33,83.8221 116.663,84.9887 117.5,86C 119.421,86.3603 121.088,87.1936 122.5,88.5C 121.359,89.4255 121.359,90.2588 122.5,91C 125.522,91.0984 128.189,91.9318 130.5,93.5C 144.107,107.83 147.607,124.497 141,143.5C 139.595,144.731 138.429,146.064 137.5,147.5C 137.089,142.662 136.422,137.995 135.5,133.5C 126.134,133.721 116.801,133.387 107.5,132.5C 106.905,129.151 104.905,127.318 101.5,127C 100.219,125.591 99.2189,124.091 98.5,122.5C 98.043,119.691 98.043,117.024 98.5,114.5C 98.7763,105.798 98.4429,97.1315 97.5,88.5C 98.0124,86.1162 98.6791,83.7828 99.5,81.5C 106.142,80.3358 112.808,80.1691 119.5,81C 120.737,81.2321 121.737,81.7321 122.5,82.5 Z"/></g>
<g><path style="opacity:0.255" fill="#a8d4ee" d="M 170.5,90.5 C 170.573,92.0269 169.906,93.0269 168.5,93.5C 168.427,91.9731 169.094,90.9731 170.5,90.5 Z"/></g>
<g><path style="opacity:1" fill="#79a2d0" d="M 176.5,90.5 C 174.989,95.0038 172.656,99.0038 169.5,102.5C 169.377,99.4121 170.377,96.7454 172.5,94.5C 172.376,93.8933 172.043,93.56 171.5,93.5C 171.833,92.8333 172.167,92.1667 172.5,91.5C 173.959,91.5674 175.292,91.2341 176.5,90.5 Z"/></g>
<g><path style="opacity:1" fill="#3e7bbd" d="M 141.5,91.5 C 146.151,92.8221 150.818,94.1554 155.5,95.5C 155.259,97.8863 155.925,99.8863 157.5,101.5C 156.833,101.5 156.167,101.5 155.5,101.5C 154.5,101.167 153.833,100.5 153.5,99.5C 153.027,98.0937 152.027,97.427 150.5,97.5C 147.291,95.7349 144.291,93.7349 141.5,91.5 Z"/></g>
<g><path style="opacity:1" fill="#0c55b7" d="M 66.5,103.5 C 64.9309,107.785 64.2642,112.285 64.5,117C 64.6319,124.881 65.2986,132.715 66.5,140.5C 67.086,140.709 67.586,141.043 68,141.5C 68.3333,144.167 68.6667,146.833 69,149.5C 73.4696,154.771 76.6363,160.771 78.5,167.5C 79.5,167.5 80.5,167.5 81.5,167.5C 81.7376,169.404 82.7376,170.738 84.5,171.5C 85.1495,173.435 85.4828,175.435 85.5,177.5C 84.1667,177.5 82.8333,177.5 81.5,177.5C 80.1667,175.833 78.8333,174.167 77.5,172.5C 76.9373,168.689 74.9373,166.023 71.5,164.5C 71.6107,163.883 71.944,163.383 72.5,163C 71.2644,161.915 69.9311,161.082 68.5,160.5C 68.5,160.167 68.5,159.833 68.5,159.5C 67.1573,153.451 64.4907,148.118 60.5,143.5C 60.7406,141.102 60.0739,139.102 58.5,137.5C 58.5,136.167 58.5,134.833 58.5,133.5C 58.2853,123.934 57.6186,114.434 56.5,105C 56.6667,100.833 56.8333,96.6667 57,92.5C 57.2492,93.624 57.7492,94.624 58.5,95.5C 58.8333,95 59.1667,94.5 59.5,94C 58.2679,91.0169 58.2679,88.1836 59.5,85.5C 59.8966,86.525 60.5632,86.6917 61.5,86C 62.0465,85.0754 62.7132,84.2421 63.5,83.5C 64.4803,84.9814 65.647,86.3147 67,87.5C 66.8081,92.7994 66.6414,98.1327 66.5,103.5 Z"/></g>
<g><path style="opacity:0.525" fill="#a9cbde" d="M 136.5,94.5 C 137.833,95.1667 138.833,96.1667 139.5,97.5C 137.5,97.5 136.5,96.5 136.5,94.5 Z"/></g>
<g><path style="opacity:0.031" fill="#b0d2eb" d="M 156.5,93.5 C 159.246,95.1264 162.246,95.7931 165.5,95.5C 165.5,95.8333 165.5,96.1667 165.5,96.5C 163.143,96.6633 160.81,96.4966 158.5,96C 157.244,95.5831 156.577,94.7498 156.5,93.5 Z"/></g>
<g><path style="opacity:0.722" fill="#d0eda4" d="M 186.5,92.5 C 186.5,93.8333 186.5,95.1667 186.5,96.5C 185.167,98.8333 183.833,101.167 182.5,103.5C 183.065,99.4632 184.399,95.7966 186.5,92.5 Z"/></g>
<g><path style="opacity:0.694" fill="#8db1d2" d="M 69.5,93.5 C 69.1417,96.6888 68.475,99.6888 67.5,102.5C 67.0679,99.1226 67.7345,96.1226 69.5,93.5 Z"/></g>
<g><path style="opacity:0.569" fill="#a2c1df" d="M 94.5,78.5 C 94.8333,78.5 95.1667,78.5 95.5,78.5C 95.2358,92.8625 95.5692,107.196 96.5,121.5C 95.7784,121.082 95.2784,120.416 95,119.5C 93.4277,105.746 93.2611,92.0793 94.5,78.5 Z"/></g>
<g><path style="opacity:0.435" fill="#bcdbf3" d="M 150.5,97.5 C 152.027,97.427 153.027,98.0937 153.5,99.5C 151.973,99.573 150.973,98.9063 150.5,97.5 Z"/></g>
<g><path style="opacity:0.992" fill="#1a67b3" d="M 95.5,78.5 C 108.5,78.5 121.5,78.5 134.5,78.5C 122.011,79.4954 109.344,79.8287 96.5,79.5C 96.3335,90.1719 96.5002,100.839 97,111.5C 97.2321,112.737 97.7321,113.737 98.5,114.5C 98.043,117.024 98.043,119.691 98.5,122.5C 97.8333,122.167 97.1667,121.833 96.5,121.5C 95.5692,107.196 95.2358,92.8625 95.5,78.5 Z"/></g>
<g><path style="opacity:0.514" fill="#a8c3da" d="M 139.5,97.5 C 141.262,98.2623 142.262,99.5956 142.5,101.5C 140.738,100.738 139.738,99.4044 139.5,97.5 Z"/></g>
<g><path style="opacity:0.51" fill="#a7cce3" d="M 155.5,101.5 C 156.167,101.5 156.833,101.5 157.5,101.5C 158.6,102.605 159.267,103.938 159.5,105.5C 157.833,104.5 156.5,103.167 155.5,101.5 Z"/></g>
<g><path style="opacity:0.392" fill="#cbeaa5" d="M 73.5,96.5 C 73.8294,99.2282 73.1628,101.562 71.5,103.5C 71.4095,100.848 72.0762,98.5145 73.5,96.5 Z"/></g>
<g><path style="opacity:1" fill="#85bf39" d="M 91.5,71.5 C 90.3611,74.918 89.0277,78.2513 87.5,81.5C 85.8372,83.4385 85.1706,85.7718 85.5,88.5C 85.5,88.8333 85.5,89.1667 85.5,89.5C 84.7784,89.9175 84.2784,90.5842 84,91.5C 81.885,101.698 82.0517,111.698 84.5,121.5C 84.5,121.833 84.5,122.167 84.5,122.5C 84.2938,125.495 84.9605,128.162 86.5,130.5C 86.5,131.833 86.5,133.167 86.5,134.5C 80.5962,122.284 78.9296,109.284 81.5,95.5C 83.2736,88.1075 85.6069,80.9408 88.5,74C 88.1501,72.7425 87.4835,72.4092 86.5,73C 84.9343,75.3256 83.2676,77.4922 81.5,79.5C 81.5,78.8333 81.5,78.1667 81.5,77.5C 81.7497,75.326 82.7497,73.6594 84.5,72.5C 86.4807,70.8564 88.4807,69.1897 90.5,67.5C 91.4287,68.6888 91.762,70.0222 91.5,71.5 Z"/></g>
<g><path style="opacity:0.402" fill="#e0f4bc" d="M 230.5,94.5 C 231.987,100.936 232.654,107.602 232.5,114.5C 232.057,120.265 232.057,125.932 232.5,131.5C 232.547,133.038 231.88,134.038 230.5,134.5C 230.5,121.167 230.5,107.833 230.5,94.5 Z"/></g>
<g><path style="opacity:0.278" fill="#a8c9e5" d="M 143.5,102.5 C 144.906,102.973 145.573,103.973 145.5,105.5C 144.094,105.027 143.427,104.027 143.5,102.5 Z"/></g>
<g><path style="opacity:0.285" fill="#e0fabc" d="M 85.5,89.5 C 83.8317,100.152 83.4984,110.819 84.5,121.5C 82.0517,111.698 81.885,101.698 84,91.5C 84.2784,90.5842 84.7784,89.9175 85.5,89.5 Z"/></g>
<g><path style="opacity:0.777" fill="#7b9dbc" d="M 55.5,91.5 C 55.5,99.8333 55.5,108.167 55.5,116.5C 55.1667,116.5 54.8333,116.5 54.5,116.5C 53.3512,108.005 53.6845,99.6712 55.5,91.5 Z"/></g>
<g><path style="opacity:0.741" fill="#6595bb" d="M 159.5,105.5 C 161.923,105.424 163.756,106.424 165,108.5C 165.902,108.257 166.735,107.923 167.5,107.5C 167.315,109.196 166.481,110.529 165,111.5C 162.96,109.63 161.127,107.63 159.5,105.5 Z"/></g>
<g><path style="opacity:0.141" fill="#c1d8f0" d="M 145.5,105.5 C 146.906,105.973 147.573,106.973 147.5,108.5C 146.094,108.027 145.427,107.027 145.5,105.5 Z"/></g>
<g><path style="opacity:0.957" fill="#6080ae" d="M 147.5,108.5 C 149.403,111.53 150.737,114.863 151.5,118.5C 150.833,118.167 150.167,117.833 149.5,117.5C 148.366,114.63 147.7,111.63 147.5,108.5 Z"/></g>
<g><path style="opacity:0.161" fill="#a1c2e0" d="M 54.5,116.5 C 54.8333,116.5 55.1667,116.5 55.5,116.5C 55.7395,120.842 56.0728,125.176 56.5,129.5C 54.8227,125.455 54.1561,121.122 54.5,116.5 Z"/></g>
<g><path style="opacity:1" fill="#305e9f" d="M 149.5,117.5 C 150.167,117.833 150.833,118.167 151.5,118.5C 152.615,125.179 152.615,131.846 151.5,138.5C 150.222,143.722 147.889,148.389 144.5,152.5C 144.338,150.473 144.505,148.473 145,146.5C 149.256,141.64 150.923,135.973 150,129.5C 149.586,129.957 149.086,130.291 148.5,130.5C 148.167,129.5 147.833,128.5 147.5,127.5C 149.019,124.399 149.685,121.066 149.5,117.5 Z"/></g>
<g><path style="opacity:0.694" fill="#d0eba4" d="M 182.5,103.5 C 180.755,114.4 177.422,124.733 172.5,134.5C 171.833,134.833 171.167,135.167 170.5,135.5C 175.118,124.969 179.118,114.302 182.5,103.5 Z"/></g>
<g><path style="opacity:1" fill="#79c210" d="M 226.5,90.5 C 228.067,91.6808 228.901,93.3474 229,95.5C 229.5,107.829 229.667,120.162 229.5,132.5C 216.167,132.5 202.833,132.5 189.5,132.5C 189.666,140.174 189.5,147.841 189,155.5C 189.03,158.361 188.197,160.695 186.5,162.5C 186.331,158.343 186.998,154.343 188.5,150.5C 188.353,147.89 187.519,145.556 186,143.5C 185.309,148.492 184.143,153.326 182.5,158C 183.727,159.587 183.394,160.921 181.5,162C 180.668,162.688 180.002,162.521 179.5,161.5C 180,160.5 180.5,159.5 181,158.5C 181.499,153.511 181.666,148.511 181.5,143.5C 178.856,143.16 176.523,143.827 174.5,145.5C 173.269,144.349 173.269,143.183 174.5,142C 173.756,140.961 172.756,140.461 171.5,140.5C 172.341,138.621 172.675,136.621 172.5,134.5C 177.422,124.733 180.755,114.4 182.5,103.5C 183.833,101.167 185.167,98.8333 186.5,96.5C 185.796,100.846 187.13,104.346 190.5,107C 189.833,107.333 189.167,107.667 188.5,108C 188.833,109 189.167,110 189.5,111C 187.955,112.688 186.955,114.688 186.5,117C 184.893,116.981 183.226,116.815 181.5,116.5C 181.714,118.144 181.38,119.644 180.5,121C 182.032,121.7 183.032,122.866 183.5,124.5C 180.72,128.407 180.887,132.074 184,135.5C 184.667,132.833 185.333,132.833 186,135.5C 186.518,132.977 187.852,130.977 190,129.5C 202.585,131.469 215.418,132.136 228.5,131.5C 229.027,117.735 228.361,104.068 226.5,90.5 Z"/></g>
<g><path style="opacity:1" fill="#6192cc" d="M 96.5,121.5 C 97.1667,121.833 97.8333,122.167 98.5,122.5C 99.2189,124.091 100.219,125.591 101.5,127C 104.905,127.318 106.905,129.151 107.5,132.5C 102.167,130.5 98.5,126.833 96.5,121.5 Z"/></g>
<g><path style="opacity:0.055" fill="#bdd8e8" d="M 151.5,118.5 C 154.094,125.174 154.094,131.841 151.5,138.5C 152.615,131.846 152.615,125.179 151.5,118.5 Z"/></g>
<g><path style="opacity:0.169" fill="#ecfcc9" d="M 84.5,122.5 C 85.7682,124.905 86.4349,127.572 86.5,130.5C 84.9605,128.162 84.2938,125.495 84.5,122.5 Z"/></g>
<g><path style="opacity:1" fill="#3362aa" d="M 66.5,103.5 C 66.8333,103.5 67.1667,103.5 67.5,103.5C 66.2682,111.827 66.2682,120.16 67.5,128.5C 67.3354,131.518 67.502,134.518 68,137.5C 68.3826,138.056 68.8826,138.389 69.5,138.5C 69.5,138.833 69.5,139.167 69.5,139.5C 68.7413,144.313 70.0747,148.313 73.5,151.5C 75.1054,154.378 76.4388,157.378 77.5,160.5C 77.427,162.027 78.0937,163.027 79.5,163.5C 80.6737,164.514 81.3404,165.847 81.5,167.5C 80.5,167.5 79.5,167.5 78.5,167.5C 76.6363,160.771 73.4696,154.771 69,149.5C 68.6667,146.833 68.3333,144.167 68,141.5C 67.586,141.043 67.086,140.709 66.5,140.5C 65.2986,132.715 64.6319,124.881 64.5,117C 64.2642,112.285 64.9309,107.785 66.5,103.5 Z"/></g>
<g><path style="opacity:1" fill="#78c211" d="M 86.5,134.5 C 86.5,134.833 86.5,135.167 86.5,135.5C 87.5308,142.567 90.8641,148.234 96.5,152.5C 96.427,154.027 97.0937,155.027 98.5,155.5C 98.427,157.027 99.0937,158.027 100.5,158.5C 104.167,164.167 108.833,168.833 114.5,172.5C 116.951,175.277 119.951,177.277 123.5,178.5C 126.611,182.319 130.611,184.652 135.5,185.5C 135.62,186.586 136.287,187.253 137.5,187.5C 150.007,192.448 163.007,193.781 176.5,191.5C 177.949,190.828 179.282,190.161 180.5,189.5C 180.5,189.167 180.5,188.833 180.5,188.5C 183.518,188.296 186.518,187.963 189.5,187.5C 191.861,187.326 194.194,186.993 196.5,186.5C 196.5,187.5 196.5,188.5 196.5,189.5C 193.368,189.784 190.368,190.617 187.5,192C 186.619,192.708 185.953,193.542 185.5,194.5C 182.345,196.076 179.012,197.076 175.5,197.5C 159.757,200.215 144.091,199.882 128.5,196.5C 126.833,196.5 125.167,196.5 123.5,196.5C 121.047,194.102 118.381,191.935 115.5,190C 114.207,189.51 112.873,189.343 111.5,189.5C 110.833,189.5 110.167,189.5 109.5,189.5C 108.404,186.227 106.071,184.561 102.5,184.5C 100.761,181.757 98.4274,179.757 95.5,178.5C 95.1667,176.167 93.8333,174.833 91.5,174.5C 88.327,168.807 85.327,162.974 82.5,157C 81.8699,155.69 80.8699,154.856 79.5,154.5C 77.2263,150.286 75.2263,145.953 73.5,141.5C 71.7846,129.24 71.1179,116.906 71.5,104.5C 71.5,104.167 71.5,103.833 71.5,103.5C 73.1628,101.562 73.8294,99.2282 73.5,96.5C 74.9238,94.4855 75.5905,92.1522 75.5,89.5C 78.0164,86.4656 80.0164,83.1323 81.5,79.5C 83.2676,77.4922 84.9343,75.3256 86.5,73C 87.4835,72.4092 88.1501,72.7425 88.5,74C 85.6069,80.9408 83.2736,88.1075 81.5,95.5C 78.9296,109.284 80.5962,122.284 86.5,134.5 Z"/></g>
<g><path style="opacity:1" fill="#88ba3f" d="M 226.5,86.5 C 229.137,88.4818 230.47,91.1485 230.5,94.5C 230.5,107.833 230.5,121.167 230.5,134.5C 217.5,134.5 204.5,134.5 191.5,134.5C 190.72,143.348 190.053,152.348 189.5,161.5C 189.672,162.492 189.338,163.158 188.5,163.5C 187.833,163.833 187.167,164.167 186.5,164.5C 186.5,163.833 186.5,163.167 186.5,162.5C 188.197,160.695 189.03,158.361 189,155.5C 189.5,147.841 189.666,140.174 189.5,132.5C 202.833,132.5 216.167,132.5 229.5,132.5C 229.667,120.162 229.5,107.829 229,95.5C 228.901,93.3474 228.067,91.6808 226.5,90.5C 226.5,89.1667 226.5,87.8333 226.5,86.5 Z"/></g>
<g><path style="opacity:0.439" fill="#c9e599" d="M 71.5,104.5 C 71.1179,116.906 71.7846,129.24 73.5,141.5C 69.1999,129.336 68.5332,117.003 71.5,104.5 Z"/></g>
<g><path style="opacity:0.396" fill="#99c5e2" d="M 56.5,131.5 C 57.1667,132.167 57.8333,132.833 58.5,133.5C 58.5,134.833 58.5,136.167 58.5,137.5C 57.2616,135.786 56.595,133.786 56.5,131.5 Z"/></g>
<g><path style="opacity:0.651" fill="#d4efaa" d="M 86.5,130.5 C 87.9807,134.074 89.314,137.74 90.5,141.5C 88.744,139.751 87.4106,137.751 86.5,135.5C 86.5,135.167 86.5,134.833 86.5,134.5C 86.5,133.167 86.5,131.833 86.5,130.5 Z"/></g>
<g><path style="opacity:0.012" fill="#eafffe" d="M 113.5,134.5 C 120.5,134.5 127.5,134.5 134.5,134.5C 134.5,138.833 134.5,143.167 134.5,147.5C 133.517,143.702 133.183,139.702 133.5,135.5C 126.646,135.824 119.979,135.491 113.5,134.5 Z"/></g>
<g><path style="opacity:0.067" fill="#f3ffd9" d="M 191.5,134.5 C 204.5,134.5 217.5,134.5 230.5,134.5C 218.011,135.495 205.344,135.829 192.5,135.5C 192.821,140.695 192.487,145.695 191.5,150.5C 191.5,145.167 191.5,139.833 191.5,134.5 Z"/></g>
<g><path style="opacity:0.847" fill="#77a1c7" d="M 67.5,128.5 C 68.4339,131.656 69.1006,134.989 69.5,138.5C 68.8826,138.389 68.3826,138.056 68,137.5C 67.502,134.518 67.3354,131.518 67.5,128.5 Z"/></g>
<g><path style="opacity:0.106" fill="#e5fac0" d="M 170.5,135.5 C 170.25,137.674 169.25,139.341 167.5,140.5C 167.75,138.326 168.75,136.659 170.5,135.5 Z"/></g>
<g><path style="opacity:0.514" fill="#89afd9" d="M 58.5,137.5 C 60.0739,139.102 60.7406,141.102 60.5,143.5C 59.2616,141.786 58.595,139.786 58.5,137.5 Z"/></g>
<g><path style="opacity:0.712" fill="#5688ad" d="M 107.5,132.5 C 116.801,133.387 126.134,133.721 135.5,133.5C 135.173,143.015 135.506,152.348 136.5,161.5C 136.217,162.289 135.717,162.956 135,163.5C 134.501,158.177 134.334,152.844 134.5,147.5C 134.5,143.167 134.5,138.833 134.5,134.5C 127.5,134.5 120.5,134.5 113.5,134.5C 111.102,134.741 109.102,134.074 107.5,132.5 Z"/></g>
<g><path style="opacity:1" fill="#0c52aa" d="M 130.5,93.5 C 131.833,93.5 133.167,93.5 134.5,93.5C 135.167,93.8333 135.833,94.1667 136.5,94.5C 136.5,96.5 137.5,97.5 139.5,97.5C 139.738,99.4044 140.738,100.738 142.5,101.5C 143.167,101.5 143.5,101.833 143.5,102.5C 143.427,104.027 144.094,105.027 145.5,105.5C 145.427,107.027 146.094,108.027 147.5,108.5C 147.7,111.63 148.366,114.63 149.5,117.5C 149.685,121.066 149.019,124.399 147.5,127.5C 147.833,128.5 148.167,129.5 148.5,130.5C 149.086,130.291 149.586,129.957 150,129.5C 150.923,135.973 149.256,141.64 145,146.5C 144.505,148.473 144.338,150.473 144.5,152.5C 144.5,153.167 144.167,153.5 143.5,153.5C 140.899,154.28 138.899,155.946 137.5,158.5C 136.317,154.825 136.317,151.159 137.5,147.5C 138.429,146.064 139.595,144.731 141,143.5C 147.607,124.497 144.107,107.83 130.5,93.5 Z"/></g>
<g><path style="opacity:0.216" fill="#def9c0" d="M 167.5,140.5 C 167.262,142.404 166.262,143.738 164.5,144.5C 164.738,142.596 165.738,141.262 167.5,140.5 Z"/></g>
<g><path style="opacity:0.898" fill="#6288b9" d="M 69.5,139.5 C 71.0026,143.341 72.3359,147.341 73.5,151.5C 70.0747,148.313 68.7413,144.313 69.5,139.5 Z"/></g>
<g><path style="opacity:0.122" fill="#e8fbc7" d="M 91.5,143.5 C 92.6737,144.514 93.3404,145.847 93.5,147.5C 91.8958,146.713 91.2291,145.38 91.5,143.5 Z"/></g>
<g><path style="opacity:0.271" fill="#d2f0ad" d="M 73.5,141.5 C 75.2263,145.953 77.2263,150.286 79.5,154.5C 79.5,155.167 79.5,155.833 79.5,156.5C 76.1597,152.136 74.1597,147.136 73.5,141.5 Z"/></g>
<g><path style="opacity:0.984" fill="#98c759" d="M 86.5,135.5 C 87.4106,137.751 88.744,139.751 90.5,141.5C 91.3382,141.842 91.6716,142.508 91.5,143.5C 91.2291,145.38 91.8958,146.713 93.5,147.5C 94.8897,148.899 95.8897,150.566 96.5,152.5C 90.8641,148.234 87.5308,142.567 86.5,135.5 Z"/></g>
<g><path style="opacity:0.376" fill="#dff4b7" d="M 164.5,144.5 C 163.581,147.089 161.914,149.089 159.5,150.5C 160.419,147.911 162.086,145.911 164.5,144.5 Z"/></g>
<g><path style="opacity:0.43" fill="#d2f2a6" d="M 191.5,134.5 C 191.5,139.833 191.5,145.167 191.5,150.5C 191.665,153.518 191.498,156.518 191,159.5C 190.722,160.416 190.222,161.082 189.5,161.5C 190.053,152.348 190.72,143.348 191.5,134.5 Z"/></g>
<g><path style="opacity:0.902" fill="#5179b2" d="M 60.5,143.5 C 64.4907,148.118 67.1573,153.451 68.5,159.5C 64.7985,154.764 62.1318,149.43 60.5,143.5 Z"/></g>
<g><path style="opacity:1" fill="#3068a8" d="M 135.5,133.5 C 136.422,137.995 137.089,142.662 137.5,147.5C 136.317,151.159 136.317,154.825 137.5,158.5C 138.899,155.946 140.899,154.28 143.5,153.5C 141.906,156.764 139.573,159.431 136.5,161.5C 135.506,152.348 135.173,143.015 135.5,133.5 Z"/></g>
<g><path style="opacity:1" fill="#87bc3b" d="M 172.5,134.5 C 172.675,136.621 172.341,138.621 171.5,140.5C 166.425,146.078 161.091,151.578 155.5,157C 154.906,157.464 154.239,157.631 153.5,157.5C 155.167,155.5 156.833,153.5 158.5,151.5C 158.5,150.833 158.833,150.5 159.5,150.5C 161.914,149.089 163.581,147.089 164.5,144.5C 166.262,143.738 167.262,142.404 167.5,140.5C 169.25,139.341 170.25,137.674 170.5,135.5C 171.167,135.167 171.833,134.833 172.5,134.5 Z"/></g>
<g><path style="opacity:0.133" fill="#e9fbcc" d="M 96.5,152.5 C 97.9063,152.973 98.573,153.973 98.5,155.5C 97.0937,155.027 96.427,154.027 96.5,152.5 Z"/></g>
<g><path style="opacity:1" fill="#78c409" d="M 171.5,140.5 C 172.756,140.461 173.756,140.961 174.5,142C 173.269,143.183 173.269,144.349 174.5,145.5C 176.523,143.827 178.856,143.16 181.5,143.5C 181.666,148.511 181.499,153.511 181,158.5C 180.5,159.5 180,160.5 179.5,161.5C 180.002,162.521 180.668,162.688 181.5,162C 183.394,160.921 183.727,159.587 182.5,158C 184.143,153.326 185.309,148.492 186,143.5C 187.519,145.556 188.353,147.89 188.5,150.5C 186.998,154.343 186.331,158.343 186.5,162.5C 186.5,163.167 186.5,163.833 186.5,164.5C 184.954,167.2 182.621,169.033 179.5,170C 178.695,171.113 178.028,172.279 177.5,173.5C 176.167,173.5 174.833,173.5 173.5,173.5C 160.833,173.5 148.167,173.5 135.5,173.5C 135.433,168.899 137.767,166.566 142.5,166.5C 143.386,165.675 143.719,164.675 143.5,163.5C 146.852,163.47 149.518,162.137 151.5,159.5C 151.833,158.5 152.5,157.833 153.5,157.5C 154.239,157.631 154.906,157.464 155.5,157C 161.091,151.578 166.425,146.078 171.5,140.5 Z"/></g>
<g><path style="opacity:1" fill="#9ecb5e" d="M 79.5,154.5 C 80.8699,154.856 81.8699,155.69 82.5,157C 85.327,162.974 88.327,168.807 91.5,174.5C 87.7376,171.071 84.7376,167.071 82.5,162.5C 82.0075,160.181 81.0075,158.181 79.5,156.5C 79.5,155.833 79.5,155.167 79.5,154.5 Z"/></g>
<g><path style="opacity:0.157" fill="#daf7b9" d="M 79.5,156.5 C 81.0075,158.181 82.0075,160.181 82.5,162.5C 80.461,161.089 79.461,159.089 79.5,156.5 Z"/></g>
<g><path style="opacity:0.231" fill="#e3f7b6" d="M 98.5,155.5 C 99.9063,155.973 100.573,156.973 100.5,158.5C 99.0937,158.027 98.427,157.027 98.5,155.5 Z"/></g>
<g><path style="opacity:0.651" fill="#d1eca8" d="M 158.5,151.5 C 156.833,153.5 155.167,155.5 153.5,157.5C 152.5,157.833 151.833,158.5 151.5,159.5C 150.833,159.5 150.167,159.5 149.5,159.5C 151.9,156.097 154.9,153.43 158.5,151.5 Z"/></g>
<g><path style="opacity:0.773" fill="#759ec6" d="M 68.5,160.5 C 69.9311,161.082 71.2644,161.915 72.5,163C 71.944,163.383 71.6107,163.883 71.5,164.5C 70.0256,163.564 69.0256,162.23 68.5,160.5 Z"/></g>
<g><path style="opacity:0.251" fill="#91c3e5" d="M 77.5,160.5 C 78.9063,160.973 79.573,161.973 79.5,163.5C 78.0937,163.027 77.427,162.027 77.5,160.5 Z"/></g>
<g><path style="opacity:1" fill="#9fcc61" d="M 149.5,159.5 C 150.167,159.5 150.833,159.5 151.5,159.5C 149.518,162.137 146.852,163.47 143.5,163.5C 145.147,161.674 147.147,160.34 149.5,159.5 Z"/></g>
<g><path style="opacity:0.18" fill="#def5b9" d="M 100.5,158.5 C 105.5,162.833 110.167,167.5 114.5,172.5C 108.833,168.833 104.167,164.167 100.5,158.5 Z"/></g>
<g><path style="opacity:0.788" fill="#517daf" d="M 71.5,164.5 C 74.9373,166.023 76.9373,168.689 77.5,172.5C 75.1468,170.14 73.1468,167.473 71.5,164.5 Z"/></g>
<g><path style="opacity:0.812" fill="#b9da87" d="M 188.5,163.5 C 186.108,168.225 182.441,171.558 177.5,173.5C 178.028,172.279 178.695,171.113 179.5,170C 182.621,169.033 184.954,167.2 186.5,164.5C 187.167,164.167 187.833,163.833 188.5,163.5 Z"/></g>
<g><path style="opacity:0.624" fill="#7b9ec7" d="M 81.5,167.5 C 83.2624,168.262 84.2624,169.596 84.5,171.5C 82.7376,170.738 81.7376,169.404 81.5,167.5 Z"/></g>
<g><path style="opacity:0.514" fill="#d6e6c3" d="M 133.5,168.5 C 130.742,169.967 131.075,170.633 134.5,170.5C 134.5,171.5 134.5,172.5 134.5,173.5C 132.305,172.003 129.971,171.17 127.5,171C 129.158,169.337 131.158,168.504 133.5,168.5 Z"/></g>
<g><path style="opacity:0.082" fill="#e1f8c1" d="M 114.5,172.5 C 118.025,173.759 121.025,175.759 123.5,178.5C 119.951,177.277 116.951,175.277 114.5,172.5 Z"/></g>
<g><path style="opacity:0.934" fill="#8bba4b" d="M 143.5,163.5 C 143.719,164.675 143.386,165.675 142.5,166.5C 137.767,166.566 135.433,168.899 135.5,173.5C 148.167,173.5 160.833,173.5 173.5,173.5C 160.677,174.495 147.677,174.829 134.5,174.5C 134.5,174.167 134.5,173.833 134.5,173.5C 134.5,172.5 134.5,171.5 134.5,170.5C 131.075,170.633 130.742,169.967 133.5,168.5C 136.515,166.326 139.849,164.659 143.5,163.5 Z"/></g>
<g><path style="opacity:0.651" fill="#c3e397" d="M 91.5,174.5 C 93.8333,174.833 95.1667,176.167 95.5,178.5C 93.7356,177.674 92.4023,176.341 91.5,174.5 Z"/></g>
<g><path style="opacity:0.349" fill="#dffab6" d="M 173.5,173.5 C 174.833,173.5 176.167,173.5 177.5,173.5C 172.399,175.049 167.066,176.049 161.5,176.5C 152.371,175.859 143.371,175.192 134.5,174.5C 147.677,174.829 160.677,174.495 173.5,173.5 Z"/></g>
<g><path style="opacity:0.169" fill="#e4f0cb" d="M 207.5,181.5 C 208.29,180.206 209.29,179.039 210.5,178C 210.167,177.833 209.833,177.667 209.5,177.5C 206.852,179.658 203.852,180.992 200.5,181.5C 204.83,178.697 209.33,176.03 214,173.5C 213.561,177.451 211.394,180.117 207.5,181.5 Z"/></g>
<g><path style="opacity:1" fill="#3f67aa" d="M 84.5,171.5 C 86.7267,173.607 88.7267,175.94 90.5,178.5C 91.5,181.5 93.5,183.5 96.5,184.5C 96.6243,186.582 97.6243,188.082 99.5,189C 98.552,189.483 97.552,189.649 96.5,189.5C 90.9174,186.253 85.9174,182.253 81.5,177.5C 82.8333,177.5 84.1667,177.5 85.5,177.5C 85.4828,175.435 85.1495,173.435 84.5,171.5 Z"/></g>
<g><path style="opacity:0.725" fill="#c9e79b" d="M 95.5,178.5 C 98.4274,179.757 100.761,181.757 102.5,184.5C 99.5726,183.243 97.2393,181.243 95.5,178.5 Z"/></g>
<g><path style="opacity:0.675" fill="#a2c1dc" d="M 90.5,178.5 C 92.8333,180.167 94.8333,182.167 96.5,184.5C 93.5,183.5 91.5,181.5 90.5,178.5 Z"/></g>
<g><path style="opacity:0.992" fill="#a6c875" d="M 207.5,181.5 C 206.833,182.833 205.833,183.833 204.5,184.5C 204.167,184.5 203.833,184.5 203.5,184.5C 203.38,183.414 202.713,182.747 201.5,182.5C 198.537,184.643 195.204,185.643 191.5,185.5C 194.314,183.93 197.314,182.597 200.5,181.5C 203.852,180.992 206.852,179.658 209.5,177.5C 209.833,177.667 210.167,177.833 210.5,178C 209.29,179.039 208.29,180.206 207.5,181.5 Z"/></g>
<g><path style="opacity:0.792" fill="#c4e292" d="M 123.5,178.5 C 130.889,182.367 138.556,185.367 146.5,187.5C 142.738,187.309 139.071,186.642 135.5,185.5C 130.611,184.652 126.611,182.319 123.5,178.5 Z"/></g>
<g><path style="opacity:1" fill="#89c043" d="M 203.5,184.5 C 202.5,184.833 201.833,185.5 201.5,186.5C 200.101,187.89 198.434,188.89 196.5,189.5C 196.5,188.5 196.5,187.5 196.5,186.5C 194.194,186.993 191.861,187.326 189.5,187.5C 190.167,186.833 190.833,186.167 191.5,185.5C 195.204,185.643 198.537,184.643 201.5,182.5C 202.713,182.747 203.38,183.414 203.5,184.5 Z"/></g>
<g><path style="opacity:1" fill="#b2d475" d="M 102.5,184.5 C 106.071,184.561 108.404,186.227 109.5,189.5C 106.63,188.567 104.296,186.9 102.5,184.5 Z"/></g>
<g><path style="opacity:0.012" fill="#f3fddf" d="M 203.5,184.5 C 203.833,184.5 204.167,184.5 204.5,184.5C 204.027,185.906 203.027,186.573 201.5,186.5C 201.833,185.5 202.5,184.833 203.5,184.5 Z"/></g>
<g><path style="opacity:0.533" fill="#d3f1af" d="M 191.5,185.5 C 190.833,186.167 190.167,186.833 189.5,187.5C 186.518,187.963 183.518,188.296 180.5,188.5C 183.907,186.926 187.573,185.926 191.5,185.5 Z"/></g>
<g><path style="opacity:1" fill="#5d81ab" d="M 96.5,184.5 C 101.524,188.53 106.524,192.53 111.5,196.5C 111.158,197.338 110.492,197.672 109.5,197.5C 104.632,195.618 100.299,192.952 96.5,189.5C 97.552,189.649 98.552,189.483 99.5,189C 97.6243,188.082 96.6243,186.582 96.5,184.5 Z"/></g>
<g><path style="opacity:0.339" fill="#e1fab9" d="M 146.5,187.5 C 152.498,188.106 158.498,188.773 164.5,189.5C 169.8,188.656 175.134,188.323 180.5,188.5C 180.5,188.833 180.5,189.167 180.5,189.5C 172.179,190.352 163.846,190.519 155.5,190C 152.203,189.796 149.203,188.963 146.5,187.5 Z"/></g>
<g><path style="opacity:0.176" fill="#e0f7ba" d="M 109.5,189.5 C 110.167,189.5 110.833,189.5 111.5,189.5C 111.833,190.167 112.167,190.833 112.5,191.5C 110.973,191.573 109.973,190.906 109.5,189.5 Z"/></g>
<g><path style="opacity:1" fill="#9fcd63" d="M 111.5,189.5 C 112.873,189.343 114.207,189.51 115.5,190C 118.381,191.935 121.047,194.102 123.5,196.5C 119.407,195.618 115.74,193.951 112.5,191.5C 112.167,190.833 111.833,190.167 111.5,189.5 Z"/></g>
<g><path style="opacity:1" fill="#81bc30" d="M 135.5,185.5 C 139.071,186.642 142.738,187.309 146.5,187.5C 149.203,188.963 152.203,189.796 155.5,190C 163.846,190.519 172.179,190.352 180.5,189.5C 179.282,190.161 177.949,190.828 176.5,191.5C 163.007,193.781 150.007,192.448 137.5,187.5C 136.287,187.253 135.62,186.586 135.5,185.5 Z"/></g>
<g><path style="opacity:1" fill="#a4d068" d="M 196.5,189.5 C 193.992,191.924 190.992,193.59 187.5,194.5C 186.833,194.5 186.167,194.5 185.5,194.5C 185.953,193.542 186.619,192.708 187.5,192C 190.368,190.617 193.368,189.784 196.5,189.5 Z"/></g>
<g><path style="opacity:0.776" fill="#a0b7be" d="M 111.5,196.5 C 114.378,197.37 117.045,198.703 119.5,200.5C 120.521,201.002 120.688,201.668 120,202.5C 116.364,200.93 112.864,199.263 109.5,197.5C 110.492,197.672 111.158,197.338 111.5,196.5 Z"/></g>
<g><path style="opacity:0.549" fill="#c5e39d" d="M 123.5,196.5 C 125.167,196.5 126.833,196.5 128.5,196.5C 129.833,197.5 131.167,198.5 132.5,199.5C 129.215,199.072 126.215,198.072 123.5,196.5 Z"/></g>
<g><path style="opacity:1" fill="#84bf37" d="M 128.5,196.5 C 144.091,199.882 159.757,200.215 175.5,197.5C 171.811,199.244 167.811,200.244 163.5,200.5C 156.859,201.332 150.192,201.665 143.5,201.5C 142.5,201.5 141.5,201.5 140.5,201.5C 138.162,199.96 135.495,199.294 132.5,199.5C 131.167,198.5 129.833,197.5 128.5,196.5 Z"/></g>
<g><path style="opacity:0.047" fill="#e3f7bb" d="M 185.5,194.5 C 186.167,194.5 186.833,194.5 187.5,194.5C 173.581,201.752 158.914,204.085 143.5,201.5C 150.192,201.665 156.859,201.332 163.5,200.5C 167.811,200.244 171.811,199.244 175.5,197.5C 179.012,197.076 182.345,196.076 185.5,194.5 Z"/></g>
<g><path style="opacity:0.153" fill="#e3fbc8" d="M 132.5,199.5 C 135.495,199.294 138.162,199.96 140.5,201.5C 137.572,201.435 134.905,200.768 132.5,199.5 Z"/></g>
<g><path style="opacity:0.004" fill="#fefffe" d="M 106.5,225.5 C 107.833,226.167 107.833,226.167 106.5,225.5 Z"/></g>
<g><path style="opacity:0.004" fill="#fefffe" d="M 97.5,228.5 C 96.8333,227.167 96.8333,227.167 97.5,228.5 Z"/></g>
<g><path style="opacity:0.012" fill="#e9f6f8" d="M 105.5,227.5 C 112.39,228.051 119.39,229.051 126.5,230.5C 124.774,232.82 124.107,235.487 124.5,238.5C 123.549,237.081 123.216,235.415 123.5,233.5C 122.5,233.5 121.5,233.5 120.5,233.5C 121.091,232.849 121.757,232.182 122.5,231.5C 120.891,231.611 119.225,231.278 117.5,230.5C 116.833,230.5 116.5,230.833 116.5,231.5C 115.636,232.688 114.636,233.855 113.5,235C 115.016,236.897 115.683,239.064 115.5,241.5C 113.901,241.768 112.568,241.434 111.5,240.5C 112.675,240.719 113.675,240.386 114.5,239.5C 111.833,236.833 111.833,234.167 114.5,231.5C 112.251,227.717 110.251,227.717 108.5,231.5C 108.863,232.183 109.196,232.85 109.5,233.5C 108.833,233.5 108.167,233.5 107.5,233.5C 107.218,232.222 106.551,231.222 105.5,230.5C 106.625,229.652 106.625,228.652 105.5,227.5 Z"/></g>
<g><path style="opacity:0.835" fill="#54728a" d="M 67.5,229.5 C 67.1667,230.5 66.5,231.167 65.5,231.5C 64.8333,231.5 64.5,231.167 64.5,230.5C 61.0038,228.656 59.3371,229.823 59.5,234C 59.3371,238.177 61.0038,239.344 64.5,237.5C 64.5,236.833 64.8333,236.5 65.5,236.5C 66.1667,236.5 66.8333,236.5 67.5,236.5C 67.5,237.167 67.5,237.833 67.5,238.5C 66.2905,238.932 65.2905,239.599 64.5,240.5C 63.1667,240.5 61.8333,240.5 60.5,240.5C 60.0269,239.094 59.0269,238.427 57.5,238.5C 54.7874,232.081 56.7874,228.081 63.5,226.5C 65.6528,226.561 66.9862,227.561 67.5,229.5 Z"/></g>
<g><path style="opacity:0.012" fill="#e6f6fe" d="M 144.5,230.5 C 143.527,232.948 143.194,235.615 143.5,238.5C 142.686,236.369 142.186,234.036 142,231.5C 140.644,230.62 139.144,230.286 137.5,230.5C 140.04,228.574 142.373,228.574 144.5,230.5 Z"/></g>
<g><path style="opacity:0.004" fill="#fefffe" d="M 152.5,228.5 C 153.833,229.167 153.833,229.167 152.5,228.5 Z"/></g>
<g><path style="opacity:0.863" fill="#a0b979" d="M 168.5,227.5 C 170.288,227.215 171.955,227.548 173.5,228.5C 172.311,229.429 170.978,229.762 169.5,229.5C 169.5,230.5 169.5,231.5 169.5,232.5C 170.5,232.5 171.5,232.5 172.5,232.5C 172.833,232.5 173.167,232.5 173.5,232.5C 175.081,234.142 175.747,236.142 175.5,238.5C 175.5,239.833 174.833,240.5 173.5,240.5C 171.5,240.5 169.5,240.5 167.5,240.5C 166.597,237.435 167.764,236.768 171,238.5C 172.059,238.37 172.892,237.87 173.5,237C 171.532,235.456 169.365,234.289 167,233.5C 166.252,231.16 166.752,229.16 168.5,227.5 Z"/></g>
<g><path style="opacity:0.024" fill="#d0f1fa" d="M 104.5,230.5 C 103.448,230.351 102.448,230.517 101.5,231C 102.737,231.232 103.737,231.732 104.5,232.5C 103.167,232.5 101.833,232.5 100.5,232.5C 100.5,231.5 100.5,230.5 100.5,229.5C 102.099,229.232 103.432,229.566 104.5,230.5 Z"/></g>
<g><path style="opacity:0.367" fill="#e9f5ce" d="M 168.5,227.5 C 166.752,229.16 166.252,231.16 167,233.5C 169.365,234.289 171.532,235.456 173.5,237C 172.892,237.87 172.059,238.37 171,238.5C 167.764,236.768 166.597,237.435 167.5,240.5C 165.824,239.817 165.157,238.483 165.5,236.5C 166.239,236.631 166.906,236.464 167.5,236C 163.177,232.352 163.51,229.519 168.5,227.5 Z"/></g>
<g><path style="opacity:0.009" fill="#f2f7f8" d="M 67.5,229.5 C 68.4916,229.328 69.1583,229.662 69.5,230.5C 68.1667,230.833 68.1667,231.167 69.5,231.5C 69.5,232.167 69.5,232.833 69.5,233.5C 68.0048,233.011 66.6715,232.345 65.5,231.5C 66.5,231.167 67.1667,230.5 67.5,229.5 Z"/></g>
<g><path style="opacity:0.941" fill="#506f86" d="M 111.5,240.5 C 109.952,240.179 109.285,239.179 109.5,237.5C 109.5,236.5 109.5,235.5 109.5,234.5C 109.5,234.167 109.5,233.833 109.5,233.5C 109.196,232.85 108.863,232.183 108.5,231.5C 110.251,227.717 112.251,227.717 114.5,231.5C 111.833,234.167 111.833,236.833 114.5,239.5C 113.675,240.386 112.675,240.719 111.5,240.5 Z"/></g>
<g><path style="opacity:0.267" fill="#c4d4dd" d="M 145.5,230.5 C 146.705,229.314 148.039,229.314 149.5,230.5C 149.167,231.167 148.833,231.833 148.5,232.5C 147.778,231.449 146.778,230.782 145.5,230.5 Z"/></g>
<g><path style="opacity:0.012" fill="#cae2e9" d="M 152.5,230.5 C 153.5,230.5 154.5,230.5 155.5,230.5C 155.167,231.167 154.833,231.833 154.5,232.5C 153.5,232.167 152.833,231.5 152.5,230.5 Z"/></g>
<g><path style="opacity:0.039" fill="#dfe9cb" d="M 216.5,230.5 C 216.5,233.833 216.5,237.167 216.5,240.5C 214.098,240.037 211.765,240.704 209.5,242.5C 208.478,242.145 207.811,241.478 207.5,240.5C 208.978,240.762 210.311,240.429 211.5,239.5C 208.833,236.833 208.833,234.167 211.5,231.5C 210.388,230.735 209.721,229.735 209.5,228.5C 210.825,227.047 211.658,227.381 212,229.5C 212.49,228.207 212.657,226.873 212.5,225.5C 216.255,225.563 217.588,227.23 216.5,230.5 Z M 210.5,233.5 C 211.586,233.62 212.253,234.287 212.5,235.5C 212.167,236.167 211.833,236.833 211.5,237.5C 210.571,236.311 210.238,234.978 210.5,233.5 Z"/></g>
<g><path style="opacity:0.096" fill="#daecf3" d="M 144.5,230.5 C 144.833,230.5 145.167,230.5 145.5,230.5C 145.5,233.833 145.5,237.167 145.5,240.5C 144.833,240.5 144.167,240.5 143.5,240.5C 143.5,239.833 143.5,239.167 143.5,238.5C 144.473,236.052 144.806,233.385 144.5,230.5 Z"/></g>
<g><path style="opacity:0.925" fill="#516c85" d="M 79.5,230.5 C 81.6778,231.204 83.6778,231.537 85.5,231.5C 82.7717,233.781 81.7717,236.781 82.5,240.5C 81.5,240.5 80.5,240.5 79.5,240.5C 79.5,239.167 79.5,237.833 79.5,236.5C 79.6716,235.508 79.3382,234.842 78.5,234.5C 78.5,234.167 78.5,233.833 78.5,233.5C 79.1667,233.5 79.5,233.167 79.5,232.5C 79.5,231.833 79.5,231.167 79.5,230.5 Z"/></g>
<g><path style="opacity:0.063" fill="#e0eff4" d="M 79.5,230.5 C 82.6977,229.3 86.031,229.3 89.5,230.5C 87.7739,232.82 87.1072,235.487 87.5,238.5C 86.7109,238.217 86.0442,237.717 85.5,237C 85.6399,235.736 85.6399,234.569 85.5,233.5C 83.9819,235.621 82.9819,237.954 82.5,240.5C 81.7717,236.781 82.7717,233.781 85.5,231.5C 83.6778,231.537 81.6778,231.204 79.5,230.5 Z"/></g>
<g><path style="opacity:0.249" fill="#c2e0f7" d="M 137.5,233.5 C 138.386,232.224 139.386,232.224 140.5,233.5C 140.043,234.298 139.376,234.631 138.5,234.5C 138.5,233.833 138.167,233.5 137.5,233.5 Z"/></g>
<g><path style="opacity:0.898" fill="#58738d" d="M 152.5,229.5 C 152.5,229.833 152.5,230.167 152.5,230.5C 152.833,231.5 153.5,232.167 154.5,232.5C 153.612,235.054 153.279,237.721 153.5,240.5C 152.833,241.833 152.167,241.833 151.5,240.5C 151.5,237.833 151.5,235.167 151.5,232.5C 150.5,232.5 149.5,232.5 148.5,232.5C 148.833,231.833 149.167,231.167 149.5,230.5C 150.209,229.596 151.209,229.263 152.5,229.5 Z"/></g>
<g><path style="opacity:0.784" fill="#4e6d89" d="M 75.5,230.5 C 76.1647,233.47 76.8314,236.47 77.5,239.5C 75.3063,239.358 72.9729,239.691 70.5,240.5C 69.6993,238.958 69.366,237.292 69.5,235.5C 76.169,233.524 76.169,232.858 69.5,233.5C 69.5,232.833 69.5,232.167 69.5,231.5C 69.5,231.167 69.5,230.833 69.5,230.5C 71.6531,229.427 73.6531,229.427 75.5,230.5 Z"/></g>
<g><path style="opacity:0.78" fill="#4c6b88" d="M 145.5,230.5 C 146.778,230.782 147.778,231.449 148.5,232.5C 147.612,235.054 147.279,237.721 147.5,240.5C 146.833,241.833 146.167,241.833 145.5,240.5C 145.5,237.167 145.5,233.833 145.5,230.5 Z"/></g>
<g><path style="opacity:0.063" fill="#cfe4f3" d="M 148.5,232.5 C 149.5,232.5 150.5,232.5 151.5,232.5C 151.5,235.167 151.5,237.833 151.5,240.5C 150.686,238.369 150.186,236.036 150,233.5C 149.302,236.004 148.469,238.337 147.5,240.5C 147.279,237.721 147.612,235.054 148.5,232.5 Z"/></g>
<g><path style="opacity:1" fill="#527391" d="M 159.5,231.5 C 159.5,234.5 159.5,237.5 159.5,240.5C 158.833,241.833 158.167,241.833 157.5,240.5C 157.5,237.833 157.5,235.167 157.5,232.5C 156.5,232.5 155.5,232.5 154.5,232.5C 154.833,231.833 155.167,231.167 155.5,230.5C 157.128,229.147 158.462,229.481 159.5,231.5 Z"/></g>
<g><path style="opacity:0.141" fill="#e2f1d0" d="M 168.5,227.5 C 170.288,226.378 172.288,226.211 174.5,227C 175.833,228.667 175.833,230.333 174.5,232C 175,232.5 175.5,233 176,233.5C 176.422,231.574 177.589,230.574 179.5,230.5C 177.774,232.82 177.107,235.487 177.5,238.5C 176.833,238.5 176.167,238.5 175.5,238.5C 175.747,236.142 175.081,234.142 173.5,232.5C 173.167,231.167 172.833,231.167 172.5,232.5C 171.5,232.5 170.5,232.5 169.5,232.5C 169.5,231.5 169.5,230.5 169.5,229.5C 170.978,229.762 172.311,229.429 173.5,228.5C 171.955,227.548 170.288,227.215 168.5,227.5 Z"/></g>
<g><path style="opacity:0.035" fill="#cef0f7" d="M 64.5,230.5 C 60.5265,231.075 59.5265,233.242 61.5,237C 62.448,237.483 63.448,237.649 64.5,237.5C 61.0038,239.344 59.3371,238.177 59.5,234C 59.3371,229.823 61.0038,228.656 64.5,230.5 Z"/></g>
<g><path style="opacity:0.024" fill="#dbf2fa" d="M 69.5,235.5 C 69.5,234.833 69.5,234.167 69.5,233.5C 76.169,232.858 76.169,233.524 69.5,235.5 Z"/></g>
<g><path style="opacity:0.011" fill="#e9f3f9" d="M 79.5,230.5 C 79.5,231.167 79.5,231.833 79.5,232.5C 78.8333,232.5 78.5,232.833 78.5,233.5C 77.1667,233.833 77.1667,234.167 78.5,234.5C 78.3284,235.492 78.6618,236.158 79.5,236.5C 79.5,237.833 79.5,239.167 79.5,240.5C 80.5,240.5 81.5,240.5 82.5,240.5C 80.1667,241.167 77.8333,241.833 75.5,242.5C 73.597,242.204 71.9303,241.537 70.5,240.5C 72.9729,239.691 75.3063,239.358 77.5,239.5C 76.8314,236.47 76.1647,233.47 75.5,230.5C 76.8333,229.167 78.1667,229.167 79.5,230.5 Z"/></g>
<g><path style="opacity:0.984" fill="#607e96" d="M 105.5,227.5 C 106.625,228.652 106.625,229.652 105.5,230.5C 105.167,230.5 104.833,230.5 104.5,230.5C 103.432,229.566 102.099,229.232 100.5,229.5C 100.5,230.5 100.5,231.5 100.5,232.5C 101.833,232.5 103.167,232.5 104.5,232.5C 105.609,232.557 106.609,232.89 107.5,233.5C 107.5,233.833 107.5,234.167 107.5,234.5C 107.747,236.858 107.081,238.858 105.5,240.5C 102.988,241.867 100.655,241.534 98.5,239.5C 97.1667,238.5 97.1667,237.5 98.5,236.5C 98.8333,236.5 99.1667,236.5 99.5,236.5C 100.879,238.597 102.545,238.93 104.5,237.5C 104.5,237.167 104.5,236.833 104.5,236.5C 103.22,235.069 101.553,234.402 99.5,234.5C 98.8333,234.167 98.1667,233.833 97.5,233.5C 97.5,231.833 97.5,230.167 97.5,228.5C 100.117,226.566 102.783,226.233 105.5,227.5 Z"/></g>
<g><path style="opacity:0.608" fill="#acc8d4" d="M 135.5,233.5 C 136.167,233.5 136.833,233.5 137.5,233.5C 138.167,233.5 138.5,233.833 138.5,234.5C 139.091,235.151 139.757,235.818 140.5,236.5C 140.376,237.107 140.043,237.44 139.5,237.5C 139.44,238.043 139.107,238.376 138.5,238.5C 137.859,237.007 136.859,236.007 135.5,235.5C 135.5,234.833 135.5,234.167 135.5,233.5 Z"/></g>
<g><path style="opacity:0.957" fill="#4a6883" d="M 137.5,230.5 C 139.144,230.286 140.644,230.62 142,231.5C 142.186,234.036 142.686,236.369 143.5,238.5C 143.5,239.167 143.5,239.833 143.5,240.5C 143.44,241.043 143.107,241.376 142.5,241.5C 140.224,240.787 137.891,240.287 135.5,240C 134.199,238.384 134.199,236.884 135.5,235.5C 136.859,236.007 137.859,237.007 138.5,238.5C 139.107,238.376 139.44,238.043 139.5,237.5C 140.043,237.44 140.376,237.107 140.5,236.5C 139.757,235.818 139.091,235.151 138.5,234.5C 139.376,234.631 140.043,234.298 140.5,233.5C 139.386,232.224 138.386,232.224 137.5,233.5C 136.833,233.5 136.167,233.5 135.5,233.5C 135.5,232.833 135.5,232.167 135.5,231.5C 135.842,230.662 136.508,230.328 137.5,230.5 Z"/></g>
<g><path style="opacity:0.255" fill="#cfecf9" d="M 159.5,231.5 C 162.017,234.461 162.017,237.461 159.5,240.5C 159.5,237.5 159.5,234.5 159.5,231.5 Z"/></g>
<g><path style="opacity:0.933" fill="#9cbb70" d="M 179.5,230.5 C 180.497,230.47 181.164,230.97 181.5,232C 179.971,233.582 179.471,235.415 180,237.5C 183.552,238.972 185.218,237.638 185,233.5C 185.495,235.473 185.662,237.473 185.5,239.5C 182.721,239.721 180.054,239.388 177.5,238.5C 177.107,235.487 177.774,232.82 179.5,230.5 Z M 181.5,234.5 C 182.573,235.251 182.74,236.251 182,237.5C 180.272,236.648 180.105,235.648 181.5,234.5 Z"/></g>
<g><path style="opacity:0.875" fill="#cedeb2" d="M 192.5,229.5 C 192.249,232.909 192.583,236.242 193.5,239.5C 192.311,240.429 190.978,240.762 189.5,240.5C 188.778,240.082 188.278,239.416 188,238.5C 185.274,240.964 182.107,241.797 178.5,241C 177.748,240.329 177.414,239.496 177.5,238.5C 180.054,239.388 182.721,239.721 185.5,239.5C 185.662,237.473 185.495,235.473 185,233.5C 185.218,237.638 183.552,238.972 180,237.5C 179.471,235.415 179.971,233.582 181.5,232C 181.164,230.97 180.497,230.47 179.5,230.5C 181.357,229.246 183.357,229.246 185.5,230.5C 186.754,228.462 188.421,226.796 190.5,225.5C 192.111,226.32 192.778,227.654 192.5,229.5 Z M 181.5,234.5 C 180.105,235.648 180.272,236.648 182,237.5C 182.74,236.251 182.573,235.251 181.5,234.5 Z"/></g>
<g><path style="opacity:0.2" fill="#e1eaf2" d="M 67.5,236.5 C 66.8333,236.5 66.1667,236.5 65.5,236.5C 65.7856,234.067 66.4523,234.067 67.5,236.5 Z"/></g>
<g><path style="opacity:0.012" fill="#e1f6fb" d="M 99.5,234.5 C 101.553,234.402 103.22,235.069 104.5,236.5C 100.5,236.833 100.5,237.167 104.5,237.5C 102.545,238.93 100.879,238.597 99.5,236.5C 100.506,236.062 100.506,235.396 99.5,234.5 Z"/></g>
<g><path style="opacity:0.851" fill="#3f637d" d="M 126.5,230.5 C 131.168,229.839 133.168,231.839 132.5,236.5C 130.473,236.338 128.473,236.505 126.5,237C 127.99,238.772 129.657,238.939 131.5,237.5C 132.298,237.957 132.631,238.624 132.5,239.5C 132.217,240.289 131.717,240.956 131,241.5C 128.467,241.05 126.3,240.05 124.5,238.5C 124.107,235.487 124.774,232.82 126.5,230.5 Z"/></g>
<g><path style="opacity:0.031" fill="#bff6fd" d="M 127.5,232.5 C 128.675,232.281 129.675,232.614 130.5,233.5C 129.277,234.614 127.944,234.781 126.5,234C 127.056,233.617 127.389,233.117 127.5,232.5 Z"/></g>
<g><path style="opacity:0.008" fill="#fefffe" d="M 165.5,236.5 C 164.833,235.167 164.833,235.167 165.5,236.5 Z"/></g>
<g><path style="opacity:0.973" fill="#95bc6b" d="M 189.5,227.5 C 190.777,228.694 191.444,230.36 191.5,232.5C 191.167,234.167 190.833,235.833 190.5,237.5C 189.513,234.232 189.18,230.898 189.5,227.5 Z"/></g>
<g><path style="opacity:0.137" fill="#f7ffe5" d="M 192.5,229.5 C 194.415,229.216 196.081,229.549 197.5,230.5C 196.5,230.5 195.5,230.5 194.5,230.5C 194.335,233.518 194.502,236.518 195,239.5C 197.719,240.444 200.552,240.777 203.5,240.5C 198.833,241.833 194.167,241.833 189.5,240.5C 190.978,240.762 192.311,240.429 193.5,239.5C 192.583,236.242 192.249,232.909 192.5,229.5 Z"/></g>
<g><path style="opacity:1" fill="#a2be89" d="M 197.5,230.5 C 197.5,233.167 197.5,235.833 197.5,238.5C 198.5,238.5 199.5,238.5 200.5,238.5C 200.5,235.833 200.5,233.167 200.5,230.5C 201.5,230.5 202.5,230.5 203.5,230.5C 203.5,233.833 203.5,237.167 203.5,240.5C 200.552,240.777 197.719,240.444 195,239.5C 194.502,236.518 194.335,233.518 194.5,230.5C 195.5,230.5 196.5,230.5 197.5,230.5 Z"/></g>
<g><path style="opacity:0.89" fill="#9fbc6b" d="M 213.5,230.5 C 214.748,231.334 215.415,232.667 215.5,234.5C 215.167,235.833 214.833,237.167 214.5,238.5C 213.52,235.914 213.187,233.247 213.5,230.5 Z"/></g>
<g><path style="opacity:0.961" fill="#a6bf86" d="M 225.5,230.5 C 226.492,230.328 227.158,230.662 227.5,231.5C 229.183,235.095 228.517,238.095 225.5,240.5C 223.833,243.167 222.167,243.167 220.5,240.5C 216.637,234.231 218.303,230.898 225.5,230.5 Z"/></g>
<g><path style="opacity:0.384" fill="#f2fcce" d="M 222.5,232.5 C 224.484,232.484 225.484,233.484 225.5,235.5C 224.167,239.5 222.833,239.5 221.5,235.5C 221.685,234.416 222.018,233.416 222.5,232.5 Z"/></g>
<g><path style="opacity:0.945" fill="#abc290" d="M 247.5,240.5 C 245.533,240.739 243.699,240.406 242,239.5C 241.312,238.668 241.479,238.002 242.5,237.5C 243.891,238.645 245.224,238.645 246.5,237.5C 241.801,236.993 240.468,234.659 242.5,230.5C 244.223,229.193 246.057,229.193 248,230.5C 248.658,232.108 248.158,233.275 246.5,234C 249.993,235.785 250.326,237.952 247.5,240.5 Z"/></g>
<g><path style="opacity:0.004" fill="#dcf4f9" d="M 72.5,235.5 C 75.0118,236.216 75.0118,237.216 72.5,238.5C 71.4376,237.575 71.4376,236.575 72.5,235.5 Z"/></g>
<g><path style="opacity:0.839" fill="#40667d" d="M 89.5,230.5 C 93.8333,230.167 95.8333,232.167 95.5,236.5C 93.4727,236.338 91.4727,236.505 89.5,237C 90.9901,238.772 92.6568,238.939 94.5,237.5C 95.2975,237.957 95.6309,238.624 95.5,239.5C 95.189,240.478 94.5223,241.145 93.5,241.5C 91.0808,241.086 89.0808,240.086 87.5,238.5C 87.1072,235.487 87.7739,232.82 89.5,230.5 Z"/></g>
<g><path style="opacity:0.043" fill="#c7f4fb" d="M 90.5,232.5 C 91.675,232.281 92.675,232.614 93.5,233.5C 92.277,234.614 90.9437,234.781 89.5,234C 90.056,233.617 90.3893,233.117 90.5,232.5 Z"/></g>
<g><path style="opacity:0.537" fill="#97a8ba" d="M 117.5,230.5 C 116.931,234.329 117.598,237.663 119.5,240.5C 118.791,241.404 117.791,241.737 116.5,241.5C 116.5,238.167 116.5,234.833 116.5,231.5C 116.5,230.833 116.833,230.5 117.5,230.5 Z"/></g>
<g><path style="opacity:0.996" fill="#4e7c94" d="M 117.5,230.5 C 119.225,231.278 120.891,231.611 122.5,231.5C 121.757,232.182 121.091,232.849 120.5,233.5C 120.702,235.95 120.369,238.283 119.5,240.5C 117.598,237.663 116.931,234.329 117.5,230.5 Z"/></g>
<g><path style="opacity:0.063" fill="#dbf5fa" d="M 135.5,231.5 C 135.5,232.167 135.5,232.833 135.5,233.5C 134.883,233.389 134.383,233.056 134,232.5C 133.814,235.036 133.314,237.369 132.5,239.5C 132.631,238.624 132.298,237.957 131.5,237.5C 129.657,238.939 127.99,238.772 126.5,237C 128.473,236.505 130.473,236.338 132.5,236.5C 133.168,231.839 131.168,229.839 126.5,230.5C 128.218,229.776 130.052,229.109 132,228.5C 132.72,230.056 133.887,231.056 135.5,231.5 Z"/></g>
<g><path style="opacity:0.984" fill="#9cbe7e" d="M 209.5,228.5 C 209.721,229.735 210.388,230.735 211.5,231.5C 208.833,234.167 208.833,236.833 211.5,239.5C 210.311,240.429 208.978,240.762 207.5,240.5C 206.835,237.53 206.169,234.53 205.5,231.5C 206.077,229.45 207.41,228.45 209.5,228.5 Z"/></g>
<g><path style="opacity:0.161" fill="#f6fdd8" d="M 197.5,230.5 C 198.302,231.952 198.802,233.618 199,235.5C 199.198,233.618 199.698,231.952 200.5,230.5C 200.5,233.167 200.5,235.833 200.5,238.5C 199.5,238.5 198.5,238.5 197.5,238.5C 197.5,235.833 197.5,233.167 197.5,230.5 Z"/></g>
<g><path style="opacity:0.125" fill="#f2fed9" d="M 225.5,230.5 C 218.303,230.898 216.637,234.231 220.5,240.5C 219.167,240.5 217.833,240.5 216.5,240.5C 216.5,237.167 216.5,233.833 216.5,230.5C 219.334,229.553 222.334,229.553 225.5,230.5 Z"/></g>
<g><path style="opacity:0.057" fill="#f1f9dc" d="M 238.5,230.5 C 239.702,231.405 241.036,231.405 242.5,230.5C 240.468,234.659 241.801,236.993 246.5,237.5C 245.224,238.645 243.891,238.645 242.5,237.5C 241.479,238.002 241.312,238.668 242,239.5C 243.699,240.406 245.533,240.739 247.5,240.5C 247.189,241.478 246.522,242.145 245.5,242.5C 242.871,240.765 240.204,240.432 237.5,241.5C 236.006,241.291 234.839,240.624 234,239.5C 233.009,240.939 231.676,241.939 230,242.5C 228.951,240.893 227.451,240.227 225.5,240.5C 228.517,238.095 229.183,235.095 227.5,231.5C 231.05,229.327 234.717,228.993 238.5,230.5 Z"/></g>
<g><path style="opacity:1" fill="#9db97d" d="M 238.5,230.5 C 239.324,233.764 239.658,237.098 239.5,240.5C 238.5,240.5 237.5,240.5 236.5,240.5C 236.5,237.833 236.5,235.167 236.5,232.5C 235.178,232.33 234.011,232.663 233,233.5C 232.814,235.9 232.314,238.234 231.5,240.5C 230.513,237.232 230.18,233.898 230.5,230.5C 233.167,230.5 235.833,230.5 238.5,230.5 Z"/></g>
<g><path style="opacity:0.231" fill="#bfd5e1" d="M 69.5,235.5 C 69.366,237.292 69.6993,238.958 70.5,240.5C 69.8333,240.5 69.1667,240.5 68.5,240.5C 68.6716,239.508 68.3382,238.842 67.5,238.5C 67.5,237.833 67.5,237.167 67.5,236.5C 68.1667,236.167 68.8333,235.833 69.5,235.5 Z"/></g>
<g><path style="opacity:0.043" fill="#dff5f9" d="M 89.5,230.5 C 91.3635,229.207 93.3635,229.207 95.5,230.5C 95.9424,231.739 96.6091,232.739 97.5,233.5C 97.2627,234.791 97.596,235.791 98.5,236.5C 97.1667,237.5 97.1667,238.5 98.5,239.5C 97.5,239.5 96.5,239.5 95.5,239.5C 95.6309,238.624 95.2975,237.957 94.5,237.5C 92.6568,238.939 90.9901,238.772 89.5,237C 91.4727,236.505 93.4727,236.338 95.5,236.5C 95.8333,232.167 93.8333,230.167 89.5,230.5 Z"/></g>
<g><path style="opacity:0.337" fill="#cbdde9" d="M 154.5,232.5 C 155.5,232.5 156.5,232.5 157.5,232.5C 157.5,235.167 157.5,237.833 157.5,240.5C 156.686,238.369 156.186,236.036 156,233.5C 155.749,235.433 155.249,237.266 154.5,239C 155.712,240.107 155.379,240.607 153.5,240.5C 153.279,237.721 153.612,235.054 154.5,232.5 Z"/></g>
<g><path style="opacity:0.082" fill="#f5fddc" d="M 209.5,228.5 C 207.41,228.45 206.077,229.45 205.5,231.5C 206.169,234.53 206.835,237.53 207.5,240.5C 206.036,239.595 204.702,239.595 203.5,240.5C 203.5,237.167 203.5,233.833 203.5,230.5C 202.5,230.5 201.5,230.5 200.5,230.5C 203.287,228.239 206.287,227.573 209.5,228.5 Z"/></g>
<g><path style="opacity:0.278" fill="#b4c0cc" d="M 57.5,238.5 C 59.0269,238.427 60.0269,239.094 60.5,240.5C 58.9731,240.573 57.9731,239.906 57.5,238.5 Z"/></g>
<g><path style="opacity:0.004" fill="#e1ebf3" d="M 67.5,238.5 C 67.5,239.167 67.5,239.833 67.5,240.5C 66.2022,241.116 65.2022,241.116 64.5,240.5C 65.2905,239.599 66.2905,238.932 67.5,238.5 Z"/></g>
<g><path style="opacity:0.008" fill="#effdff" d="M 107.5,234.5 C 108.167,234.5 108.833,234.5 109.5,234.5C 109.5,235.5 109.5,236.5 109.5,237.5C 108.764,239.229 107.43,240.229 105.5,240.5C 107.081,238.858 107.747,236.858 107.5,234.5 Z"/></g>
<g><path style="opacity:0.004" fill="#fefffe" d="M 67.5,240.5 C 67.8333,240.5 68.1667,240.5 68.5,240.5C 68.3147,241.17 67.9813,241.17 67.5,240.5 Z"/></g>
<g><path style="opacity:0.071" fill="#f5ffe9" d="M 167.5,240.5 C 169.5,240.5 171.5,240.5 173.5,240.5C 171.406,242.994 169.406,242.994 167.5,240.5 Z"/></g>
<g><path style="opacity:0.004" fill="#fefffe" d="M 75.5,242.5 C 76.8333,243.167 76.8333,243.167 75.5,242.5 Z"/></g>
<g><path style="opacity:0.008" fill="#fefffe" d="M 80.5,242.5 C 81.8333,243.167 81.8333,243.167 80.5,242.5 Z"/></g>
<g><path style="opacity:0.004" fill="#fefffe" d="M 114.5,242.5 C 115.833,243.167 115.833,243.167 114.5,242.5 Z"/></g>
</svg>
