<?xml version="1.0" encoding="UTF-8"?>
<svg version="1.1" xmlns="http://www.w3.org/2000/svg" width="500" height="500">
<path d="M0 0 C2.05938216 1.57885966 2.84571211 2.69142423 4 5 C4.15004973 6.3734635 4.24838006 7.7528526 4.31640625 9.1328125 C4.35830078 9.93847656 4.40019531 10.74414062 4.44335938 11.57421875 C4.48267578 12.41597656 4.52199219 13.25773438 4.5625 14.125 C4.60568359 14.97449219 4.64886719 15.82398438 4.69335938 16.69921875 C4.79954236 18.79928223 4.90028497 20.89961948 5 23 C6.86205078 23.02126953 6.86205078 23.02126953 8.76171875 23.04296875 C10.40368243 23.089882 12.04560837 23.13812932 13.6875 23.1875 C14.91243164 23.19620117 14.91243164 23.19620117 16.16210938 23.20507812 C20.52357577 23.36399795 22.48007456 23.60154623 26.04296875 26.33203125 C28 29 28 29 28.625 32.5 C27.81795352 37.01946028 26.62941622 38.21853468 23 41 C19.89492835 41.72928708 16.8678993 41.78990837 13.6875 41.8125 C12.85154297 41.83763672 12.01558594 41.86277344 11.15429688 41.88867188 C9.10336591 41.9472699 7.05163407 41.97656493 5 42 C4.96261719 43.24136719 4.92523438 44.48273438 4.88671875 45.76171875 C4.8210405 47.40367511 4.7545938 49.04560087 4.6875 50.6875 C4.66494141 51.50412109 4.64238281 52.32074219 4.61914062 53.16210938 C4.40949347 57.86964104 4.0501896 61.18161451 1 65 C-1.42152738 66.21076369 -2.75423087 66.07767714 -5.4375 65.875 C-6.21996094 65.83117187 -7.00242187 65.78734375 -7.80859375 65.7421875 C-10 65 -10 65 -11.7421875 63.02734375 C-13.45698224 58.90012039 -13.56511617 55.11779456 -13.6875 50.6875 C-13.72166016 49.85154297 -13.75582031 49.01558594 -13.79101562 48.15429688 C-13.87305461 46.10332228 -13.9382151 44.05168462 -14 42 C-15.24136719 41.97421875 -16.48273438 41.9484375 -17.76171875 41.921875 C-19.40368028 41.86557918 -21.045606 41.80823217 -22.6875 41.75 C-23.50412109 41.73582031 -24.32074219 41.72164062 -25.16210938 41.70703125 C-30.3069181 41.4987394 -33.32999848 40.95954799 -37 37 C-38.23674251 33.36706886 -38.34458203 31.75808047 -36.75 28.25 C-34.80780835 25.75289645 -33.2129889 24.19406634 -30.00708008 23.68115234 C-28.89949341 23.634021 -28.89949341 23.634021 -27.76953125 23.5859375 C-26.56586914 23.52792969 -26.56586914 23.52792969 -25.33789062 23.46875 C-24.50451172 23.4378125 -23.67113281 23.406875 -22.8125 23.375 C-21.96751953 23.33632812 -21.12253906 23.29765625 -20.25195312 23.2578125 C-18.16832476 23.16363721 -16.08419247 23.08073325 -14 23 C-13.97421875 21.75863281 -13.9484375 20.51726562 -13.921875 19.23828125 C-13.86557918 17.59631972 -13.80823217 15.954394 -13.75 14.3125 C-13.73582031 13.49587891 -13.72164062 12.67925781 -13.70703125 11.83789062 C-13.49778309 6.66946111 -12.91707039 3.73299753 -9 0 C-5.85000502 -1.57499749 -3.36459118 -0.70833498 0 0 Z " fill="#115229" transform="translate(90,185)"/>
<path d="M0 0 C0.8146875 0.00257813 1.629375 0.00515625 2.46875 0.0078125 C3.2834375 0.00523437 4.098125 0.00265625 4.9375 0 C6.96875 0.1328125 6.96875 0.1328125 7.96875 1.1328125 C8.00955783 3.13239614 8.01129356 5.13326504 7.96875 7.1328125 C6.31875 7.1328125 4.66875 7.1328125 2.96875 7.1328125 C2.96875 8.4528125 2.96875 9.7728125 2.96875 11.1328125 C4.61875 11.1328125 6.26875 11.1328125 7.96875 11.1328125 C7.96875 13.1128125 7.96875 15.0928125 7.96875 17.1328125 C6.31875 17.1328125 4.66875 17.1328125 2.96875 17.1328125 C2.96875 18.7828125 2.96875 20.4328125 2.96875 22.1328125 C4.94875 22.1328125 6.92875 22.1328125 8.96875 22.1328125 C8.96875 20.4828125 8.96875 18.8328125 8.96875 17.1328125 C10.28875 16.8028125 11.60875 16.4728125 12.96875 16.1328125 C12.30875 15.6378125 11.64875 15.1428125 10.96875 14.6328125 C8.52282641 11.57540801 8.36858925 9.86139313 8.58984375 6.04296875 C8.96875 4.1328125 8.96875 4.1328125 10.53125 1.5703125 C13.98488434 -0.46644621 16.15906889 0.21566705 19.96875 1.1328125 C20.62875 1.4628125 21.28875 1.7928125 21.96875 2.1328125 C22.29875 1.4728125 22.62875 0.8128125 22.96875 0.1328125 C26.55201501 0.07467165 30.13515838 0.03916893 33.71875 0.0078125 C34.73453125 -0.00894531 35.7503125 -0.02570313 36.796875 -0.04296875 C37.7765625 -0.04941406 38.75625 -0.05585938 39.765625 -0.0625 C40.66635742 -0.07297363 41.56708984 -0.08344727 42.49511719 -0.09423828 C45.10801856 0.14559574 46.72539666 0.80969186 48.96875 2.1328125 C49.62875 1.4728125 50.28875 0.8128125 50.96875 0.1328125 C53.31640625 -0.09765625 53.31640625 -0.09765625 56.03125 -0.0546875 C57.37896484 -0.04501953 57.37896484 -0.04501953 58.75390625 -0.03515625 C60.96875 0.1328125 60.96875 0.1328125 61.96875 1.1328125 C62.00955783 3.13239614 62.01129356 5.13326504 61.96875 7.1328125 C60.31875 7.1328125 58.66875 7.1328125 56.96875 7.1328125 C56.96875 8.4528125 56.96875 9.7728125 56.96875 11.1328125 C58.61875 11.1328125 60.26875 11.1328125 61.96875 11.1328125 C61.96875 13.1128125 61.96875 15.0928125 61.96875 17.1328125 C60.31875 17.1328125 58.66875 17.1328125 56.96875 17.1328125 C56.96875 18.7828125 56.96875 20.4328125 56.96875 22.1328125 C58.94875 22.1328125 60.92875 22.1328125 62.96875 22.1328125 C62.948125 20.8746875 62.9275 19.6165625 62.90625 18.3203125 C62.9302961 3.1712664 62.9302961 3.1712664 65.96875 0.1328125 C67.84375 -0.16796875 67.84375 -0.16796875 69.96875 -0.1796875 C70.67 -0.19644531 71.37125 -0.21320313 72.09375 -0.23046875 C72.7125 -0.11058594 73.33125 0.00929687 73.96875 0.1328125 C76.22745108 3.52086411 76.26134413 4.90631991 76.3828125 8.89453125 C76.42148437 10.01279297 76.46015625 11.13105469 76.5 12.28320312 C76.5309375 13.45044922 76.561875 14.61769531 76.59375 15.8203125 C76.63242187 16.99916016 76.67109375 18.17800781 76.7109375 19.39257812 C76.80529391 22.30583227 76.89088161 25.21907857 76.96875 28.1328125 C74.98875 28.1328125 73.00875 28.1328125 70.96875 28.1328125 C70.96875 26.8128125 70.96875 25.4928125 70.96875 24.1328125 C70.30875 24.1328125 69.64875 24.1328125 68.96875 24.1328125 C68.63875 25.4528125 68.30875 26.7728125 67.96875 28.1328125 C63.42977295 28.15746642 58.89083457 28.17565039 54.35180664 28.18774414 C52.80655234 28.1927839 51.26130284 28.1996157 49.71606445 28.20825195 C47.49949971 28.22033326 45.28299782 28.22604423 43.06640625 28.23046875 C42.02420677 28.23821068 42.02420677 28.23821068 40.96095276 28.24610901 C39.2964567 28.24630527 37.63209501 28.19470379 35.96875 28.1328125 C34.96875 27.1328125 34.96875 27.1328125 34.85522461 25.18334961 C34.86046143 24.3506958 34.86569824 23.51804199 34.87109375 22.66015625 C34.87431641 21.76103516 34.87753906 20.86191406 34.88085938 19.93554688 C34.89342773 18.51725586 34.89342773 18.51725586 34.90625 17.0703125 C34.91076172 16.12091797 34.91527344 15.17152344 34.91992188 14.19335938 C34.9317489 11.83978185 34.94822975 9.48632773 34.96875 7.1328125 C34.30875 7.4628125 33.64875 7.7928125 32.96875 8.1328125 C32.63875 14.7328125 32.30875 21.3328125 31.96875 28.1328125 C29.98875 28.1328125 28.00875 28.1328125 25.96875 28.1328125 C24.95672712 20.95523485 25.08048825 14.32089991 25.96875 7.1328125 C24.97875 7.1328125 23.98875 7.1328125 22.96875 7.1328125 C22.63875 8.1228125 22.30875 9.1128125 21.96875 10.1328125 C20.97875 10.4628125 19.98875 10.7928125 18.96875 11.1328125 C19.62875 11.7928125 20.28875 12.4528125 20.96875 13.1328125 C23.20315515 16.48442022 23.63445279 18.25736863 23.41796875 22.19140625 C22.60709329 25.69579845 20.87243256 27.17598295 17.96875 29.1328125 C14.84375 28.9453125 14.84375 28.9453125 11.96875 28.1328125 C10.97875 28.1328125 9.98875 28.1328125 8.96875 28.1328125 C4.96875 28.1328125 0.96875 28.1328125 -3.03125 28.1328125 C-3.06011338 23.65365922 -3.07800187 19.17452959 -3.09375 14.6953125 C-3.10212891 13.41591797 -3.11050781 12.13652344 -3.11914062 10.81835938 C-3.12236328 9.60341797 -3.12558594 8.38847656 -3.12890625 7.13671875 C-3.13414307 6.01080322 -3.13937988 4.8848877 -3.14477539 3.72485352 C-2.99019845 0.19551298 -2.99019845 0.19551298 0 0 Z M41.96875 7.1328125 C42.96875 10.1328125 42.96875 10.1328125 42.96875 10.1328125 Z M48.96875 12.1328125 C48.96875 13.7828125 48.96875 15.4328125 48.96875 17.1328125 C49.29875 17.1328125 49.62875 17.1328125 49.96875 17.1328125 C49.96875 15.4828125 49.96875 13.8328125 49.96875 12.1328125 C49.63875 12.1328125 49.30875 12.1328125 48.96875 12.1328125 Z M68.96875 15.1328125 C69.96875 18.1328125 69.96875 18.1328125 69.96875 18.1328125 Z M14.96875 19.1328125 C15.96875 22.1328125 15.96875 22.1328125 15.96875 22.1328125 Z " fill="#94D6F6" transform="translate(222.03125,235.8671875)"/>
<path d="M0 0 C1.65 0.33 3.3 0.66 5 1 C5 7.93 5 14.86 5 22 C6.65 22 8.3 22 10 22 C10.495 13.09 10.495 13.09 11 4 C10.34 4 9.68 4 9 4 C9.33 3.01 9.66 2.02 10 1 C16.75029338 -0.2255291 23.46635138 -0.2198905 30.3125 -0.25 C32.10010742 -0.2809375 32.10010742 -0.2809375 33.92382812 -0.3125 C35.05884766 -0.31765625 36.19386719 -0.3228125 37.36328125 -0.328125 C38.91462769 -0.34214355 38.91462769 -0.34214355 40.49731445 -0.35644531 C41.7361438 -0.18000488 41.7361438 -0.18000488 43 0 C43.66 0.99 44.32 1.98 45 3 C45.515625 2.484375 46.03125 1.96875 46.5625 1.4375 C49.98754086 -0.58239589 52.18990432 0.23798086 56 1 C56.99 1 57.98 1 59 1 C59.33 0.67 59.66 0.34 60 0 C61.66611905 -0.042721 63.33382885 -0.04063832 65 0 C65.66 0 66.32 0 67 0 C68.98 0 70.96 0 73 0 C73 9.24 73 18.48 73 28 C64.875 27.9375 64.875 27.9375 62.35107422 27.90991211 C58.99054555 27.89748353 55.94954937 28.00887557 52.625 28.59375 C50 29 50 29 47.125 27.5625 C46.42375 27.046875 45.7225 26.53125 45 26 C44.67 26.66 44.34 27.32 44 28 C42.02 28 40.04 28 38 28 C37.94392578 26.10314453 37.94392578 26.10314453 37.88671875 24.16796875 C37.82106167 22.5077827 37.75461424 20.84762778 37.6875 19.1875 C37.65366211 17.93743164 37.65366211 17.93743164 37.61914062 16.66210938 C37.58369141 15.85966797 37.54824219 15.05722656 37.51171875 14.23046875 C37.48553467 13.49207764 37.45935059 12.75368652 37.43237305 11.99291992 C37.0904096 9.54930122 37.0904096 9.54930122 34 7 C34 13.93 34 20.86 34 28 C32.02 28 30.04 28 28 28 C28 21.07 28 14.14 28 7 C26.52689755 9.9462049 27.09929761 12.54157315 27.25 15.8125 C27.29139305 22.54576966 27.29139305 22.54576966 24.875 26.3125 C21.72071031 28.1639309 19.6558303 28.92221638 16 29 C13.625 28.0625 13.625 28.0625 12 27 C11.67 27.33 11.34 27.66 11 28 C8.98035801 28.07244053 6.95832876 28.08377188 4.9375 28.0625 C3.83277344 28.05347656 2.72804688 28.04445313 1.58984375 28.03515625 C0.30787109 28.01775391 0.30787109 28.01775391 -1 28 C-1.02886338 23.52084672 -1.04675187 19.04171709 -1.0625 14.5625 C-1.07087891 13.28310547 -1.07925781 12.00371094 -1.08789062 10.68554688 C-1.09111328 9.47060547 -1.09433594 8.25566406 -1.09765625 7.00390625 C-1.10289307 5.87799072 -1.10812988 4.7520752 -1.11352539 3.59204102 C-1 1 -1 1 0 0 Z M17 1 C17 7.93 17 14.86 17 22 C17.33 22 17.66 22 18 22 C18 15.07 18 8.14 18 1 C17.67 1 17.34 1 17 1 Z M51 7 C51 11.95 51 16.9 51 22 C51.33 22 51.66 22 52 22 C52 17.05 52 12.1 52 7 C51.67 7 51.34 7 51 7 Z M58 22 C59 24 59 24 59 24 Z " fill="#98B6A4" transform="translate(360,236)"/>
<path d="M0 0 C0.33 0 0.66 0 1 0 C1.2165625 1.8871875 1.2165625 1.8871875 1.4375 3.8125 C1.86642701 6.04829697 1.86642701 6.04829697 3 8 C5.87394404 9.61298139 8.77982829 10.3639167 12 11 C12 11.33 12 11.66 12 12 C11.43410156 12.12117187 10.86820312 12.24234375 10.28515625 12.3671875 C9.55167969 12.53476563 8.81820312 12.70234375 8.0625 12.875 C6.96615234 13.11863281 6.96615234 13.11863281 5.84765625 13.3671875 C3.79299706 13.82961523 3.79299706 13.82961523 3 16 C3.4640625 17.60875 3.4640625 17.60875 3.9375 19.25 C7.31054913 32.13737392 4.74384843 45.83293735 -1.75 57.3125 C-10.28655324 70.29827924 -21.69537025 78.91965731 -36.87109375 82.71875 C-51.11621691 85.53443104 -65.12532765 83.06883533 -77.375 75.1875 C-84.79946744 69.85786261 -89.81862242 64.72546695 -94.4375 56.875 C-94.79231445 56.27671387 -95.14712891 55.67842773 -95.51269531 55.06201172 C-97.46742263 51.56893147 -98.43133564 49.01066476 -98 45 C-95.3798306 47.47460443 -93.16001238 49.74283724 -91.25 52.8125 C-84.42882503 62.4758312 -73.3293147 69.70903223 -61.59375 71.75 C-49.09119624 72.95506542 -36.86679859 72.61761101 -25.875 65.6875 C-21.32189401 61.4313357 -19.87368577 57.3006159 -19.5 51.1875 C-19.83309415 41.64362837 -25.60518843 34.59752894 -32 28 C-31.01 27.505 -31.01 27.505 -30 27 C-20.25608108 34.24054054 -20.25608108 34.24054054 -16.875 39.5 C-14.96889117 42.35124192 -14.96889117 42.35124192 -11.859375 43.5 C-9.38401647 43.5508832 -9.38401647 43.5508832 -6 43 C-2.09223853 35.00685154 -0.06319081 25.89968727 -1 17 C-3.16333061 13.75500409 -4.44412537 13.12827876 -8.25 12.25 C-9.1575 12.1675 -10.065 12.085 -11 12 C-10.443125 11.731875 -9.88625 11.46375 -9.3125 11.1875 C-8.549375 10.795625 -7.78625 10.40375 -7 10 C-6.13375 9.608125 -5.2675 9.21625 -4.375 8.8125 C-1.1259965 6.33299733 -0.81139553 3.90945118 0 0 Z " fill="#41B6F9" transform="translate(158,202)"/>
<path d="M0 0 C3.4375 1.0625 3.4375 1.0625 5.375 3.125 C6.77329156 6.99086491 6.64587644 9.96443009 6.4375 14.0625 C4.1275 13.4025 1.8175 12.7425 -0.5625 12.0625 C-0.5625 13.3825 -0.5625 14.7025 -0.5625 16.0625 C0.38625 15.876875 1.335 15.69125 2.3125 15.5 C5.4375 15.0625 5.4375 15.0625 7.4375 16.0625 C7.41429687 15.49402344 7.39109375 14.92554688 7.3671875 14.33984375 C7.24558312 9.13691352 7.76026508 4.98937757 9.4375 0.0625 C13.4375 0.0625 17.4375 0.0625 21.4375 0.0625 C22.241875 0.02769531 23.04625 -0.00710937 23.875 -0.04296875 C25.1434375 -0.08357422 25.1434375 -0.08357422 26.4375 -0.125 C27.283125 -0.15980469 28.12875 -0.19460937 29 -0.23046875 C32.07360844 0.13895534 33.23546146 0.89607084 35.4375 3.0625 C35.89160156 5.69799805 35.89160156 5.69799805 35.828125 8.82421875 C35.81523437 9.94248047 35.80234375 11.06074219 35.7890625 12.21289062 C35.75554687 13.38013672 35.72203125 14.54738281 35.6875 15.75 C35.66945312 16.92884766 35.65140625 18.10769531 35.6328125 19.32226562 C35.58562616 22.23602236 35.51388234 25.14936241 35.4375 28.0625 C30.8175 28.0625 26.1975 28.0625 21.4375 28.0625 C21.1075 23.4425 20.7775 18.8225 20.4375 14.0625 C20.4375 18.6825 20.4375 23.3025 20.4375 28.0625 C18.4575 28.0625 16.4775 28.0625 14.4375 28.0625 C14.4375 26.7425 14.4375 25.4225 14.4375 24.0625 C13.7775 24.0625 13.1175 24.0625 12.4375 24.0625 C12.4375 25.3825 12.4375 26.7025 12.4375 28.0625 C10.4575 28.0625 8.4775 28.0625 6.4375 28.0625 C6.1075 27.4025 5.7775 26.7425 5.4375 26.0625 C4.90125 26.578125 4.365 27.09375 3.8125 27.625 C1.4375 29.0625 1.4375 29.0625 -1.625 28.9375 C-4.69225466 28.02384968 -5.65313549 27.53811617 -7.5625 25.0625 C-8.19445306 21.61406007 -8.02589012 18.12487369 -8 14.625 C-8.01998047 13.67044922 -8.03996094 12.71589844 -8.06054688 11.73242188 C-8.05568752 4.78840371 -8.05568752 4.78840371 -5.7578125 1.40625 C-3.5625 0.0625 -3.5625 0.0625 0 0 Z M20.4375 2.0625 C21.4375 4.0625 21.4375 4.0625 21.4375 4.0625 Z M28.4375 7.0625 C29.4375 10.0625 29.4375 10.0625 29.4375 10.0625 Z M13.4375 16.0625 C13.1075 16.7225 12.7775 17.3825 12.4375 18.0625 C13.0975 18.0625 13.7575 18.0625 14.4375 18.0625 C14.1075 17.4025 13.7775 16.7425 13.4375 16.0625 Z " fill="#3B7353" transform="translate(182.5625,235.9375)"/>
<path d="M0 0 C0.99 0 1.98 0 3 0 C3.33 -0.33 3.66 -0.66 4 -1 C5.66611905 -1.042721 7.33382885 -1.04063832 9 -1 C9.66 -1 10.32 -1 11 -1 C12.98 -1 14.96 -1 17 -1 C17 8.24 17 17.48 17 27 C8.875 26.9375 8.875 26.9375 6.35107422 26.90991211 C2.99184796 26.89748834 0.0630055 26.98656389 -3.2421875 27.69140625 C-6 28 -6 28 -8.83984375 27.28125 C-12.5282842 23.38604345 -11.6783029 18.63914497 -11.5625 13.5 C-11.57345703 12.44167969 -11.58441406 11.38335937 -11.59570312 10.29296875 C-11.52173475 2.53122084 -11.52173475 2.53122084 -9.18725586 0.15429688 C-5.94169923 -1.55850497 -3.51321822 -0.70264364 0 0 Z M-5 6 C-5 10.95 -5 15.9 -5 21 C-4.67 21 -4.34 21 -4 21 C-4 16.05 -4 11.1 -4 6 C-4.33 6 -4.66 6 -5 6 Z M2 21 C3 23 3 23 3 23 Z " fill="#376B4B" transform="translate(416,237)"/>
<path d="M0 0 C0.66 0.33 1.32 0.66 2 1 C2 1.66 2 2.32 2 3 C2.99 3 3.98 3 5 3 C5.33 2.01 5.66 1.02 6 0 C9.1875 -0.8125 9.1875 -0.8125 13 -1 C15.86202978 1.00880528 17.68614324 2.61271786 18.47827148 6.11401367 C18.67401569 8.5948979 18.68214288 11.0123798 18.625 13.5 C18.65400391 14.76263672 18.65400391 14.76263672 18.68359375 16.05078125 C18.64858021 20.4975011 18.41676114 22.4505699 15.65625 26.08984375 C13 28 13 28 9.875 28.0625 C6.51246933 26.81982562 5.77302539 26.06342209 4 23 C3.48828125 19.765625 3.48828125 19.765625 3.3125 16.25 C3.24675781 15.07953125 3.18101562 13.9090625 3.11328125 12.703125 C3.07589844 11.81109375 3.03851563 10.9190625 3 10 C1.68 10 0.36 10 -1 10 C-0.34 10.45375 0.32 10.9075 1 11.375 C3.66846567 14.87736119 3.40044643 17.37031266 3.3359375 21.66015625 C3 24 3 24 1 27 C-2.41020837 28.06095372 -4.39213269 28.18911427 -7.8125 27.125 C-11.11272954 23.91906273 -10.89752043 20.44388678 -11 16 C-9.35 15.67 -7.7 15.34 -6 15 C-6.639375 14.46375 -7.27875 13.9275 -7.9375 13.375 C-10.46366448 10.46608332 -10.92177859 8.83284932 -11 5 C-8.21276677 -0.97264264 -6.23391433 -1.29873215 0 0 Z M10 6 C10 10.95 10 15.9 10 21 C10.66 20.67 11.32 20.34 12 20 C12 15.38 12 10.76 12 6 C11.34 6 10.68 6 10 6 Z M-4 18 C-3 21 -3 21 -3 21 Z " fill="#568066" transform="translate(340,237)"/>
<path d="M0 0 C1.64574566 -0.02688151 3.29161413 -0.04634123 4.9375 -0.0625 C5.85402344 -0.07410156 6.77054687 -0.08570313 7.71484375 -0.09765625 C10 0 10 0 11 1 C11.04080783 2.99958364 11.04254356 5.00045254 11 7 C9.35 7 7.7 7 6 7 C6 8.32 6 9.64 6 11 C7.65 11 9.3 11 11 11 C11 12.98 11 14.96 11 17 C9.35 17 7.7 17 6 17 C6 18.65 6 20.3 6 22 C7.98 22 9.96 22 12 22 C11.979375 20.741875 11.95875 19.48375 11.9375 18.1875 C11.9615461 3.0384539 11.9615461 3.0384539 15 0 C16.875 -0.30078125 16.875 -0.30078125 19 -0.3125 C19.70125 -0.32925781 20.4025 -0.34601563 21.125 -0.36328125 C22.053125 -0.18345703 22.053125 -0.18345703 23 0 C25.25870108 3.38805161 25.29259413 4.77350741 25.4140625 8.76171875 C25.45273437 9.87998047 25.49140625 10.99824219 25.53125 12.15039062 C25.5621875 13.31763672 25.593125 14.48488281 25.625 15.6875 C25.66367187 16.86634766 25.70234375 18.04519531 25.7421875 19.25976562 C25.83654391 22.17301977 25.92213161 25.08626607 26 28 C24.02 28 22.04 28 20 28 C20 26.68 20 25.36 20 24 C19.34 24 18.68 24 18 24 C17.67 25.32 17.34 26.64 17 28 C11.06 28 5.12 28 -1 28 C-2.19264205 23.2294318 -2.18400586 18.89180295 -2.1875 14 C-2.19974609 13.09765625 -2.21199219 12.1953125 -2.22460938 11.265625 C-2.22654297 10.39421875 -2.22847656 9.5228125 -2.23046875 8.625 C-2.23457764 7.83351562 -2.23868652 7.04203125 -2.24291992 6.2265625 C-1.97405224 3.76216729 -1.2296427 2.13458906 0 0 Z M18 15 C19 18 19 18 19 18 Z " fill="#A3DFF6" transform="translate(273,236)"/>
<path d="M0 0 C2.6201694 2.47460443 4.83998762 4.74283724 6.75 7.8125 C13.5842217 17.49431408 24.66026587 24.66628374 36.3984375 26.7578125 C45.64591246 27.61868855 54.74654731 27.53934846 63.765625 25.14453125 C66 25 66 25 68.296875 26.44921875 C68.85890625 26.96097656 69.4209375 27.47273438 70 28 C69.67 28.66 69.34 29.32 69 30 C69.66 30 70.32 30 71 30 C70.67 31.65 70.34 33.3 70 35 C56.53473894 40.33967249 42.70934102 40.01967046 29.1484375 34.9296875 C16.11299503 28.83571904 5.4674224 18.39818896 0 5 C-0.16015625 2.16796875 -0.16015625 2.16796875 0 0 Z " fill="#3EB6FA" transform="translate(60,247)"/>
<path d="M0 0 C1.9375 1.5 1.9375 1.5 3 3 C3.66 2.01 4.32 1.02 5 0 C7.7427508 -0.47114738 10.19558897 -0.17805784 13 0 C14 1 14 1 14.11352539 3.59204102 C14.10828857 4.71795654 14.10305176 5.84387207 14.09765625 7.00390625 C14.09443359 8.21884766 14.09121094 9.43378906 14.08789062 10.68554688 C14.07951172 11.96494141 14.07113281 13.24433594 14.0625 14.5625 C14.05798828 15.84576172 14.05347656 17.12902344 14.04882812 18.45117188 C14.03699545 21.63416022 14.02051068 24.81705762 14 28 C11.15247365 29.42376318 9.08125973 28.51354329 6 28 C5.34 28.33 4.68 28.66 4 29 C1.375 28.0625 1.375 28.0625 -1 27 C-1.33 27.33 -1.66 27.66 -2 28 C-3.99958364 28.04080783 -6.00045254 28.04254356 -8 28 C-8.69037426 18.97582223 -9.15178302 10.05638678 -9 1 C-5.95016004 -0.52491998 -3.3576631 -0.23562548 0 0 Z " fill="#8AD1F5" transform="translate(308,236)"/>
<path d="M0 0 C0.8146875 0.00257813 1.629375 0.00515625 2.46875 0.0078125 C3.2834375 0.00523437 4.098125 0.00265625 4.9375 0 C6.96875 0.1328125 6.96875 0.1328125 7.96875 1.1328125 C8.00955783 3.13239614 8.01129356 5.13326504 7.96875 7.1328125 C6.31875 7.1328125 4.66875 7.1328125 2.96875 7.1328125 C2.96875 8.4528125 2.96875 9.7728125 2.96875 11.1328125 C4.61875 11.1328125 6.26875 11.1328125 7.96875 11.1328125 C7.96875 13.1128125 7.96875 15.0928125 7.96875 17.1328125 C6.31875 17.1328125 4.66875 17.1328125 2.96875 17.1328125 C2.96875 18.7828125 2.96875 20.4328125 2.96875 22.1328125 C4.94875 22.1328125 6.92875 22.1328125 8.96875 22.1328125 C8.96875 20.4828125 8.96875 18.8328125 8.96875 17.1328125 C10.28875 16.8028125 11.60875 16.4728125 12.96875 16.1328125 C12.30875 15.6378125 11.64875 15.1428125 10.96875 14.6328125 C8.52282641 11.57540801 8.36858925 9.86139313 8.58984375 6.04296875 C8.96875 4.1328125 8.96875 4.1328125 10.53125 1.5703125 C12.96875 0.1328125 12.96875 0.1328125 16.59375 0.1953125 C19.96875 1.1328125 19.96875 1.1328125 21.96875 4.1328125 C22.09375 7.3203125 22.09375 7.3203125 21.96875 10.1328125 C20.97875 10.4628125 19.98875 10.7928125 18.96875 11.1328125 C19.62875 11.7928125 20.28875 12.4528125 20.96875 13.1328125 C23.20315515 16.48442022 23.63445279 18.25736863 23.41796875 22.19140625 C22.60709329 25.69579845 20.87243256 27.17598295 17.96875 29.1328125 C14.84375 28.9453125 14.84375 28.9453125 11.96875 28.1328125 C10.97875 28.1328125 9.98875 28.1328125 8.96875 28.1328125 C4.96875 28.1328125 0.96875 28.1328125 -3.03125 28.1328125 C-3.06011338 23.65365922 -3.07800187 19.17452959 -3.09375 14.6953125 C-3.10212891 13.41591797 -3.11050781 12.13652344 -3.11914062 10.81835938 C-3.12236328 9.60341797 -3.12558594 8.38847656 -3.12890625 7.13671875 C-3.13414307 6.01080322 -3.13937988 4.8848877 -3.14477539 3.72485352 C-2.99019845 0.19551298 -2.99019845 0.19551298 0 0 Z M14.96875 19.1328125 C15.96875 22.1328125 15.96875 22.1328125 15.96875 22.1328125 Z " fill="#6FC3F1" transform="translate(222.03125,235.8671875)"/>
<path d="M0 0 C1.65 0.33 3.3 0.66 5 1 C5 7.93 5 14.86 5 22 C6.65 22 8.3 22 10 22 C10.495 13.09 10.495 13.09 11 4 C10.34 4 9.68 4 9 4 C9.33 3.01 9.66 2.02 10 1 C11.9914056 0.61866701 13.99279077 0.28674418 16 0 C17 1 17 1 17.11352539 3.13305664 C17.10828857 4.04949951 17.10305176 4.96594238 17.09765625 5.91015625 C17.09443359 6.89951172 17.09121094 7.88886719 17.08789062 8.90820312 C17.07951172 9.94912109 17.07113281 10.99003906 17.0625 12.0625 C17.05798828 13.10728516 17.05347656 14.15207031 17.04882812 15.22851562 C17.03699913 17.8190666 17.02051689 20.40950559 17 23 C17.66 22.67 18.32 22.34 19 22 C19.33 16.39 19.66 10.78 20 5 C21.32 4.34 22.64 3.68 24 3 C24.14496508 6.77043032 24.23395607 10.54014742 24.3125 14.3125 C24.35439453 15.38435547 24.39628906 16.45621094 24.43945312 17.56054688 C24.45556641 18.58857422 24.47167969 19.61660156 24.48828125 20.67578125 C24.51446533 21.62364502 24.54064941 22.57150879 24.56762695 23.5480957 C24 26 24 26 21.63354492 27.85229492 C18.510785 29.21320105 17.21236286 28.92989451 14 28 C13.01 28 12.02 28 11 28 C7 28 3 28 -1 28 C-1.02886338 23.52084672 -1.04675187 19.04171709 -1.0625 14.5625 C-1.07087891 13.28310547 -1.07925781 12.00371094 -1.08789062 10.68554688 C-1.09111328 9.47060547 -1.09433594 8.25566406 -1.09765625 7.00390625 C-1.10289307 5.87799072 -1.10812988 4.7520752 -1.11352539 3.59204102 C-1 1 -1 1 0 0 Z " fill="#749481" transform="translate(360,236)"/>
<path d="M0 0 C3.4375 1.0625 3.4375 1.0625 5.375 3.125 C6.77329156 6.99086491 6.64587644 9.96443009 6.4375 14.0625 C4.1275 13.4025 1.8175 12.7425 -0.5625 12.0625 C-0.5625 13.3825 -0.5625 14.7025 -0.5625 16.0625 C0.38625 15.876875 1.335 15.69125 2.3125 15.5 C5.4375 15.0625 5.4375 15.0625 7.4375 16.0625 C7.41429687 15.49402344 7.39109375 14.92554688 7.3671875 14.33984375 C7.24558312 9.13691352 7.76026508 4.98937757 9.4375 0.0625 C12.0775 0.0625 14.7175 0.0625 17.4375 0.0625 C17.4375 1.0525 17.4375 2.0425 17.4375 3.0625 C14.7975 2.7325 12.1575 2.4025 9.4375 2.0625 C9.44910156 3.20589844 9.46070313 4.34929687 9.47265625 5.52734375 C9.48203288 7.01822754 9.49113321 8.50911309 9.5 10 C9.50837891 10.75474609 9.51675781 11.50949219 9.52539062 12.28710938 C9.53402441 14.21244313 9.48974333 16.13785581 9.4375 18.0625 C9.1075 18.3925 8.7775 18.7225 8.4375 19.0625 C8.20674918 20.40997084 8.02596937 21.76627565 7.875 23.125 C7.730625 24.424375 7.58625 25.72375 7.4375 27.0625 C8.7575 27.0625 10.0775 27.0625 11.4375 27.0625 C11.4375 25.7425 11.4375 24.4225 11.4375 23.0625 C12.7575 23.0625 14.0775 23.0625 15.4375 23.0625 C15.4375 24.3825 15.4375 25.7025 15.4375 27.0625 C16.7575 27.0625 18.0775 27.0625 19.4375 27.0625 C19.4375 22.7725 19.4375 18.4825 19.4375 14.0625 C19.7675 14.0625 20.0975 14.0625 20.4375 14.0625 C20.4375 18.6825 20.4375 23.3025 20.4375 28.0625 C18.4575 28.0625 16.4775 28.0625 14.4375 28.0625 C14.4375 26.7425 14.4375 25.4225 14.4375 24.0625 C13.7775 24.0625 13.1175 24.0625 12.4375 24.0625 C12.4375 25.3825 12.4375 26.7025 12.4375 28.0625 C10.4575 28.0625 8.4775 28.0625 6.4375 28.0625 C6.1075 27.4025 5.7775 26.7425 5.4375 26.0625 C4.90125 26.578125 4.365 27.09375 3.8125 27.625 C1.4375 29.0625 1.4375 29.0625 -1.625 28.9375 C-4.69225466 28.02384968 -5.65313549 27.53811617 -7.5625 25.0625 C-8.19445306 21.61406007 -8.02589012 18.12487369 -8 14.625 C-8.01998047 13.67044922 -8.03996094 12.71589844 -8.06054688 11.73242188 C-8.05568752 4.78840371 -8.05568752 4.78840371 -5.7578125 1.40625 C-3.5625 0.0625 -3.5625 0.0625 0 0 Z " fill="#588369" transform="translate(182.5625,235.9375)"/>
<path d="M0 0 C1.98 0 3.96 0 6 0 C6 9.24 6 18.48 6 28 C1.71 28 -2.58 28 -7 28 C-7 19.42 -7 10.84 -7 2 C-5.35 2 -3.7 2 -2 2 C-1.67 2.33 -1.34 2.66 -1 3 C-0.67 2.01 -0.34 1.02 0 0 Z " fill="#0A4D23" transform="translate(427,236)"/>
<path d="M0 0 C2.81798751 2.49821588 3.23469171 4.76441707 3.46875 8.37109375 C3.49523826 10.05972022 3.50512154 11.74867356 3.5 13.4375 C3.52835937 14.28376953 3.55671875 15.13003906 3.5859375 16.00195312 C3.59995443 20.47685698 3.43342195 22.42355607 0.66796875 26.1015625 C-2 28 -2 28 -5.1875 27.9375 C-8 27 -8 27 -10 25 C-10.22705078 22.56982422 -10.22705078 22.56982422 -10.1953125 19.5546875 C-10.18886719 18.47832031 -10.18242187 17.40195313 -10.17578125 16.29296875 C-10.15902344 15.16503906 -10.14226562 14.03710938 -10.125 12.875 C-10.11597656 11.73933594 -10.10695313 10.60367188 -10.09765625 9.43359375 C-10.07403098 6.62218701 -10.04109013 3.81119702 -10 1 C-6.23758957 -1.09654836 -4.20593513 -1.25283174 0 0 Z M-5 6 C-5 10.95 -5 15.9 -5 21 C-4.34 20.67 -3.68 20.34 -3 20 C-3 15.38 -3 10.76 -3 6 C-3.66 6 -4.32 6 -5 6 Z " fill="#1E5733" transform="translate(355,237)"/>
<path d="M0 0 C2.1519437 3.22791555 2.20086443 4.28400809 2 8 C0.02 8.99 0.02 8.99 -2 10 C-1.34 10.45375 -0.68 10.9075 0 11.375 C2.6581585 14.86383303 2.57550872 17.35098698 2.37890625 21.64453125 C2 24 2 24 0.4375 26.6875 C-3.10346152 28.59417159 -5.19882756 28.10579562 -9 27 C-10.9375 25.375 -10.9375 25.375 -12 23 C-12.1875 19.25 -12.1875 19.25 -12 16 C-10.35 15.67 -8.7 15.34 -7 15 C-7.845625 14.154375 -8.69125 13.30875 -9.5625 12.4375 C-11.85409114 9.69019471 -11.99767088 9.13741835 -12.0625 5.3125 C-11 2 -11 2 -9.375 0 C-5.92336696 -1.45331917 -3.57190516 -0.92604949 0 0 Z M-5 6 C-4 8 -4 8 -4 8 Z M-5 18 C-4 21 -4 21 -4 21 Z " fill="#346846" transform="translate(446,237)"/>
<path d="M0 0 C0.33 0 0.66 0 1 0 C1.144375 1.258125 1.28875 2.51625 1.4375 3.8125 C1.86642701 6.04829697 1.86642701 6.04829697 3 8 C5.87394404 9.61298139 8.77982829 10.3639167 12 11 C12 11.33 12 11.66 12 12 C11.43410156 12.12117187 10.86820313 12.24234375 10.28515625 12.3671875 C9.18494141 12.61855469 9.18494141 12.61855469 8.0625 12.875 C6.96615234 13.11863281 6.96615234 13.11863281 5.84765625 13.3671875 C3.79299706 13.82961523 3.79299706 13.82961523 3 16 C3.4640625 17.60875 3.4640625 17.60875 3.9375 19.25 C7.01331425 31.0017317 5.33226026 44.31773419 -0.63671875 54.90234375 C-1.08660156 55.59457031 -1.53648437 56.28679687 -2 57 C-3.04005702 53.61981469 -3.08004482 50.5219721 -3 47 C-1.515 46.505 -1.515 46.505 0 46 C0.33 43.36 0.66 40.72 1 38 C0.34 38.99 -0.32 39.98 -1 41 C-1.66 41 -2.32 41 -3 41 C-3.99 43.475 -3.99 43.475 -5 46 C-11.75 47.125 -11.75 47.125 -14 46 C-14 45.34 -14 44.68 -14 44 C-12.741875 43.979375 -11.48375 43.95875 -10.1875 43.9375 C-7.98370528 43.71481956 -7.98370528 43.71481956 -6 43 C-1.40945124 35.96115856 -0.13028902 25.26225427 -1 17 C-3.16333061 13.75500409 -4.44412537 13.12827876 -8.25 12.25 C-9.1575 12.1675 -10.065 12.085 -11 12 C-10.443125 11.731875 -9.88625 11.46375 -9.3125 11.1875 C-8.549375 10.795625 -7.78625 10.40375 -7 10 C-6.13375 9.608125 -5.2675 9.21625 -4.375 8.8125 C-1.1259965 6.33299733 -0.81139553 3.90945118 0 0 Z " fill="#47B2F2" transform="translate(158,202)"/>
<path d="M0 0 C0.8146875 0.00257813 1.629375 0.00515625 2.46875 0.0078125 C3.2834375 0.00523437 4.098125 0.00265625 4.9375 0 C6.96875 0.1328125 6.96875 0.1328125 7.96875 1.1328125 C8.00955783 3.13239614 8.01129356 5.13326504 7.96875 7.1328125 C6.31875 7.1328125 4.66875 7.1328125 2.96875 7.1328125 C2.96875 8.4528125 2.96875 9.7728125 2.96875 11.1328125 C4.61875 11.1328125 6.26875 11.1328125 7.96875 11.1328125 C7.96875 13.1128125 7.96875 15.0928125 7.96875 17.1328125 C6.31875 17.1328125 4.66875 17.1328125 2.96875 17.1328125 C2.96875 18.7828125 2.96875 20.4328125 2.96875 22.1328125 C4.61875 22.1328125 6.26875 22.1328125 7.96875 22.1328125 C7.96875 24.1128125 7.96875 26.0928125 7.96875 28.1328125 C4.33875 28.1328125 0.70875 28.1328125 -3.03125 28.1328125 C-3.06011338 23.65365922 -3.07800187 19.17452959 -3.09375 14.6953125 C-3.10212891 13.41591797 -3.11050781 12.13652344 -3.11914062 10.81835938 C-3.12236328 9.60341797 -3.12558594 8.38847656 -3.12890625 7.13671875 C-3.13414307 6.01080322 -3.13937988 4.8848877 -3.14477539 3.72485352 C-2.99019845 0.19551298 -2.99019845 0.19551298 0 0 Z " fill="#3A694B" transform="translate(222.03125,235.8671875)"/>
<path d="M0 0 C2.64 0 5.28 0 8 0 C9.9169573 5.62257161 10.24889924 10.52369385 10.125 16.4375 C10.11597656 17.26443359 10.10695312 18.09136719 10.09765625 18.94335938 C10.07431512 20.96236708 10.03845288 22.98122356 10 25 C8.68 25 7.36 25 6 25 C6 23.68 6 22.36 6 21 C4.68 21 3.36 21 2 21 C2 22.32 2 23.64 2 25 C0.68 25 -0.64 25 -2 25 C-2.09765625 18.84765625 -2.09765625 18.84765625 -2 17 C-1.67 16.67 -1.34 16.34 -1 16 C-0.76321284 13.30764224 -0.57801975 10.63501844 -0.4375 7.9375 C-0.39431641 7.17888672 -0.35113281 6.42027344 -0.30664062 5.63867188 C-0.20026367 3.75934562 -0.09960066 1.87969756 0 0 Z M4 14 C3.67 14.66 3.34 15.32 3 16 C3.66 16 4.32 16 5 16 C4.67 15.34 4.34 14.68 4 14 Z " fill="#0D4B26" transform="translate(192,238)"/>
<path d="M0 0 C1.32 0 2.64 0 4 0 C4 4.62 4 9.24 4 14 C4.99 14 5.98 14 7 14 C6.67 11.03 6.34 8.06 6 5 C6.99 5 7.98 5 9 5 C9.66 6.98 10.32 8.96 11 11 C11.33 11 11.66 11 12 11 C12.33 9.35 12.66 7.7 13 6 C12.34 5.67 11.68 5.34 11 5 C12.47906892 4.97310784 13.95827483 4.95365379 15.4375 4.9375 C16.26121094 4.92589844 17.08492188 4.91429687 17.93359375 4.90234375 C20 5 20 5 21 6 C21.33926947 8.33247761 21.67240066 10.66585471 22 13 C22.495 13.99 22.495 13.99 23 15 C18.0685419 16.28913635 13.18233688 16.14721378 8.125 16.125 C6.81595703 16.13080078 6.81595703 16.13080078 5.48046875 16.13671875 C0.5463558 16.12929903 -4.13613352 15.83494166 -9 15 C-10.15837626 10.94568308 -9.83691257 8.78187881 -8 5 C-6.02 5 -4.04 5 -2 5 C-0.64560332 7.70879335 -0.93498549 10.00933268 -1 13 C0.32229189 10.35541621 0.09677194 8.32238699 0.0625 5.375 C0.04896484 3.87066406 0.04896484 3.87066406 0.03515625 2.3359375 C0.02355469 1.56507813 0.01195312 0.79421875 0 0 Z M-6 6 C-6.33 6.99 -6.66 7.98 -7 9 C-6.01 9.33 -5.02 9.66 -4 10 C-4.33 8.68 -4.66 7.36 -5 6 C-5.33 6 -5.66 6 -6 6 Z M16 7 C14.70366379 8.06645115 14.70366379 8.06645115 14.9375 10.5625 C14.958125 11.366875 14.97875 12.17125 15 13 C16.32 13 17.64 13 19 13 C19 11.02 19 9.04 19 7 C18.01 7 17.02 7 16 7 Z M-6 11 C-6.33 11.66 -6.66 12.32 -7 13 C-6.01 13 -5.02 13 -4 13 C-4 12.34 -4 11.68 -4 11 C-4.66 11 -5.32 11 -6 11 Z " fill="#6E6E6E" transform="translate(258,276)"/>
<path d="M0 0 C0.99 0 1.98 0 3 0 C3.33 4.29 3.66 8.58 4 13 C4.66 13 5.32 13 6 13 C6.33 9.37 6.66 5.74 7 2 C6.34 2 5.68 2 5 2 C5 1.34 5 0.68 5 0 C6.32 0 7.64 0 9 0 C9 4.29 9 8.58 9 13 C9.99 13 10.98 13 12 13 C11.67 10.36 11.34 7.72 11 5 C12.32 5 13.64 5 15 5 C15.66 6.32 16.32 7.64 17 9 C16.67 7.68 16.34 6.36 16 5 C17.47906892 4.97310784 18.95827483 4.95365379 20.4375 4.9375 C21.26121094 4.92589844 22.08492188 4.91429687 22.93359375 4.90234375 C25 5 25 5 26 6 C26.33926947 8.33247761 26.67240066 10.66585471 27 13 C27.495 13.99 27.495 13.99 28 15 C22.31853116 15.6401655 16.72099149 16.24344645 11 16 C10.67 15.67 10.34 15.34 10 15 C7.30345146 14.92680379 4.63308542 14.90757463 1.9375 14.9375 C1.17888672 14.94201172 0.42027344 14.94652344 -0.36132812 14.95117188 C-2.24091871 14.9629932 -4.12046899 14.98092922 -6 15 C-5.70703125 12.98177083 -5.4140625 10.96354167 -5.12109375 8.9453125 C-4.8315703 6.91859333 -4.8315703 6.91859333 -6 5 C-4.68 5 -3.36 5 -2 5 C-2 7.97 -2 10.94 -2 14 C-1.01 14 -0.02 14 1 14 C0.67 9.38 0.34 4.76 0 0 Z M22 6 C19.71271266 7.83883881 19.71271266 7.83883881 19.875 10.625 C19.91625 11.40875 19.9575 12.1925 20 13 C20.99 13.495 20.99 13.495 22 14 C22.33 13.67 22.66 13.34 23 13 C23.33 13 23.66 13 24 13 C24 11.02 24 9.04 24 7 C23.34 6.67 22.68 6.34 22 6 Z " fill="#5F5F5F" transform="translate(328,276)"/>
<path d="M0 0 C2.64 0 5.28 0 8 0 C9.04976964 3.14930893 9.10131595 5.38814456 9.0625 8.6875 C9.05347656 9.68136719 9.04445313 10.67523438 9.03515625 11.69921875 C9.02355469 12.45847656 9.01195312 13.21773437 9 14 C8.01 14 7.02 14 6 14 C6.495 14.350625 6.99 14.70125 7.5 15.0625 C9.73063966 17.94374289 9.19980621 20.47009026 9 24 C8.34 24 7.68 24 7 24 C6.67 23.34 6.34 22.68 6 22 C3.47266765 21.34444881 3.47266765 21.34444881 1 21 C1 21.99 1 22.98 1 24 C0.34 24 -0.32 24 -1 24 C-1.02893932 20.37501666 -1.04677792 16.75006287 -1.0625 13.125 C-1.07087891 12.09246094 -1.07925781 11.05992187 -1.08789062 9.99609375 C-1.09111328 9.00996094 -1.09433594 8.02382812 -1.09765625 7.0078125 C-1.10289307 6.09660645 -1.10812988 5.18540039 -1.11352539 4.24658203 C-1 2 -1 2 0 0 Z M3 13 C4 16 4 16 4 16 Z " fill="#3FB4F8" transform="translate(288,238)"/>
<path d="M0 0 C9 1 9 1 10 2 C10.08713831 3.70772358 10.10700007 5.41898649 10.09765625 7.12890625 C10.09443359 8.16337891 10.09121094 9.19785156 10.08789062 10.26367188 C10.07951172 11.35228516 10.07113281 12.44089844 10.0625 13.5625 C10.05798828 14.65498047 10.05347656 15.74746094 10.04882812 16.87304688 C10.03699826 19.58208495 10.02051543 22.29101599 10 25 C9.01 25 8.02 25 7 25 C6.95101563 24.21753906 6.90203125 23.43507813 6.8515625 22.62890625 C6.77679688 21.61699219 6.70203125 20.60507812 6.625 19.5625 C6.52058594 18.04849609 6.52058594 18.04849609 6.4140625 16.50390625 C6.27742188 15.67761719 6.14078125 14.85132813 6 14 C5.34 13.67 4.68 13.34 4 13 C4 16.96 4 20.92 4 25 C2.68 25 1.36 25 0 25 C0 16.75 0 8.5 0 0 Z M5 5 C6 8 6 8 6 8 Z " fill="#3EB4F8" transform="translate(259,238)"/>
<path d="M0 0 C3.3 0 6.6 0 10 0 C10 1.32 10 2.64 10 4 C8.35 4 6.7 4 5 4 C5 5.98 5 7.96 5 10 C6.65 10 8.3 10 10 10 C10 11.32 10 12.64 10 14 C8.35 14 6.7 14 5 14 C5 16.31 5 18.62 5 21 C6.65 21 8.3 21 10 21 C10 22.32 10 23.64 10 25 C6.7 25 3.4 25 0 25 C0 16.75 0 8.5 0 0 Z " fill="#4AB1EB" transform="translate(273,238)"/>
<path d="M0 0 C3.9375 0.5 3.9375 0.5 5.9375 1.5 C7.56483051 4.75466102 7.47218062 7.94288862 6.9375 11.5 C5.34720955 14.23883355 4.10284703 14.44967699 1.0625 15.375 C-2.77707298 15.52858292 -4.2253797 15.09393856 -7.0625 12.5 C-8.34886435 8.41390147 -8.51933606 6.43353457 -6.625 2.5625 C-3.94914734 0.40876493 -3.2669763 0.13863553 0 0 Z " fill="#4DB8F4" transform="translate(148.0625,225.5)"/>
<path d="M0 0 C1.32 0 2.64 0 4 0 C4.33 6.6 4.66 13.2 5 20 C5.66 20 6.32 20 7 20 C7.33 14.39 7.66 8.78 8 3 C9.32 2.34 10.64 1.68 12 1 C12.05413245 3.89608593 12.09373641 6.79115195 12.125 9.6875 C12.14175781 10.50412109 12.15851563 11.32074219 12.17578125 12.16210938 C12.2114802 16.57092929 12.07580814 19.98731576 10 24 C6.625 24.125 6.625 24.125 3 24 C0.41774944 21.41774944 0.07989965 19.48252517 -0.11352539 15.89355469 C-0.10828857 15.16040039 -0.10305176 14.42724609 -0.09765625 13.671875 C-0.09282227 12.47304687 -0.09282227 12.47304687 -0.08789062 11.25 C-0.07951172 10.425 -0.07113281 9.6 -0.0625 8.75 C-0.05798828 7.90953125 -0.05347656 7.0690625 -0.04882812 6.203125 C-0.03707961 4.13538599 -0.01914522 2.06768376 0 0 Z " fill="#0A4A23" transform="translate(372,238)"/>
<path d="M0 0 C1 6.625 1 6.625 1 10 C-0.32 10 -1.64 10 -3 10 C-3 8.35 -3 6.7 -3 5 C-3.99 5 -4.98 5 -6 5 C-5.67 11.27 -5.34 17.54 -5 24 C-6.98 24.99 -6.98 24.99 -9 26 C-12.35480749 22.64519251 -11.36892933 18.17800309 -11.375 13.625 C-11.39949219 12.6659375 -11.42398438 11.706875 -11.44921875 10.71875 C-11.47847536 3.71666833 -11.47847536 3.71666833 -9.2109375 0.3203125 C-5.94871497 -1.62779919 -3.5896685 -0.82838504 0 0 Z " fill="#1E5532" transform="translate(186,237)"/>
<path d="M0 0 C2.64 0 5.28 0 8 0 C8 8.91 8 17.82 8 27 C6.35 26.67 4.7 26.34 3 26 C2.67 20.39 2.34 14.78 2 9 C0.68 10.65 -0.64 12.3 -2 14 C-1.85795259 12.41632253 -1.71119847 10.83306682 -1.5625 9.25 C-1.48128906 8.36828125 -1.40007812 7.4865625 -1.31640625 6.578125 C-1.03761535 4.30649548 -0.61209423 2.20148177 0 0 Z " fill="#54B1E7" transform="translate(313,238)"/>
<path d="M0 0 C9 0 9 0 13 2 C13 10.58 13 19.16 13 28 C8.71 28 4.42 28 0 28 C0 18.76 0 9.52 0 0 Z M1 2 C1 10.25 1 18.5 1 27 C2.32 27 3.64 27 5 27 C5 23.04 5 19.08 5 15 C5.66 15.33 6.32 15.66 7 16 C7.4140625 18.50390625 7.4140625 18.50390625 7.625 21.5625 C7.69976562 22.57441406 7.77453125 23.58632813 7.8515625 24.62890625 C7.92503906 25.80259766 7.92503906 25.80259766 8 27 C8.99 27 9.98 27 11 27 C11 19.41 11 11.82 11 4 C4.73258967 1.86263944 4.73258967 1.86263944 1 2 Z " fill="#77C2EC" transform="translate(258,236)"/>
<path d="M0 0 C1.32 0 2.64 0 4 0 C4.33 2.97 4.66 5.94 5 9 C5.66 9 6.32 9 7 9 C7 7.02 7 5.04 7 3 C7.66 2.67 8.32 2.34 9 2 C9.33 4.64 9.66 7.28 10 10 C7.69 10.66 5.38 11.32 3 12 C3.33 12.66 3.66 13.32 4 14 C4.06996014 15.70702735 4.08440154 17.41668003 4.0625 19.125 C4.05347656 20.03507812 4.04445312 20.94515625 4.03515625 21.8828125 C4.01775391 22.93082031 4.01775391 22.93082031 4 24 C2.35 24 0.7 24 -1 24 C-1.02909763 20.75001888 -1.04683161 17.50007143 -1.0625 14.25 C-1.07087891 13.32960937 -1.07925781 12.40921875 -1.08789062 11.4609375 C-1.09111328 10.57148438 -1.09433594 9.68203125 -1.09765625 8.765625 C-1.10289307 7.94868164 -1.10812988 7.13173828 -1.11352539 6.29003906 C-1.00299021 4.06031865 -0.62055567 2.13866245 0 0 Z " fill="#0B4A23" transform="translate(206,239)"/>
<path d="M0 0 C4.29 0 8.58 0 13 0 C13 1.32 13 2.64 13 4 C13.33 2.68 13.66 1.36 14 0 C16.64 0 19.28 0 22 0 C22.22786458 2.01822917 22.45572917 4.03645833 22.68359375 6.0546875 C22.91292961 8.07404316 22.91292961 8.07404316 24 10 C22.02 10 20.04 10 18 10 C18.33 7.03 18.66 4.06 19 1 C18.34 1 17.68 1 17 1 C16.01 3.97 15.02 6.94 14 10 C13.01 9.67 12.02 9.34 11 9 C9.8125 5.9375 9.8125 5.9375 9 3 C9 3.66 9 4.32 9 5 C8.34 5 7.68 5 7 5 C7 5.99 7 6.98 7 8 C6.34 8 5.68 8 5 8 C5.020625 7.195625 5.04125 6.39125 5.0625 5.5625 C5.29633621 3.06645115 5.29633621 3.06645115 4 2 C4 4.31 4 6.62 4 9 C4.66 9.33 5.32 9.66 6 10 C4.02 10 2.04 10 0 10 C0.66 8.35 1.32 6.7 2 5 C1.34 5 0.68 5 0 5 C0.33 4.01 0.66 3.02 1 2 C0.67 1.34 0.34 0.68 0 0 Z " fill="#9F9F9F" transform="translate(390,281)"/>
<path d="M0 0 C1.65 0 3.3 0 5 0 C5 8.58 5 17.16 5 26 C3.35 26 1.7 26 0 26 C0 17.42 0 8.84 0 0 Z " fill="#0D4823" transform="translate(398,238)"/>
<path d="M0 0 C2.6201694 2.47460443 4.83998762 4.74283724 6.75 7.8125 C9.88495022 12.25367948 13.85906181 15.51382554 18 19 C17.67 19.66 17.34 20.32 17 21 C16.34 21 15.68 21 15 21 C15.33 22.32 15.66 23.64 16 25 C17.32 25.33 18.64 25.66 20 26 C18.234375 26.69140625 18.234375 26.69140625 16 27 C10.37095578 23.48776023 6.77573143 17.42709188 3.5 11.8125 C3.14969727 11.21880615 2.79939453 10.6251123 2.43847656 10.01342773 C0.50616464 6.53847707 -0.41986139 3.98118564 0 0 Z " fill="#91D3F5" transform="translate(60,247)"/>
<path d="M0 0 C2.9375 0.375 2.9375 0.375 6 1 C6.33 1.66 6.66 2.32 7 3 C8.89533342 3.46523063 8.89533342 3.46523063 11.0625 3.625 C12.361875 3.74875 13.66125 3.8725 15 4 C15 7.33333333 15 10.66666667 15 14 C12.64046906 11.64046906 12.50858587 10.22104383 12 7 C11.84850702 10.62885324 11.84850702 10.62885324 13 14 C11.02 14 9.04 14 7 14 C7.33 13.34 7.66 12.68 8 12 C8.039992 10.00039988 8.04346799 7.99952758 8 6 C5.69 6 3.38 6 1 6 C1 4 1 4 2 3 C1.34 3 0.68 3 0 3 C0.33 5.64 0.66 8.28 1 11 C1.99 11 2.98 11 4 11 C4.99 11.33 5.98 11.66 7 12 C5 14 5 14 2 14.3125 C1.01 14.209375 0.02 14.10625 -1 14 C-3.47342266 10.28986601 -3.38503486 8.38939738 -3 4 C-1.5 1.5625 -1.5 1.5625 0 0 Z " fill="#8C8C8C" transform="translate(178,277)"/>
<path d="M0 0 C3.3 0 6.6 0 10 0 C10 1.32 10 2.64 10 4 C9.01 4 8.02 4 7 4 C7 10.93 7 17.86 7 25 C5.68 25 4.36 25 3 25 C3 18.07 3 11.14 3 4 C2.01 4 1.02 4 0 4 C0 2.68 0 1.36 0 0 Z " fill="#0C4923" transform="translate(386,238)"/>
<path d="M0 0 C3.3 0 6.6 0 10 0 C10 1.32 10 2.64 10 4 C9.01 4 8.02 4 7 4 C7 10.93 7 17.86 7 25 C5.68 25 4.36 25 3 25 C3 18.07 3 11.14 3 4 C2.01 4 1.02 4 0 4 C0 2.68 0 1.36 0 0 Z " fill="#40B3F6" transform="translate(246,238)"/>
<path d="M0 0 C1.32 0 2.64 0 4 0 C4 6.93 4 13.86 4 21 C5.98 21 7.96 21 10 21 C10 22.32 10 23.64 10 25 C6.7 25 3.4 25 0 25 C0 16.75 0 8.5 0 0 Z " fill="#0C4924" transform="translate(360,238)"/>
<path d="M0 0 C0.66 0.33 1.32 0.66 2 1 C2 2.98 2 4.96 2 7 C0.68 7 -0.64 7 -2 7 C-2 6.34 -2 5.68 -2 5 C-2.99 5 -3.98 5 -5 5 C-4.67 6.98 -4.34 8.96 -4 11 C-5.65 11.33 -7.3 11.66 -9 12 C-11 9 -11 9 -10.875 5.5 C-10 2 -10 2 -8.3125 0 C-5.1858513 -1.3520643 -3.24885348 -0.847527 0 0 Z " fill="#3A6C4C" transform="translate(340,237)"/>
<path d="M0 0 C0.99 0 1.98 0 3 0 C3.33 4.29 3.66 8.58 4 13 C4.66 13 5.32 13 6 13 C6.33 9.37 6.66 5.74 7 2 C6.34 2 5.68 2 5 2 C5 1.34 5 0.68 5 0 C6.32 0 7.64 0 9 0 C9.33 4.95 9.66 9.9 10 15 C4.72 15 -0.56 15 -6 15 C-5.70703125 12.98177083 -5.4140625 10.96354167 -5.12109375 8.9453125 C-4.8315703 6.91859333 -4.8315703 6.91859333 -6 5 C-4.68 5 -3.36 5 -2 5 C-2 7.97 -2 10.94 -2 14 C-1.01 14 -0.02 14 1 14 C0.67 9.38 0.34 4.76 0 0 Z " fill="#747474" transform="translate(328,276)"/>
<path d="M0 0 C2.64 0 5.28 0 8 0 C8 0.99 8 1.98 8 3 C5.36 2.67 2.72 2.34 0 2 C0.01160156 3.14339844 0.02320313 4.28679687 0.03515625 5.46484375 C0.04453288 6.95572754 0.05363321 8.44661309 0.0625 9.9375 C0.07087891 10.69224609 0.07925781 11.44699219 0.08789062 12.22460938 C0.09652441 14.14994313 0.05224333 16.07535581 0 18 C-0.33 18.33 -0.66 18.66 -1 19 C-1.23075082 20.34747084 -1.41153063 21.70377565 -1.5625 23.0625 C-1.706875 24.361875 -1.85125 25.66125 -2 27 C-0.68 27 0.64 27 2 27 C2 25.68 2 24.36 2 23 C3.32 23 4.64 23 6 23 C6 24.32 6 25.64 6 27 C7.32 27 8.64 27 10 27 C10 22.71 10 18.42 10 14 C10.33 14 10.66 14 11 14 C11 18.62 11 23.24 11 28 C9.02 28 7.04 28 5 28 C5 26.68 5 25.36 5 24 C4.34 24 3.68 24 3 24 C3 25.32 3 26.64 3 28 C1.02 28 -0.96 28 -3 28 C-3.33 24.37 -3.66 20.74 -4 17 C-4.99 16.67 -5.98 16.34 -7 16 C-6.01 15.67 -5.02 15.34 -4 15 C-3.34 15.33 -2.68 15.66 -2 16 C-2.02320313 15.43152344 -2.04640625 14.86304688 -2.0703125 14.27734375 C-2.19191688 9.07441352 -1.67723492 4.92687757 0 0 Z " fill="#83A28E" transform="translate(192,236)"/>
<path d="M0 0 C0.7425 0.2475 1.485 0.495 2.25 0.75 C2.93707555 3.24064888 3.25 5.12886292 3.25 7.75 C3.270625 8.61625 3.29125 9.4825 3.3125 10.375 C3.25 12.75 3.25 12.75 2.25 13.75 C-0.5625 14.1875 -0.5625 14.1875 -3.75 13.75 C-6.125 10.75 -6.125 10.75 -7.75 7.75 C-8.08 8.74 -8.41 9.73 -8.75 10.75 C-9.41 10.75 -10.07 10.75 -10.75 10.75 C-10.42 9.1 -10.09 7.45 -9.75 5.75 C-9.09 5.75 -8.43 5.75 -7.75 5.75 C-7.42 5.09 -7.09 4.43 -6.75 3.75 C-3.49576271 -0.31779661 -3.49576271 -0.31779661 0 0 Z M-2.75 2.75 C-1.75 4.75 -1.75 4.75 -1.75 4.75 Z M-5.75 5.75 C-4.50023244 9.40316671 -4.07901247 10.53065836 -0.75 12.75 C-0.09 12.42 0.57 12.09 1.25 11.75 C0.52731765 8.4514861 0.52731765 8.4514861 -2.8125 7.0625 C-3.781875 6.629375 -4.75125 6.19625 -5.75 5.75 Z " fill="#9B9B9B" transform="translate(375.75,277.25)"/>
<path d="M0 0 C0.33 0 0.66 0 1 0 C1.144375 1.258125 1.28875 2.51625 1.4375 3.8125 C1.86642701 6.04829697 1.86642701 6.04829697 3 8 C5.87394404 9.61298139 8.77982829 10.3639167 12 11 C12 11.33 12 11.66 12 12 C10.741875 12.20625 9.48375 12.4125 8.1875 12.625 C4.51890422 13.50806022 4.17283915 13.72993883 2 17.125 C1.67 18.07375 1.34 19.0225 1 20 C0.34 19.01 -0.32 18.02 -1 17 C-3.38488489 14.10406835 -4.53610764 13.10705208 -8.25 12.25 C-9.1575 12.1675 -10.065 12.085 -11 12 C-10.443125 11.731875 -9.88625 11.46375 -9.3125 11.1875 C-8.549375 10.795625 -7.78625 10.40375 -7 10 C-6.13375 9.608125 -5.2675 9.21625 -4.375 8.8125 C-1.1259965 6.33299733 -0.81139553 3.90945118 0 0 Z " fill="#457460" transform="translate(158,202)"/>
<path d="M0 0 C1.95803507 -0.05389087 3.91648909 -0.09274217 5.875 -0.125 C7.51082031 -0.15980469 7.51082031 -0.15980469 9.1796875 -0.1953125 C12 0 12 0 14 2 C10.37 2 6.74 2 3 2 C3 10.25 3 18.5 3 27 C4.65 27 6.3 27 8 27 C8 23.37 8 19.74 8 16 C8.66 16 9.32 16 10 16 C10 19.96 10 23.92 10 28 C7.36 28 4.72 28 2 28 C1.95101562 26.79601562 1.90203125 25.59203125 1.8515625 24.3515625 C1.77653657 22.77601802 1.70098867 21.20049834 1.625 19.625 C1.57859375 18.43390625 1.57859375 18.43390625 1.53125 17.21875 C1.48183579 12.63332625 1.48183579 12.63332625 -1 9 C-0.9765625 6.8359375 -0.9765625 6.8359375 -0.625 4.375 C-0.51414063 3.55773437 -0.40328125 2.74046875 -0.2890625 1.8984375 C-0.19367188 1.27195313 -0.09828125 0.64546875 0 0 Z M1 2 C2 4 2 4 2 4 Z " fill="#A2C0AC" transform="translate(202,236)"/>
<path d="M0 0 C0.33 0.99 0.66 1.98 1 3 C-0.4375 5.6875 -0.4375 5.6875 -2 8 C-1.34 8.33 -0.68 8.66 0 9 C0 10.98 0 12.96 0 15 C-2.64 15 -5.28 15 -8 15 C-9.10424872 10.58300512 -9.15088074 6.52642225 -9 2 C-6.95301586 -0.04698414 -2.69588759 0.29954307 0 0 Z M-5 2 C-5.33 3.32 -5.66 4.64 -6 6 C-5.01 6 -4.02 6 -3 6 C-3.33 4.68 -3.66 3.36 -4 2 C-4.33 2 -4.66 2 -5 2 Z M-7 11 C-6.67 11.66 -6.34 12.32 -6 13 C-4.35 13 -2.7 13 -1 13 C-1.33 12.34 -1.66 11.68 -2 11 C-3.65 11 -5.3 11 -7 11 Z " fill="#9B9B9B" transform="translate(290,280)"/>
<path d="M0 0 C3.4375 0.8125 3.4375 0.8125 5.4375 3.8125 C5.5625 6.5 5.5625 6.5 5.4375 8.8125 C3.7875 8.8125 2.1375 8.8125 0.4375 8.8125 C0.4375 7.8225 0.4375 6.8325 0.4375 5.8125 C-0.5525 5.8125 -1.5425 5.8125 -2.5625 5.8125 C-2.5625 7.7925 -2.5625 9.7725 -2.5625 11.8125 C-3.8825 11.4825 -5.2025 11.1525 -6.5625 10.8125 C-6.64346803 9.35507537 -6.70167774 7.89637193 -6.75 6.4375 C-6.78480469 5.62539062 -6.81960937 4.81328125 -6.85546875 3.9765625 C-6.75878906 3.26242188 -6.66210938 2.54828125 -6.5625 1.8125 C-3.5625 -0.1875 -3.5625 -0.1875 0 0 Z " fill="#6EC0EE" transform="translate(238.5625,236.1875)"/>
<path d="M0 0 C0 0.66 0 1.32 0 2 C-0.66 2 -1.32 2 -2 2 C-2.33 3.65 -2.66 5.3 -3 7 C-2.34 7.33 -1.68 7.66 -1 8 C-0.957279 9.66611905 -0.95936168 11.33382885 -1 13 C-2 14 -2 14 -5.5625 14.0625 C-6.696875 14.041875 -7.83125 14.02125 -9 14 C-10.09321611 9.49048355 -11.13999677 4.27999354 -9 0 C-5.44307323 -0.85056945 -3.50729422 -1.16909807 0 0 Z M-6 1 C-6.33 2.32 -6.66 3.64 -7 5 C-6.01 5 -5.02 5 -4 5 C-4.33 3.68 -4.66 2.36 -5 1 C-5.33 1 -5.66 1 -6 1 Z M-8 10 C-7.34 10.66 -6.68 11.32 -6 12 C-5.01 12 -4.02 12 -3 12 C-3 11.34 -3 10.68 -3 10 C-4.65 10 -6.3 10 -8 10 Z " fill="#818181" transform="translate(366,281)"/>
<path d="M0 0 C7.88323433 2.21715965 13.24421138 8.66019539 17.1875 15.49609375 C17.455625 15.99238281 17.72375 16.48867187 18 17 C17.01 17 16.02 17 15 17 C14.67 20.96 14.34 24.92 14 29 C13.67 29 13.34 29 13 29 C12.92523438 28.16597656 12.85046875 27.33195312 12.7734375 26.47265625 C11.83900648 18.47502606 10.11253166 13.21253847 5 7 C4.50371094 6.39027344 4.00742188 5.78054687 3.49609375 5.15234375 C2.34067494 3.75991595 1.17184063 2.37863604 0 1 C0 0.67 0 0.34 0 0 Z " fill="#85CBF1" transform="translate(126,229)"/>
<path d="M0 0 C0.33 0 0.66 0 1 0 C1 2.31 1 4.62 1 7 C2.32 7.33 3.64 7.66 5 8 C5 6.02 5 4.04 5 2 C5.99 2 6.98 2 8 2 C8 2.99 8 3.98 8 5 C9.65 5 11.3 5 13 5 C11.68 5.33 10.36 5.66 9 6 C9 6.99 9 7.98 9 9 C8.34 9 7.68 9 7 9 C7.33 9.99 7.66 10.98 8 12 C8.03954234 14.33299825 8.04401732 16.66708189 8 19 C7.01 18.67 6.02 18.34 5 18 C5 16.68 5 15.36 5 14 C3.68 14 2.36 14 1 14 C1.04125 15.093125 1.0825 16.18625 1.125 17.3125 C1 21 1 21 -1 24 C-0.67 20.37 -0.34 16.74 0 13 C1.32 12.67 2.64 12.34 4 12 C3.34 11.505 2.68 11.01 2 10.5 C-0.8827217 6.89659788 -0.30200997 4.53014958 0 0 Z M6 15 C7 18 7 18 7 18 Z " fill="#82CDF5" transform="translate(231,240)"/>
<path d="M0 0 C1.65 0.33 3.3 0.66 5 1 C5.625 2.8125 5.625 2.8125 6 5 C5.01 6.485 5.01 6.485 4 8 C5.65 9.65 7.3 11.3 9 13 C5.61905851 14.04028969 2.52637472 14.15672777 -1 14 C-2.65653686 12.34346314 -2.17106165 10.39349204 -2.1875 8.125 C-2.20167969 7.24070312 -2.21585937 6.35640625 -2.23046875 5.4453125 C-2 3 -2 3 0 0 Z M1 3 C1 3.66 1 4.32 1 5 C1.66 5 2.32 5 3 5 C3 4.34 3 3.68 3 3 C2.34 3 1.68 3 1 3 Z M0 9 C0 9.99 0 10.98 0 12 C0.66 11.67 1.32 11.34 2 11 C1.34 10.34 0.68 9.68 0 9 Z " fill="#7C7C7C" transform="translate(298,277)"/>
<path d="M0 0 C0 6.6 0 13.2 0 20 C-0.66 20.33 -1.32 20.66 -2 21 C-2.33 20.34 -2.66 19.68 -3 19 C-3.78375 19.20625 -4.5675 19.4125 -5.375 19.625 C-6.24125 19.74875 -7.1075 19.8725 -8 20 C-8.66 19.34 -9.32 18.68 -10 18 C-8.02 17.34 -6.04 16.68 -4 16 C-4 11.05 -4 6.1 -4 1 C-2 0 -2 0 0 0 Z " fill="#124D29" transform="translate(357,242)"/>
<path d="M0 0 C1.98 0 3.96 0 6 0 C6 9.24 6 18.48 6 28 C3.36 28 0.72 28 -2 28 C-2 24.37 -2 20.74 -2 17 C0.25245881 19.68841859 1.88213958 21.64641875 3 25 C3.66 25.33 4.32 25.66 5 26 C4.67 18.41 4.34 10.82 4 3 C3.01 2.67 2.02 2.34 1 2 C1 5.3 1 8.6 1 12 C0.67 12 0.34 12 0 12 C-1.28571429 3.42857143 -1.28571429 3.42857143 0 0 Z " fill="#668A75" transform="translate(427,236)"/>
<path d="M0 0 C2.64 0 5.28 0 8 0 C9.04976964 3.14930893 9.10131595 5.38814456 9.0625 8.6875 C9.05347656 9.68136719 9.04445313 10.67523438 9.03515625 11.69921875 C9.02355469 12.45847656 9.01195312 13.21773437 9 14 C8.01 14 7.02 14 6 14 C6 15.32 6 16.64 6 18 C4.35 17.67 2.7 17.34 1 17 C0.80705592 12.17639811 1.24252386 8.50353262 3 4 C3.99 4.99 4.98 5.98 6 7 C6.33 5.02 6.66 3.04 7 1 C4.69 1 2.38 1 0 1 C0 0.67 0 0.34 0 0 Z M3 13 C4 16 4 16 4 16 Z " fill="#4BB1EC" transform="translate(288,238)"/>
<path d="M0 0 C1.65 0 3.3 0 5 0 C6.42944945 2.35438733 7.08661261 3.48032433 6.625 6.25 C6.41875 6.8275 6.2125 7.405 6 8 C5.67 6.02 5.34 4.04 5 2 C4.01 2 3.02 2 2 2 C2 8.93 2 15.86 2 23 C2.66 23 3.32 23 4 23 C4 20.36 4 17.72 4 15 C4.33 15 4.66 15 5 15 C5 18.63 5 22.26 5 26 C3.35 26 1.7 26 0 26 C0 17.42 0 8.84 0 0 Z " fill="#205234" transform="translate(420,238)"/>
<path d="M0 0 C0.33 0 0.66 0 1 0 C1 3.96 1 7.92 1 12 C-3.53219967 14.26609984 -5.17772925 13.92735976 -10 13 C-11.15837626 8.94568308 -10.83691257 6.78187881 -9 3 C-7.02 3 -5.04 3 -3 3 C-1.64560332 5.70879335 -1.93498549 8.00933268 -2 11 C-0.85185003 8.70370006 -0.69230191 6.92301914 -0.4375 4.375 C-0.35371094 3.55773437 -0.26992188 2.74046875 -0.18359375 1.8984375 C-0.12300781 1.27195312 -0.06242187 0.64546875 0 0 Z M-7 4 C-7.33 4.99 -7.66 5.98 -8 7 C-7.01 7.33 -6.02 7.66 -5 8 C-5.33 6.68 -5.66 5.36 -6 4 C-6.33 4 -6.66 4 -7 4 Z M-7 9 C-7.33 9.66 -7.66 10.32 -8 11 C-7.01 11 -6.02 11 -5 11 C-5 10.34 -5 9.68 -5 9 C-5.66 9 -6.32 9 -7 9 Z " fill="#737373" transform="translate(259,278)"/>
<path d="M0 0 C1.06734375 0.43119141 1.06734375 0.43119141 2.15625 0.87109375 C4.92575067 1.97052465 7.70487768 3.03003207 10.5 4.0625 C11.4178125 4.40410156 12.335625 4.74570312 13.28125 5.09765625 C18.4190017 6.80285832 23.23317202 7.19263019 28.625 7.1875 C29.6759082 7.1884668 29.6759082 7.1884668 30.74804688 7.18945312 C36.64536628 7.13010224 42.25603353 6.3629751 48 5 C47.34 5.33 46.68 5.66 46 6 C46 6.66 46 7.32 46 8 C43.19397735 9.40301133 40.84981633 9.1297542 37.71484375 9.1328125 C36.46251953 9.13410156 35.21019531 9.13539063 33.91992188 9.13671875 C32.60572266 9.13285156 31.29152344 9.12898438 29.9375 9.125 C28.61943359 9.12886719 27.30136719 9.13273437 25.94335938 9.13671875 C24.69232422 9.13542969 23.44128906 9.13414062 22.15234375 9.1328125 C20.99726318 9.13168457 19.84218262 9.13055664 18.65209961 9.12939453 C16 9 16 9 15 8 C13.41982048 7.73078423 11.83569272 7.48456993 10.25 7.25 C5.24169452 6.31004582 3.08567368 5.01137578 0 1 C0 0.67 0 0.34 0 0 Z " fill="#97D5F6" transform="translate(78,267)"/>
<path d="M0 0 C6.625 -0.25 6.625 -0.25 10 2 C10.1875 4.625 10.1875 4.625 10 7 C10.66 7 11.32 7 12 7 C12 7.99 12 8.98 12 10 C10.0625 10.5625 10.0625 10.5625 8 11 C7.67 10.67 7.34 10.34 7 10 C5.00041636 9.95919217 2.99954746 9.95745644 1 10 C-0.80411967 7.24075815 -1.0127245 6.11027897 -0.625 2.75 C-0.41875 1.8425 -0.2125 0.935 0 0 Z M3 1 C3 1.99 3 2.98 3 4 C3.66 4 4.32 4 5 4 C5 3.01 5 2.02 5 1 C4.34 1 3.68 1 3 1 Z M8 5 C9 9 9 9 9 9 Z M1 6 C1.33 6.66 1.66 7.32 2 8 C3.32 7.67 4.64 7.34 6 7 C4.35 6.67 2.7 6.34 1 6 Z " fill="#606060" transform="translate(433,281)"/>
<path d="M0 0 C0.33333333 1.66666667 0.66666667 3.33333333 1 5 C1.226875 5.86625 1.45375 6.7325 1.6875 7.625 C2 10 2 10 0 13 C-2.1640625 13.29296875 -2.1640625 13.29296875 -4.625 13.1875 C-5.44226563 13.16042969 -6.25953125 13.13335937 -7.1015625 13.10546875 C-7.72804688 13.07066406 -8.35453125 13.03585937 -9 13 C-8.67 12.34 -8.34 11.68 -8 11 C-7.77377919 9.29636178 -7.59111527 7.58671299 -7.4375 5.875 C-7.35371094 4.96492188 -7.26992188 4.05484375 -7.18359375 3.1171875 C-7.12300781 2.41851562 -7.06242187 1.71984375 -7 1 C-7.66 0.67 -8.32 0.34 -9 0 C-5.93109813 -1.53445094 -3.29905734 -0.54984289 0 0 Z M-5 1 C-5 2.32 -5 3.64 -5 5 C-4.01 5 -3.02 5 -2 5 C-2.33 3.68 -2.66 2.36 -3 1 C-3.66 1 -4.32 1 -5 1 Z M-5 7 C-5 8.65 -5 10.3 -5 12 C-3.68 11.67 -2.36 11.34 -1 11 C-1.33 9.68 -1.66 8.36 -2 7 C-2.99 7 -3.98 7 -5 7 Z " fill="#646464" transform="translate(320,278)"/>
<path d="M0 0 C3.875 1.75 3.875 1.75 5 4 C5.08342159 5.44848582 5.10732861 6.90070869 5.09765625 8.3515625 C5.09443359 9.20234375 5.09121094 10.053125 5.08789062 10.9296875 C5.07951172 11.81914062 5.07113281 12.70859375 5.0625 13.625 C5.05798828 14.5221875 5.05347656 15.419375 5.04882812 16.34375 C5.03702591 18.56256648 5.02056155 20.78125018 5 23 C4.67 23 4.34 23 4 23 C4 17.06 4 11.12 4 5 C2.68 5.33 1.36 5.66 0 6 C0.33 11.28 0.66 16.56 1 22 C-0.32 21.67 -1.64 21.34 -3 21 C-2.67 20.67 -2.34 20.34 -2 20 C-1.92667392 17.89700816 -1.91643495 15.79166436 -1.9375 13.6875 C-1.94652344 12.53636719 -1.95554687 11.38523438 -1.96484375 10.19921875 C-1.97644531 9.14347656 -1.98804688 8.08773437 -2 7 C-2 5.68 -2 4.36 -2 3 C-1.34 2.67 -0.68 2.34 0 2 C0 1.34 0 0.68 0 0 Z " fill="#6D9780" transform="translate(353,237)"/>
<path d="M0 0 C0.66 0 1.32 0 2 0 C2 0.99 2 1.98 2 3 C4.31 3 6.62 3 9 3 C9.66 6.3 10.32 9.6 11 13 C7.37 13 3.74 13 0 13 C-0.22786458 10.98177083 -0.45572917 8.96354167 -0.68359375 6.9453125 C-0.91292961 4.92595684 -0.91292961 4.92595684 -2 3 C-1.34 3 -0.68 3 0 3 C0 2.01 0 1.02 0 0 Z M2 4 C2 6.31 2 8.62 2 11 C2.99 10.67 3.98 10.34 5 10 C5.66 10.66 6.32 11.32 7 12 C7 9.36 7 6.72 7 4 C5.35 4 3.7 4 2 4 Z " fill="#818181" transform="translate(237,278)"/>
<path d="M0 0 C1.32 0 2.64 0 4 0 C4 5.61 4 11.22 4 17 C3.34 17 2.68 17 2 17 C2 17.66 2 18.32 2 19 C1.34 19 0.68 19 0 19 C-0.33 19.66 -0.66 20.32 -1 21 C-1.33 20.01 -1.66 19.02 -2 18 C-1.34 18 -0.68 18 0 18 C0 12.06 0 6.12 0 0 Z " fill="#0C4922" transform="translate(413,241)"/>
<path d="M0 0 C2.875 -0.1875 2.875 -0.1875 6 0 C8.56616632 3.84924948 8.55097676 6.4349304 9 11 C7.52031676 10.85950482 6.04125484 10.71245174 4.5625 10.5625 C3.73878906 10.48128906 2.91507813 10.40007812 2.06640625 10.31640625 C0 10 0 10 -1 9 C-1.23728814 2.47457627 -1.23728814 2.47457627 0 0 Z M3 1 C3 1.99 3 2.98 3 4 C3.66 4 4.32 4 5 4 C4.67 3.01 4.34 2.02 4 1 C3.67 1 3.34 1 3 1 Z M2 6 C3 8 3 8 3 8 Z " fill="#696969" transform="translate(195,281)"/>
<path d="M0 0 C0.99 0 1.98 0 3 0 C3.06058594 0.91523438 3.12117187 1.83046875 3.18359375 2.7734375 C3.26738281 3.96195312 3.35117188 5.15046875 3.4375 6.375 C3.51871094 7.55835938 3.59992188 8.74171875 3.68359375 9.9609375 C3.81084936 12.91518901 3.81084936 12.91518901 5 15 C3.52093108 15.02689216 2.04172517 15.04634621 0.5625 15.0625 C-0.67306641 15.07990234 -0.67306641 15.07990234 -1.93359375 15.09765625 C-4 15 -4 15 -5 14 C-5.23728814 7.47457627 -5.23728814 7.47457627 -4 5 C-2.35 5 -0.7 5 1 5 C0.67 3.35 0.34 1.7 0 0 Z M-1 6 C-3.30671915 8.71549154 -3.30671915 8.71549154 -2.625 11.1875 C-2.41875 11.785625 -2.2125 12.38375 -2 13 C-1.01 13 -0.02 13 1 13 C1 11.02 1 9.04 1 7 C0.34 6.67 -0.32 6.34 -1 6 Z " fill="#7F7F7F" transform="translate(209,276)"/>
<path d="M0 0 C0.99 0.33 1.98 0.66 3 1 C3.02698189 2.62490954 3.04638757 4.24994633 3.0625 5.875 C3.07410156 6.77992188 3.08570313 7.68484375 3.09765625 8.6171875 C3 11 3 11 2 13 C-3.41538462 13.36923077 -3.41538462 13.36923077 -6.375 11.5 C-6.91125 11.005 -7.4475 10.51 -8 10 C-7.67 8.68 -7.34 7.36 -7 6 C-6.38125 6.33 -5.7625 6.66 -5.125 7 C-3.08981656 8.14193235 -3.08981656 8.14193235 -1 8 C-1 7.34 -1 6.68 -1 6 C-0.34 6 0.32 6 1 6 C1 5.34 1 4.68 1 4 C0.34 4 -0.32 4 -1 4 C-1.33 3.01 -1.66 2.02 -2 1 C-1.34 0.67 -0.68 0.34 0 0 Z " fill="#255F3C" transform="translate(445,250)"/>
<path d="M0 0 C0.66 0.33 1.32 0.66 2 1 C1.67 1.66 1.34 2.32 1 3 C0.34 3 -0.32 3 -1 3 C-1 2.34 -1 1.68 -1 1 C-2.65 1 -4.3 1 -6 1 C-6 1.66 -6 2.32 -6 3 C-6.96679688 3.52013672 -6.96679688 3.52013672 -7.953125 4.05078125 C-10.79170559 6.75393338 -10.55435714 8.86052408 -10.70703125 12.66210938 C-10.72121094 13.49548828 -10.73539062 14.32886719 -10.75 15.1875 C-10.79447266 16.4549707 -10.79447266 16.4549707 -10.83984375 17.74804688 C-10.9104699 19.83151822 -10.95750795 21.91576506 -11 24 C-11.99 23.67 -12.98 23.34 -14 23 C-13.93981323 20.10200713 -13.85272994 17.20903763 -13.75 14.3125 C-13.73582031 13.49587891 -13.72164063 12.67925781 -13.70703125 11.83789062 C-13.49778309 6.66946111 -12.91707039 3.73299753 -9 0 C-5.90914327 -1.54542837 -3.32167685 -0.59315658 0 0 Z " fill="#588067" transform="translate(90,185)"/>
<path d="M0 0 C1.32 0.33 2.64 0.66 4 1 C4.33 5.29 4.66 9.58 5 14 C4.67 13.34 4.34 12.68 4 12 C2.04783565 13.95216435 1.15173355 15.53199953 0 18 C-0.66 18 -1.32 18 -2 18 C-2 16 -2 16 -1 15 C-1.33 15 -1.66 15 -2 15 C-2 12.03 -2 9.06 -2 6 C-1.01 6 -0.02 6 1 6 C0.67 4.02 0.34 2.04 0 0 Z " fill="#174F2B" transform="translate(197,238)"/>
<path d="M0 0 C0.845625 0.144375 1.69125 0.28875 2.5625 0.4375 C4.2640625 0.7159375 4.2640625 0.7159375 6 1 C6.969375 1.165 7.93875 1.33 8.9375 1.5 C14.40458259 2.27522116 19.92582987 2.36296773 25.4375 2.5625 C26.55060547 2.60568359 27.66371094 2.64886719 28.81054688 2.69335938 C31.54025844 2.79879888 34.27005143 2.90092029 37 3 C30.48632349 7.34245101 21.37914982 6.46391712 13.90136719 5.09057617 C9.0756134 4.10010881 4.52843866 2.960326 0 1 C0 0.67 0 0.34 0 0 Z " fill="#91CFF1" transform="translate(87,280)"/>
<path d="M0 0 C0.99 0 1.98 0 3 0 C3 6.6 3 13.2 3 20 C2.67 20 2.34 20 2 20 C1.67 15.71 1.34 11.42 1 7 C-0.32 7 -1.64 7 -3 7 C-2.01 8.485 -2.01 8.485 -1 10 C-3.31 10.66 -5.62 11.32 -8 12 C-8.99 11.01 -9.98 10.02 -11 9 C-9.68 8.67 -8.36 8.34 -7 8 C-7 6.02 -7 4.04 -7 2 C-6.01 2 -5.02 2 -4 2 C-4 2.66 -4 3.32 -4 4 C-2.68 4 -1.36 4 0 4 C0 2.68 0 1.36 0 0 Z " fill="#799F88" transform="translate(342,240)"/>
<path d="M0 0 C2.35358251 2.35358251 2.27871904 2.92968394 2.4140625 6.1328125 C2.44967285 6.85871582 2.4852832 7.58461914 2.52197266 8.33251953 C2.55597168 9.25403809 2.5899707 10.17555664 2.625 11.125 C2.74875 14.05375 2.8725 16.9825 3 20 C8.94 20.33 14.88 20.66 21 21 C21 21.33 21 21.66 21 22 C17.91698584 22.11644156 14.83453877 22.18732432 11.75 22.25 C10.44095703 22.30027344 10.44095703 22.30027344 9.10546875 22.3515625 C2.68045044 22.44965438 2.68045044 22.44965438 -0.671875 20.234375 C-2 18 -2 18 -1.78515625 16.203125 C-1.52605469 15.47609375 -1.26695313 14.7490625 -1 14 C-0.77882441 11.5861824 -0.59427758 9.16885403 -0.4375 6.75 C-0.35371094 5.48671875 -0.26992187 4.2234375 -0.18359375 2.921875 C-0.12300781 1.95765625 -0.06242187 0.9934375 0 0 Z " fill="#5D886E" transform="translate(92,188)"/>
<path d="M0 0 C6.93359375 -0.09765625 6.93359375 -0.09765625 9 0 C10.58272601 1.58272601 10.34735747 3.38034003 10.5625 5.5625 C10.64628906 6.38878906 10.73007813 7.21507812 10.81640625 8.06640625 C10.87699219 8.70449219 10.93757812 9.34257812 11 10 C9.35 10 7.7 10 6 10 C6.33 7.36 6.66 4.72 7 2 C6.01 2 5.02 2 4 2 C4.33 4.64 4.66 7.28 5 10 C3.35 10 1.7 10 0 10 C0 6.7 0 3.4 0 0 Z " fill="#7E7E7E" transform="translate(224,281)"/>
<path d="M0 0 C0.33 0 0.66 0 1 0 C1 5.61 1 11.22 1 17 C1.66 17 2.32 17 3 17 C3.33 16.01 3.66 15.02 4 14 C4 15.65 4 17.3 4 19 C-1.61 19 -7.22 19 -13 19 C-13 18.67 -13 18.34 -13 18 C-9.7 18 -6.4 18 -3 18 C-3 16.68 -3 15.36 -3 14 C-4.65 14 -6.3 14 -8 14 C-8 13.67 -8 13.34 -8 13 C-5.69 13 -3.38 13 -1 13 C-1.01160156 12.39671875 -1.02320313 11.7934375 -1.03515625 11.171875 C-1.04417969 10.37265625 -1.05320312 9.5734375 -1.0625 8.75 C-1.07410156 7.96109375 -1.08570313 7.1721875 -1.09765625 6.359375 C-1.00385306 4.09308998 -0.63241063 2.1711105 0 0 Z " fill="#79C7F0" transform="translate(286,245)"/>
<path d="M0 0 C1.65 0 3.3 0 5 0 C5 7.26 5 14.52 5 22 C4.34 22 3.68 22 3 22 C2.86722656 20.92878906 2.73445313 19.85757812 2.59765625 18.75390625 C2.4194944 17.35674231 2.24109681 15.95960841 2.0625 14.5625 C1.97548828 13.85544922 1.88847656 13.14839844 1.79882812 12.41992188 C1.61783809 8.91182032 1.61783809 8.91182032 0 6 C-0.04080783 4.00041636 -0.04254356 1.99954746 0 0 Z " fill="#39B6FC" transform="translate(314,239)"/>
<path d="M0 0 C0.99 0.66 1.98 1.32 3 2 C3.65454545 8.87272727 3.65454545 8.87272727 1.875 11.9375 C-0.82676164 13.46849826 -2.89435505 13.8757742 -6 14 C-8.8125 13 -8.8125 13 -11 11 C-12 7.5 -12 7.5 -12 4 C-11.01 3.01 -10.02 2.02 -9 1 C-9.33 3.97 -9.66 6.94 -10 10 C-4.42169984 10.12469099 -4.42169984 10.12469099 1 9 C1.07427838 5.65747276 1.06546953 3.1964086 0 0 Z " fill="#83CBF1" transform="translate(152,227)"/>
<path d="M0 0 C0.33 0 0.66 0 1 0 C1.33 2.97 1.66 5.94 2 9 C2.66 8.01 3.32 7.02 4 6 C4 11.94 4 17.88 4 24 C2.68 24 1.36 24 0 24 C0 16.08 0 8.16 0 0 Z " fill="#46B2ED" transform="translate(301,239)"/>
<path d="M0 0 C0.33 0 0.66 0 1 0 C1.64366321 11.76473305 0.58518583 22.86749344 -6 33 C-7.04005702 29.61981469 -7.08004482 26.5219721 -7 23 C-6.01 22.67 -5.02 22.34 -4 22 C-1.96034823 17.3644278 -1.42457361 12.60720012 -0.875 7.625 C-0.78863281 6.88894531 -0.70226562 6.15289062 -0.61328125 5.39453125 C-0.40318115 3.59700818 -0.20079233 1.79858658 0 0 Z " fill="#9EDAF5" transform="translate(162,226)"/>
<path d="M0 0 C1.4540625 0.0309375 1.4540625 0.0309375 2.9375 0.0625 C5.15288462 5.47788462 5.15288462 5.47788462 4.0625 8.4375 C3.69125 8.97375 3.32 9.51 2.9375 10.0625 C0.93795254 10.10504356 -1.06291636 10.10330783 -3.0625 10.0625 C-4.0625 9.0625 -4.0625 9.0625 -4.1953125 7.25 C-4.19273437 6.528125 -4.19015625 5.80625 -4.1875 5.0625 C-4.19007813 4.340625 -4.19265625 3.61875 -4.1953125 2.875 C-3.96314697 -0.29337667 -3.23031119 0.06592472 0 0 Z M-1.0625 2.0625 C-1.3925 2.7225 -1.7225 3.3825 -2.0625 4.0625 C-1.0725 4.0625 -0.0825 4.0625 0.9375 4.0625 C0.9375 3.4025 0.9375 2.7425 0.9375 2.0625 C0.2775 2.0625 -0.3825 2.0625 -1.0625 2.0625 Z M-2.0625 6.0625 C-1.4025 6.7225 -0.7425 7.3825 -0.0625 8.0625 C-0.0625 7.4025 -0.0625 6.7425 -0.0625 6.0625 C-0.7225 6.0625 -1.3825 6.0625 -2.0625 6.0625 Z " fill="#565656" transform="translate(219.0625,280.9375)"/>
<path d="M0 0 C2.31 0 4.62 0 7 0 C7.33 1.65 7.66 3.3 8 5 C7.01 5 6.02 5 5 5 C4.67 4.67 4.34 4.34 4 4 C4 4.99 4 5.98 4 7 C6.91765 8.9451 8.62537285 9.45276317 12 10 C11.34 10.66 10.68 11.32 10 12 C6.36015686 11.86764207 3.9039093 11.75811748 1.0625 9.375 C-0.37148358 6.16962495 -0.20006114 3.46772635 0 0 Z " fill="#688E75" transform="translate(434,253)"/>
<path d="M0 0 C0.99 0.66 1.98 1.32 3 2 C2.34 2 1.68 2 1 2 C0.96261719 3.24136719 0.92523438 4.48273438 0.88671875 5.76171875 C0.8210405 7.40367511 0.7545938 9.04560087 0.6875 10.6875 C0.66494141 11.50412109 0.64238281 12.32074219 0.61914062 13.16210938 C0.40949347 17.86964104 0.0501896 21.18161451 -3 25 C-5.44666506 26.22333253 -6.79229374 26.04546823 -9.5 25.8125 C-10.69109375 25.72935547 -10.69109375 25.72935547 -11.90625 25.64453125 C-14 25 -14 25 -15.28125 22.94921875 C-15.5184375 22.30597656 -15.755625 21.66273438 -16 21 C-15.01 21.33 -14.02 21.66 -13 22 C-11.6069375 22.36491312 -10.21090552 22.71862979 -8.8125 23.0625 C-7.554375 23.371875 -6.29625 23.68125 -5 24 C-4.67 23.01 -4.34 22.02 -4 21 C-3.34 21 -2.68 21 -2 21 C-1.97494385 20.39937744 -1.9498877 19.79875488 -1.92407227 19.17993164 C-1.8084472 16.47388563 -1.68557064 13.76821717 -1.5625 11.0625 C-1.52318359 10.11697266 -1.48386719 9.17144531 -1.44335938 8.19726562 C-1.40146484 7.29814453 -1.35957031 6.39902344 -1.31640625 5.47265625 C-1.27974854 4.64000244 -1.24309082 3.80734863 -1.20532227 2.94946289 C-1 1 -1 1 0 0 Z " fill="#577E68" transform="translate(94,225)"/>
<path d="M0 0 C0.78375 0.04125 1.5675 0.0825 2.375 0.125 C2.375 1.115 2.375 2.105 2.375 3.125 C0.725 2.795 -0.925 2.465 -2.625 2.125 C-2.625 10.705 -2.625 19.285 -2.625 28.125 C-3.945 27.465 -5.265 26.805 -6.625 26.125 C-6.29757812 25.64160156 -5.97015625 25.15820312 -5.6328125 24.66015625 C-4.16332065 20.9636438 -4.41361949 17.49945788 -4.5 13.5625 C-4.51353516 12.41104492 -4.51353516 12.41104492 -4.52734375 11.23632812 C-4.55220953 9.19911043 -4.5880004 7.16203345 -4.625 5.125 C-4.625 1.22254579 -3.95783286 0.18846823 0 0 Z " fill="#D6EEE3" transform="translate(422.625,235.875)"/>
<path d="M0 0 C0.78375 0.78375 1.5675 1.5675 2.375 2.375 C6.3966367 5.78759075 10.89727996 6.32434339 16 7 C16 7.33 16 7.66 16 8 C13.69 8 11.38 8 9 8 C9.33 9.65 9.66 11.3 10 13 C6.56072421 11.7580393 3.74792181 10.44259716 1 8 C1 7.34 1 6.68 1 6 C0.505 5.505 0.01 5.01 -0.5 4.5 C-0.995 4.005 -1.49 3.51 -2 3 C-2 2.34 -2 1.68 -2 1 C-1.34 0.67 -0.68 0.34 0 0 Z " fill="#4CB7F3" transform="translate(77,267)"/>
<path d="M0 0 C1.65 0 3.3 0 5 0 C5 3.3 5 6.6 5 10 C4.34 9.34 3.68 8.68 3 8 C0.94077598 10.05922402 1.58572421 14.21708124 1.4375 17.0625 C1.39431641 17.82111328 1.35113281 18.57972656 1.30664062 19.36132812 C1.20026367 21.24065438 1.09960066 23.12030244 1 25 C2.32 25.33 3.64 25.66 5 26 C3.35 26 1.7 26 0 26 C0 17.42 0 8.84 0 0 Z " fill="#215334" transform="translate(398,238)"/>
<path d="M0 0 C1.99954746 -0.04254356 4.00041636 -0.04080783 6 0 C7 1 7 1 7.1328125 2.8125 C7.13023437 3.534375 7.12765625 4.25625 7.125 5 C7.12757813 5.721875 7.13015625 6.44375 7.1328125 7.1875 C7 9 7 9 6 10 C3 10.125 3 10.125 0 10 C-1 9 -1 9 -1.125 5.5625 C-1 2 -1 2 0 0 Z M3 1 C2.67 1.99 2.34 2.98 2 4 C2.99 3.67 3.98 3.34 5 3 C4.34 2.34 3.68 1.68 3 1 Z M2 6 C3 8 3 8 3 8 Z " fill="#888888" transform="translate(382,281)"/>
<path d="M0 0 C3 0.125 3 0.125 4 1.125 C4.04063832 2.79117115 4.042721 4.45888095 4 6.125 C2.02 6.125 0.04 6.125 -2 6.125 C-2 6.785 -2 7.445 -2 8.125 C-0.02 7.795 1.96 7.465 4 7.125 C3.67 8.115 3.34 9.105 3 10.125 C1.00045254 10.16754356 -1.00041636 10.16580783 -3 10.125 C-4 9.125 -4 9.125 -4.1328125 7.3125 C-4.13023437 6.590625 -4.12765625 5.86875 -4.125 5.125 C-4.12757813 4.403125 -4.13015625 3.68125 -4.1328125 2.9375 C-3.90343964 -0.1927649 -3.18691942 0.13278831 0 0 Z M-1 1.125 C-1.33 2.115 -1.66 3.105 -2 4.125 C-1.01 3.795 -0.02 3.465 1 3.125 C0.34 2.465 -0.32 1.805 -1 1.125 Z " fill="#7B7B7B" transform="translate(428,280.875)"/>
<path d="M0 0 C2.31 0 4.62 0 7 0 C7 0.99 7 1.98 7 3 C6.01 3.66 5.02 4.32 4 5 C3.61615491 7.93597539 3.396157 10.68027373 3.3125 13.625 C3.27833984 14.42679688 3.24417969 15.22859375 3.20898438 16.0546875 C3.12643122 18.03596318 3.06154084 20.01796037 3 22 C2.01 22 1.02 22 0 22 C0 14.74 0 7.48 0 0 Z " fill="#73957F" transform="translate(377,236)"/>
<path d="M0 0 C2.97 0.33 5.94 0.66 9 1 C8.34 3.64 7.68 6.28 7 9 C5.02 9 3.04 9 1 9 C0.67 9.99 0.34 10.98 0 12 C0 8.04 0 4.08 0 0 Z M5 5 C6 8 6 8 6 8 Z " fill="#4CBCFA" transform="translate(259,238)"/>
<path d="M0 0 C3.61018081 3.40961521 6.29176215 6.85301079 9 11 C10.62048766 13.04423588 12.30180195 15.01876895 14 17 C11.53199953 15.84826645 9.95216435 14.95216435 8 13 C7.01 14.485 7.01 14.485 6 16 C4.98696238 14.27843904 3.99005152 12.54738194 3 10.8125 C2.443125 9.84957031 1.88625 8.88664063 1.3125 7.89453125 C-0.02216758 4.95111257 -0.27915461 3.18119943 0 0 Z " fill="#9BD2EB" transform="translate(60,247)"/>
<path d="M0 0 C1.97909398 -0.02686553 3.95828971 -0.04633375 5.9375 -0.0625 C7.03964844 -0.07410156 8.14179688 -0.08570313 9.27734375 -0.09765625 C12 0 12 0 13 1 C13.08748207 2.92667507 13.10697334 4.85651861 13.09765625 6.78515625 C13.09443359 7.95498047 13.09121094 9.12480469 13.08789062 10.33007812 C13.07951172 11.56177734 13.07113281 12.79347656 13.0625 14.0625 C13.05798828 15.29806641 13.05347656 16.53363281 13.04882812 17.80664062 C13.03699608 20.87114117 13.02051173 23.93554721 13 27 C12.67 27 12.34 27 12 27 C11.67 18.75 11.34 10.5 11 2 C7.7 2 4.4 2 1 2 C0.67 3.32 0.34 4.64 0 6 C0 4.02 0 2.04 0 0 Z " fill="#B7E5F3" transform="translate(245,236)"/>
<path d="M0 0 C1.2065625 0.0309375 1.2065625 0.0309375 2.4375 0.0625 C2.7675 1.7125 3.0975 3.3625 3.4375 5.0625 C2.7775 5.0625 2.1175 5.0625 1.4375 5.0625 C1.4375 5.7225 1.4375 6.3825 1.4375 7.0625 C2.0975 7.0625 2.7575 7.0625 3.4375 7.0625 C3.4375 8.0525 3.4375 9.0425 3.4375 10.0625 C1.4575 10.0625 -0.5225 10.0625 -2.5625 10.0625 C-2.8925 9.0725 -3.2225 8.0825 -3.5625 7.0625 C-4.2225 6.7325 -4.8825 6.4025 -5.5625 6.0625 C-3.26136364 0.07954545 -3.26136364 0.07954545 0 0 Z M-0.5625 1.0625 C-1.91868499 2.18784105 -1.91868499 2.18784105 -1.625 5.125 C-1.604375 6.094375 -1.58375 7.06375 -1.5625 8.0625 C-0.5725 8.0625 0.4175 8.0625 1.4375 8.0625 C0.7775 7.7325 0.1175 7.4025 -0.5625 7.0625 C-0.5625 5.7425 -0.5625 4.4225 -0.5625 3.0625 C0.0975 2.7325 0.7575 2.4025 1.4375 2.0625 C0.7775 1.7325 0.1175 1.4025 -0.5625 1.0625 Z " fill="#838383" transform="translate(418.5625,280.9375)"/>
<path d="M0 0 C3.63 0 7.26 0 11 0 C11.33 1.98 11.66 3.96 12 6 C11.34 6 10.68 6 10 6 C9.67 5.34 9.34 4.68 9 4 C8.67 5.98 8.34 7.96 8 10 C7.01 10.33 6.02 10.66 5 11 C5 7.7 5 4.4 5 1 C1.72226496 1.75150023 1.72226496 1.75150023 0 5 C0 3.35 0 1.7 0 0 Z M6 5 C7 8 7 8 7 8 Z " fill="#285E3E" transform="translate(205,238)"/>
<path d="M0 0 C0 5.94 0 11.88 0 18 C-4 19 -4 19 -6.25 18.0625 C-7.11625 17.5365625 -7.11625 17.5365625 -8 17 C-6.35 17 -4.7 17 -3 17 C-3.10699219 16.10796875 -3.21398437 15.2159375 -3.32421875 14.296875 C-3.44410156 13.12640625 -3.56398438 11.9559375 -3.6875 10.75 C-3.81511719 9.58984375 -3.94273437 8.4296875 -4.07421875 7.234375 C-4.0157704 4.68725753 -3.53320095 0 0 0 Z " fill="#8FD4F6" transform="translate(316,246)"/>
<path d="M0 0 C2.64 0 5.28 0 8 0 C8.22786458 2.01822917 8.45572917 4.03645833 8.68359375 6.0546875 C8.91292961 8.07404316 8.91292961 8.07404316 10 10 C8.02 10 6.04 10 4 10 C4.33 7.03 4.66 4.06 5 1 C4.34 1 3.68 1 3 1 C2.34 3.64 1.68 6.28 1 9 C0.34 8.34 -0.32 7.68 -1 7 C-0.625 3.375 -0.625 3.375 0 0 Z " fill="#848484" transform="translate(404,281)"/>
<path d="M0 0 C0.66 0.33 1.32 0.66 2 1 C1.67 3.64 1.34 6.28 1 9 C-0.32 9.33 -1.64 9.66 -3 10 C-2.67 11.65 -2.34 13.3 -2 15 C-2.99 14.67 -3.98 14.34 -5 14 C-5.25 7.375 -5.25 7.375 -3 4 C-2.34 4 -1.68 4 -1 4 C-0.67 2.68 -0.34 1.36 0 0 Z " fill="#3CB5FB" transform="translate(158,239)"/>
<path d="M0 0 C0.66 0.33 1.32 0.66 2 1 C3.28317892 4.84953676 3.06643637 7.94738135 3 12 C0.69 11.34 -1.62 10.68 -4 10 C-4.33 13.3 -4.66 16.6 -5 20 C-5.33 20 -5.66 20 -6 20 C-6 14.72 -6 9.44 -6 4 C-5.01 4 -4.02 4 -3 4 C-3 5.65 -3 7.3 -3 9 C-1.68 9 -0.36 9 1 9 C0.67 6.03 0.34 3.06 0 0 Z " fill="#96B29F" transform="translate(186,238)"/>
<path d="M0 0 C2.40820361 2.40820361 2.68097423 3.65022937 3 7 C2.0625 9.3125 2.0625 9.3125 1 11 C1.99 11 2.98 11 4 11 C4 11.99 4 12.98 4 14 C5.65 14 7.3 14 9 14 C9 14.66 9 15.32 9 16 C6.03 16 3.06 16 0 16 C0 10.72 0 5.44 0 0 Z " fill="#0A4921" transform="translate(220,247)"/>
<path d="M0 0 C1.125 1.8125 1.125 1.8125 1.125 5.8125 C-1.25 5.9375 -1.25 5.9375 -3.875 5.8125 C-4.535 5.1525 -5.195 4.4925 -5.875 3.8125 C-5.875 5.4625 -5.875 7.1125 -5.875 8.8125 C-8.16513653 5.3772952 -8.05342973 3.827169 -7.875 -0.1875 C-2.40664557 -1.52420886 -2.40664557 -1.52420886 0 0 Z M-0.875 1.8125 C0.125 4.8125 0.125 4.8125 0.125 4.8125 Z " fill="#306244" transform="translate(336.875,253.1875)"/>
<path d="M0 0 C0.33 0 0.66 0 1 0 C1 3.96 1 7.92 1 12 C1.99 12 2.98 12 4 12 C4 14.97 4 17.94 4 21 C2.68 21 1.36 21 0 21 C0 14.07 0 7.14 0 0 Z " fill="#47B2ED" transform="translate(249,242)"/>
<path d="M0 0 C0.33 0 0.66 0 1 0 C1 1.65 1 3.3 1 5 C1.99 5.33 2.98 5.66 4 6 C3.67 6.66 3.34 7.32 3 8 C2.96904738 11.6081916 3.06776369 15.20549459 3.16015625 18.8125 C3 22 3 22 1 24 C-0.25248502 21.49502996 -0.11374406 19.79146726 -0.09765625 16.9921875 C-0.09443359 16.00605469 -0.09121094 15.01992187 -0.08789062 14.00390625 C-0.07951172 12.97136719 -0.07113281 11.93882812 -0.0625 10.875 C-0.05798828 9.83472656 -0.05347656 8.79445312 -0.04882812 7.72265625 C-0.03701952 5.14838038 -0.02055075 2.57421854 0 0 Z " fill="#D8E7DE" transform="translate(384,237)"/>
<path d="M0 0 C1.98 0 3.96 0 6 0 C6.54372951 3.05847848 7 5.88772805 7 9 C5.68 9 4.36 9 3 9 C3 7.35 3 5.7 3 4 C1.68 4 0.36 4 -1 4 C-0.67 2.68 -0.34 1.36 0 0 Z " fill="#0D4923" transform="translate(180,238)"/>
<path d="M0 0 C1.32 0 2.64 0 4 0 C4.99 2.97 5.98 5.94 7 9 C4.69 9.66 2.38 10.32 0 11 C0 10.34 0 9.68 0 9 C-0.66 8.67 -1.32 8.34 -2 8 C-1.01 8 -0.02 8 1 8 C0.67 5.36 0.34 2.72 0 0 Z " fill="#949494" transform="translate(339,281)"/>
<path d="M0 0 C0.66 0 1.32 0 2 0 C2.33 2.97 2.66 5.94 3 9 C3.99 9 4.98 9 6 9 C6.99 9.33 7.98 9.66 9 10 C7 12 7 12 4 12.3125 C3.01 12.209375 2.02 12.10625 1 12 C-1.44576827 8.33134759 -1.23607254 6.32799657 -1 2 C-0.67 1.34 -0.34 0.68 0 0 Z " fill="#727272" transform="translate(176,279)"/>
<path d="M0 0 C1.231394 2.46278801 1.07159196 4.2795055 1 7 C4.1622274 8.73169596 7.26742722 9.7128976 10.75 10.625 C11.73484375 10.88539063 12.7196875 11.14578125 13.734375 11.4140625 C14.85585937 11.70410156 14.85585937 11.70410156 16 12 C16 12.33 16 12.66 16 13 C14.22950311 13.05410687 12.45853151 13.09284119 10.6875 13.125 C9.20830078 13.15980469 9.20830078 13.15980469 7.69921875 13.1953125 C5 13 5 13 2 11 C1.01 10.67 0.02 10.34 -1 10 C-2.23076923 4.58461538 -2.23076923 4.58461538 -1.0625 1.625 C-0.5365625 0.820625 -0.5365625 0.820625 0 0 Z " fill="#3A664B" transform="translate(54,212)"/>
<path d="M0 0 C1.32 0 2.64 0 4 0 C4 1.98 4 3.96 4 6 C5.32 6 6.64 6 8 6 C7.67 6.99 7.34 7.98 7 9 C1.125 8.125 1.125 8.125 0 7 C-0.04092937 4.66702567 -0.04241723 2.33294775 0 0 Z " fill="#43B3F3" transform="translate(232,254)"/>
<path d="M0 0 C-0.99 0.33 -1.98 0.66 -3 1 C-3 1.66 -3 2.32 -3 3 C-4.32 3.33 -5.64 3.66 -7 4 C-7.33 10.6 -7.66 17.2 -8 24 C-7.34 24.33 -6.68 24.66 -6 25 C-6 25.66 -6 26.32 -6 27 C-6.99 26.67 -7.98 26.34 -9 26 C-9.11597653 22.22942453 -9.18717396 18.45930607 -9.25 14.6875 C-9.28351563 13.61564453 -9.31703125 12.54378906 -9.3515625 11.43945312 C-9.36445313 10.41142578 -9.37734375 9.38339844 -9.390625 8.32421875 C-9.41157227 7.37635498 -9.43251953 6.42849121 -9.45410156 5.4519043 C-9 3 -9 3 -7.14746094 1.17895508 C-4.58310973 -0.22887257 -2.88277782 -0.24023149 0 0 Z " fill="#4D6F59" transform="translate(414,236)"/>
<path d="M0 0 C0.33 0 0.66 0 1 0 C1 2.97 1 5.94 1 9 C0.34 9 -0.32 9 -1 9 C-1.66 10.65 -2.32 12.3 -3 14 C-9.75 15.125 -9.75 15.125 -12 14 C-12 13.34 -12 12.68 -12 12 C-10.741875 11.979375 -9.48375 11.95875 -8.1875 11.9375 C-5.98250089 11.7498175 -5.98250089 11.7498175 -4 11 C-1.94140009 7.48045821 -0.79751818 3.98759092 0 0 Z " fill="#87CEF1" transform="translate(156,234)"/>
<path d="M0 0 C1.65 0 3.3 0 5 0 C5.33 1.65 5.66 3.3 6 5 C4.68 5.33 3.36 5.66 2 6 C1.67 8.31 1.34 10.62 1 13 C0.67 13 0.34 13 0 13 C0 8.71 0 4.42 0 0 Z " fill="#39B5FB" transform="translate(302,239)"/>
<path d="M0 0 C2.97 0 5.94 0 9 0 C9 0.99 9 1.98 9 3 C7.35 3 5.7 3 4 3 C3.67 4.98 3.34 6.96 3 9 C2.34 8.67 1.68 8.34 1 8 C0.40644386 5.35139573 0.25790731 2.70802678 0 0 Z " fill="#084B23" transform="translate(220,238)"/>
<path d="M0 0 C0 3.96 0 7.92 0 12 C-0.99 11.67 -1.98 11.34 -3 11 C-4.60725635 7.78548731 -4.05748185 4.56387464 -4 1 C-1 0 -1 0 0 0 Z " fill="#0E4825" transform="translate(217,251)"/>
<path d="M0 0 C4.59306496 1.4859916 7.43569245 3.85014682 11 7 C10.67 8.65 10.34 10.3 10 12 C6.40459445 8.50732032 3.12221448 4.92506963 0 1 C0 0.67 0 0.34 0 0 Z " fill="#8CC9EA" transform="translate(126,229)"/>
<path d="M0 0 C0.99 0.33 1.98 0.66 3 1 C3 2.65 3 4.3 3 6 C-0.78187881 7.83691257 -2.94568308 8.15837626 -7 7 C-6.67 5.68 -6.34 4.36 -6 3 C-4.35 3 -2.7 3 -1 3 C-0.67 2.01 -0.34 1.02 0 0 Z " fill="#35B6FC" transform="translate(150,230)"/>
<path d="M0 0 C0.33 0 0.66 0 1 0 C1.0825 0.78375 1.165 1.5675 1.25 2.375 C1.72806339 5.14749104 1.72806339 5.14749104 4.0625 6.3125 C4.701875 6.539375 5.34125 6.76625 6 7 C5.360625 7.226875 4.72125 7.45375 4.0625 7.6875 C1.72806339 8.85250896 1.72806339 8.85250896 1.25 11.625 C1.1675 12.40875 1.085 13.1925 1 14 C-1 10.25 -1 10.25 -1 8 C-2.65 7.67 -4.3 7.34 -6 7 C-6 6.67 -6 6.34 -6 6 C-4.35 6 -2.7 6 -1 6 C-0.67 4.02 -0.34 2.04 0 0 Z " fill="#98AA9F" transform="translate(173,213)"/>
<path d="M0 0 C0.598125 0.763125 1.19625 1.52625 1.8125 2.3125 C4.24309391 5.31848595 4.24309391 5.31848595 7 8 C7.66 8 8.32 8 9 8 C9.33 7.34 9.66 6.68 10 6 C10.33 6.99 10.66 7.98 11 9 C10 10 10 10 7.1875 10.4375 C4 10 4 10 1.625 7 C1.08875 6.01 0.5525 5.02 0 4 C-0.33 4.99 -0.66 5.98 -1 7 C-1.66 7 -2.32 7 -3 7 C-2.67 5.35 -2.34 3.7 -2 2 C-1.34 2 -0.68 2 0 2 C0 1.34 0 0.68 0 0 Z " fill="#8B8B8B" transform="translate(368,281)"/>
<path d="M0 0 C0 0.66 0 1.32 0 2 C-0.66 2 -1.32 2 -2 2 C-2 3.32 -2 4.64 -2 6 C-2.66 6 -3.32 6 -4 6 C-4.66 4.68 -5.32 3.36 -6 2 C-6.33 3.65 -6.66 5.3 -7 7 C-7.33 6.34 -7.66 5.68 -8 5 C-8.66 5 -9.32 5 -10 5 C-9.67 3.35 -9.34 1.7 -9 0 C-3.375 -1.125 -3.375 -1.125 0 0 Z " fill="#717171" transform="translate(366,281)"/>
<path d="M0 0 C2.475 0.495 2.475 0.495 5 1 C5 3.31 5 5.62 5 8 C3.35 8.33 1.7 8.66 0 9 C0 6.03 0 3.06 0 0 Z " fill="#124A29" transform="translate(183,252)"/>
<path d="M0 0 C0.33 0 0.66 0 1 0 C1.95261487 4.76307437 2.08333357 9.1666528 2 14 C0.68 13.67 -0.64 13.34 -2 13 C-2.19294408 8.17639811 -1.75747614 4.50353262 0 0 Z M0 9 C1 12 1 12 1 12 Z " fill="#73CDF3" transform="translate(291,242)"/>
<path d="M0 0 C1.32 0 2.64 0 4 0 C4.33 4.95 4.66 9.9 5 15 C3.68 15.33 2.36 15.66 1 16 C1.33 11.38 1.66 6.76 2 2 C1.34 2 0.68 2 0 2 C0 1.34 0 0.68 0 0 Z " fill="#555555" transform="translate(258,276)"/>
<path d="M0 0 C0 0.99 0 1.98 0 3 C-2.31 2.67 -4.62 2.34 -7 2 C-7.66 3.32 -8.32 4.64 -9 6 C-9.66 5.67 -10.32 5.34 -11 5 C-10.6875 3.125 -10.6875 3.125 -10 1 C-6.1496895 -1.56687367 -4.41430237 -0.83288724 0 0 Z " fill="#537D64" transform="translate(446,237)"/>
<path d="M0 0 C0.91146792 2.50510366 1.07955677 3.74133182 0.28515625 6.32421875 C-2.96509915 12.6066613 -2.96509915 12.6066613 -6.1171875 13.8046875 C-8.3125 14.0625 -8.3125 14.0625 -12 14 C-11.278125 13.443125 -10.55625 12.88625 -9.8125 12.3125 C-5.33310603 8.62944274 -1.77557531 5.64955779 0 0 Z " fill="#89D1F5" transform="translate(138,258)"/>
<path d="M0 0 C2.25245881 2.68841859 3.88213958 4.64641875 5 8 C6.49985609 9.66710346 6.49985609 9.66710346 8 11 C5.36 11 2.72 11 0 11 C0 7.37 0 3.74 0 0 Z " fill="#6A9579" transform="translate(425,253)"/>
<path d="M0 0 C0 2.97 0 5.94 0 9 C-1.32 9.33 -2.64 9.66 -4 10 C-4 7.03 -4 4.06 -4 1 C-1 0 -1 0 0 0 Z " fill="#3AB7FA" transform="translate(313,251)"/>
<path d="M0 0 C1.35439668 2.70879335 1.06501451 5.00933268 1 8 C-0.32 8 -1.64 8 -3 8 C-3.99 5.69 -4.98 3.38 -6 1 C-4 0 -4 0 0 0 Z " fill="#0F4825" transform="translate(341,250)"/>
<path d="M0 0 C0 0.33 0 0.66 0 1 C-1.98 1 -3.96 1 -6 1 C-5.938125 1.928125 -5.87625 2.85625 -5.8125 3.8125 C-6 7 -6 7 -9 10 C-9.33 7.03 -9.66 4.06 -10 1 C-6.1496895 -1.56687367 -4.41430237 -0.83288724 0 0 Z " fill="#4A7A5B" transform="translate(186,237)"/>
<path d="M0 0 C0.66 0 1.32 0 2 0 C2.042721 1.66611905 2.04063832 3.33382885 2 5 C1.67 5.33 1.34 5.66 1 6 C1.66 6.33 2.32 6.66 3 7 C2.67 8.32 2.34 9.64 2 11 C0.02 10.34 -1.96 9.68 -4 9 C-3.67 7.35 -3.34 5.7 -3 4 C-2.01 4 -1.02 4 0 4 C0 2.68 0 1.36 0 0 Z " fill="#656565" transform="translate(287,282)"/>
<path d="M0 0 C1.32 0 2.64 0 4 0 C4.33 4.95 4.66 9.9 5 15 C4.01 15 3.02 15 2 15 C2 10.71 2 6.42 2 2 C1.34 2 0.68 2 0 2 C0 1.34 0 0.68 0 0 Z " fill="#4D4D4D" transform="translate(333,276)"/>
<path d="M0 0 C2.14915785 3.22373677 2.38286803 4.26703674 2 8 C1.34 8.66 0.68 9.32 0 10 C-0.71408334 11.98356483 -1.38617742 13.98315437 -2 16 C-2.33 16 -2.66 16 -3 16 C-3.37851209 10.06997733 -2.10575375 5.52760359 0 0 Z " fill="#8CCBED" transform="translate(160,218)"/>
<path d="M0 0 C6.27 0 12.54 0 19 0 C19.66 1.32 20.32 2.64 21 4 C18.525 3.505 18.525 3.505 16 3 C16 2.34 16 1.68 16 1 C14.77023438 1.14308594 14.77023438 1.14308594 13.515625 1.2890625 C11.89914063 1.45535156 11.89914063 1.45535156 10.25 1.625 C9.18265625 1.74101562 8.1153125 1.85703125 7.015625 1.9765625 C4 2 4 2 0 0 Z " fill="#0D4827" transform="translate(96,210)"/>
<path d="M0 0 C0.33 0 0.66 0 1 0 C1.66 2.97 2.32 5.94 3 9 C1.35 9.33 -0.3 9.66 -2 10 C-2.33 10.99 -2.66 11.98 -3 13 C-5.64 12.67 -8.28 12.34 -11 12 C-10.443125 11.731875 -9.88625 11.46375 -9.3125 11.1875 C-8.549375 10.795625 -7.78625 10.40375 -7 10 C-6.13375 9.608125 -5.2675 9.21625 -4.375 8.8125 C-1.1259965 6.33299733 -0.81139553 3.90945118 0 0 Z " fill="#8CA497" transform="translate(158,202)"/>
<path d="M0 0 C2.9375 0.375 2.9375 0.375 6 1 C6.33 1.66 6.66 2.32 7 3 C9.52733235 3.65555119 9.52733235 3.65555119 12 4 C8.36576791 6.32590854 5.22911669 6.16265833 1 6 C1 4 1 4 2 3 C1.01 2.67 0.02 2.34 -1 2 C-0.67 1.34 -0.34 0.68 0 0 Z " fill="#AEAEAE" transform="translate(178,277)"/>
<path d="M0 0 C2.1519437 3.22791555 2.20086443 4.28400809 2 8 C1.01 7.67 0.02 7.34 -1 7 C-1 5.68 -1 4.36 -1 3 C-2.32 3 -3.64 3 -5 3 C-4.95875 4.093125 -4.9175 5.18625 -4.875 6.3125 C-5 10 -5 10 -7 13 C-6.94004678 11.20739868 -6.8512759 9.41574205 -6.75 7.625 C-6.70359375 6.62726563 -6.6571875 5.62953125 -6.609375 4.6015625 C-6 2 -6 2 -4.078125 0.6484375 C-2 0 -2 0 0 0 Z M0 4 C1 7 1 7 1 7 Z " fill="#ABDDEF" transform="translate(237,251)"/>
<path d="M0 0 C1.98 0.99 3.96 1.98 6 3 C6.33 2.34 6.66 1.68 7 1 C7.33 3.64 7.66 6.28 8 9 C5 8 5 8 4 7 C2.67405895 6.63837971 1.34061543 6.30271961 0 6 C0 4.02 0 2.04 0 0 Z M1 4 C2 6 2 6 2 6 Z " fill="#D8D8D8" transform="translate(196,283)"/>
<path d="M0 0 C2.64 0.33 5.28 0.66 8 1 C8 2.65 8 4.3 8 6 C6.35 6 4.7 6 3 6 C3 4.68 3 3.36 3 2 C2.01 2 1.02 2 0 2 C0 1.34 0 0.68 0 0 Z " fill="#4EB6F0" transform="translate(236,239)"/>
<path d="M0 0 C1.98 0.66 3.96 1.32 6 2 C6.33 3.65 6.66 5.3 7 7 C5.68 7 4.36 7 3 7 C3 6.34 3 5.68 3 5 C1.68 4.34 0.36 3.68 -1 3 C-0.67 2.01 -0.34 1.02 0 0 Z " fill="#0C4823" transform="translate(335,237)"/>
<path d="M0 0 C2.375 -0.1875 2.375 -0.1875 5 0 C7.1519437 3.22791555 7.20086443 4.28400809 7 8 C6.67 6.68 6.34 5.36 6 4 C3.69 4.33 1.38 4.66 -1 5 C-0.67 3.35 -0.34 1.7 0 0 Z " fill="#295A3C" transform="translate(411,237)"/>
<path d="M0 0 C0.33 0 0.66 0 1 0 C1 3.96 1 7.92 1 12 C-3 14 -3 14 -5.75 13.125 C-6.4925 12.75375 -7.235 12.3825 -8 12 C-7.01 11.67 -6.02 11.34 -5 11 C-4.34 11.33 -3.68 11.66 -3 12 C-3 9.69 -3 7.38 -3 5 C-2.67 5 -2.34 5 -2 5 C-2 6.98 -2 8.96 -2 11 C-0.85185003 8.70370006 -0.69230191 6.92301914 -0.4375 4.375 C-0.35371094 3.55773437 -0.26992188 2.74046875 -0.18359375 1.8984375 C-0.12300781 1.27195312 -0.06242187 0.64546875 0 0 Z " fill="#CCCCCC" transform="translate(259,278)"/>
<path d="M0 0 C2.54247553 0.84749184 4.71108972 1.62665383 7 3 C7.33 3.99 7.66 4.98 8 6 C2.25 6.125 2.25 6.125 0 5 C0 3.35 0 1.7 0 0 Z " fill="#0C4921" transform="translate(331,257)"/>
<path d="M0 0 C0.33 0 0.66 0 1 0 C1 4.29 1 8.58 1 13 C-0.98 13 -2.96 13 -5 13 C-5 9.37 -5 5.74 -5 2 C-4.67 2 -4.34 2 -4 2 C-3.896875 3.093125 -3.79375 4.18625 -3.6875 5.3125 C-3.31246423 9.25306412 -3.31246423 9.25306412 0 12 C0 8.04 0 4.08 0 0 Z " fill="#548265" transform="translate(217,251)"/>
<path d="M0 0 C0.99 0.33 1.98 0.66 3 1 C4.25 8.625 4.25 8.625 2 12 C1.34 12 0.68 12 0 12 C0 10 0 10 1 9 C0.67 9 0.34 9 0 9 C0 6.03 0 3.06 0 0 Z " fill="#6B977A" transform="translate(195,244)"/>
<path d="M0 0 C1.98 0 3.96 0 6 0 C6 2.97 6 5.94 6 9 C5.01 9 4.02 9 3 9 C2.67 6.69 2.34 4.38 2 2 C1.34 2.66 0.68 3.32 0 4 C0 2.68 0 1.36 0 0 Z " fill="#3EB6FC" transform="translate(289,239)"/>
<path d="M0 0 C1.65 1.65 3.3 3.3 5 5 C1.67465243 6.10844919 -0.62182575 5.84454356 -4 5 C-3.6875 3.0625 -3.6875 3.0625 -3 1 C-2.01 0.67 -1.02 0.34 0 0 Z " fill="#9D9D9D" transform="translate(302,285)"/>
<path d="M0 0 C1.99954746 -0.04254356 4.00041636 -0.04080783 6 0 C7 1 7 1 7.0625 3.5625 C7.041875 4.366875 7.02125 5.17125 7 6 C5.02 6 3.04 6 1 6 C1 5 1 4 1 3 C0.67 2.01 0.34 1.02 0 0 Z " fill="#949494" transform="translate(425,281)"/>
<path d="M0 0 C1.093125 0.185625 2.18625 0.37125 3.3125 0.5625 C6.93624133 1.2578068 6.93624133 1.2578068 10 0 C10 1.32 10 2.64 10 4 C6.6868604 5.04127245 5.39801692 5.18574123 2.1875 3.6875 C1.465625 3.130625 0.74375 2.57375 0 2 C0 1.34 0 0.68 0 0 Z " fill="#4C755C" transform="translate(345,260)"/>
<path d="M0 0 C1.32 0.99 2.64 1.98 4 3 C2.92598892 5.91517292 2.22189824 7.77810176 0 10 C-1.25664978 7.09399739 -2 5.20395416 -2 2 C-1.34 2 -0.68 2 0 2 C0 1.34 0 0.68 0 0 Z " fill="#59C0F7" transform="translate(240,247)"/>
<path d="M0 0 C2.64 1.98 5.28 3.96 8 6 C7.34 7.32 6.68 8.64 6 10 C4.62437146 8.71034824 3.29233607 7.37310707 2 6 C2 5.34 2 4.68 2 4 C1.34 4 0.68 4 0 4 C0 2.68 0 1.36 0 0 Z " fill="#50B0E8" transform="translate(67,259)"/>
<path d="M0 0 C0.32613618 4.67461851 -0.29417212 7.16674383 -3 11 C-4.04005702 7.61981469 -4.08004482 4.5219721 -4 1 C-1 0 -1 0 0 0 Z " fill="#75C5F1" transform="translate(159,248)"/>
<path d="M0 0 C2.31 0 4.62 0 7 0 C7 0.66 7 1.32 7 2 C6.38125 2.04125 5.7625 2.0825 5.125 2.125 C4.42375 2.41375 3.7225 2.7025 3 3 C1.6954344 5.99615946 1.6954344 5.99615946 1 9 C0.67 9 0.34 9 0 9 C0 6.03 0 3.06 0 0 Z " fill="#38B6FD" transform="translate(275,239)"/>
<path d="M0 0 C0 0.99 0 1.98 0 3 C-1.75 4.60546875 -1.75 4.60546875 -4 6.1875 C-4.7425 6.71730469 -5.485 7.24710937 -6.25 7.79296875 C-6.8275 8.19128906 -7.405 8.58960938 -8 9 C-8 7.02 -8 5.04 -8 3 C-5.525 3.495 -5.525 3.495 -3 4 C-3 3.01 -3 2.02 -3 1 C-2.01 0.67 -1.02 0.34 0 0 Z " fill="#7DCAF2" transform="translate(148,267)"/>
<path d="M0 0 C0.33 0 0.66 0 1 0 C1 1.98 1 3.96 1 6 C2.65 6 4.3 6 6 6 C6 7.65 6 9.3 6 11 C5.67 10.34 5.34 9.68 5 9 C4.01 9.33 3.02 9.66 2 10 C1.34 9.67 0.68 9.34 0 9 C0 6.03 0 3.06 0 0 Z " fill="#26593A" transform="translate(224,252)"/>
<path d="M0 0 C0.99 0 1.98 0 3 0 C3.33 0.99 3.66 1.98 4 3 C3.01 3.33 2.02 3.66 1 4 C-0.68538601 5.99665314 -0.68538601 5.99665314 -2 8 C-2.66 7.67 -3.32 7.34 -4 7 C-3.67 5.68 -3.34 4.36 -3 3 C-2.34 3 -1.68 3 -1 3 C-0.67 2.01 -0.34 1.02 0 0 Z " fill="#084C23" transform="translate(350,237)"/>
<path d="M0 0 C0.99 0.33 1.98 0.66 3 1 C3 2.65 3 4.3 3 6 C3.66 6 4.32 6 5 6 C5 6.99 5 7.98 5 9 C3.68 9.33 2.36 9.66 1 10 C1 8.02 1 6.04 1 4 C-0.32 3.67 -1.64 3.34 -3 3 C-2.01 2.01 -1.02 1.02 0 0 Z " fill="#C9C9C9" transform="translate(440,282)"/>
<path d="M0 0 C3.3 0.33 6.6 0.66 10 1 C10 1.33 10 1.66 10 2 C7.69 2 5.38 2 3 2 C3.33 3.65 3.66 5.3 4 7 C-0.875 5.25 -0.875 5.25 -2 3 C-1.34 3 -0.68 3 0 3 C0 2.01 0 1.02 0 0 Z " fill="#63C0F7" transform="translate(83,273)"/>
<path d="M0 0 C0.66 0 1.32 0 2 0 C2.33 1.98 2.66 3.96 3 6 C3.99 6 4.98 6 6 6 C6 6.66 6 7.32 6 8 C4.02 8 2.04 8 0 8 C0 5.36 0 2.72 0 0 Z " fill="#38B6FC" transform="translate(275,254)"/>
<path d="M0 0 C0.33 1.65 0.66 3.3 1 5 C0.34 5 -0.32 5 -1 5 C-1 4.01 -1 3.02 -1 2 C-2.32 1.67 -3.64 1.34 -5 1 C-5 2.65 -5 4.3 -5 6 C-5.33 6 -5.66 6 -6 6 C-6 4.35 -6 2.7 -6 1 C-6.99 0.67 -7.98 0.34 -9 0 C-5.93109813 -1.53445094 -3.29905734 -0.54984289 0 0 Z " fill="#6F6F6F" transform="translate(320,278)"/>
<path d="M0 0 C-0.99 0.33 -1.98 0.66 -3 1 C-3.33 1.66 -3.66 2.32 -4 3 C-4.66 3 -5.32 3 -6 3 C-6.33 4.98 -6.66 6.96 -7 9 C-7.33 9 -7.66 9 -8 9 C-8 6.36 -8 3.72 -8 1 C-4.93251126 -0.86240388 -3.40254489 -1.2151946 0 0 Z " fill="#517F61" transform="translate(353,237)"/>
<path d="M0 0 C-0.66 0 -1.32 0 -2 0 C-2 0.66 -2 1.32 -2 2 C-5.21451269 3.60725635 -8.43612536 3.05748185 -12 3 C-11 1 -11 1 -9.2578125 0.33203125 C-8.55398437 0.16058594 -7.85015625 -0.01085937 -7.125 -0.1875 C-6.42632812 -0.36667969 -5.72765625 -0.54585938 -5.0078125 -0.73046875 C-3 -1 -3 -1 0 0 Z " fill="#82CBF3" transform="translate(126,273)"/>
<path d="M0 0 C1.485 0.99 1.485 0.99 3 2 C2.34 2 1.68 2 1 2 C0.67 7.94 0.34 13.88 0 20 C-0.33 20 -0.66 20 -1 20 C-1.02888514 16.85418577 -1.04675923 13.70840531 -1.0625 10.5625 C-1.07087891 9.66466797 -1.07925781 8.76683594 -1.08789062 7.84179688 C-1.09111328 6.98779297 -1.09433594 6.13378906 -1.09765625 5.25390625 C-1.10551147 4.06776733 -1.10551147 4.06776733 -1.11352539 2.85766602 C-1 1 -1 1 0 0 Z " fill="#96B6A2" transform="translate(94,225)"/>
<path d="M0 0 C0.33 0 0.66 0 1 0 C1.33 2.31 1.66 4.62 2 7 C1.01 7.66 0.02 8.32 -1 9 C-1.99 8.34 -2.98 7.68 -4 7 C-3.67 6.34 -3.34 5.68 -3 5 C-3.66 4.67 -4.32 4.34 -5 4 C-3.35 4 -1.7 4 0 4 C0 2.68 0 1.36 0 0 Z " fill="#C8C8C8" transform="translate(222,282)"/>
<path d="M0 0 C0.33 0 0.66 0 1 0 C1 2.31 1 4.62 1 7 C1.99 7 2.98 7 4 7 C4 7.66 4 8.32 4 9 C2.35 9 0.7 9 -1 9 C-1.09765625 2.84765625 -1.09765625 2.84765625 -1 1 C-0.67 0.67 -0.34 0.34 0 0 Z " fill="#555555" transform="translate(238,282)"/>
<path d="M0 0 C1.65 0 3.3 0 5 0 C5.33 1.65 5.66 3.3 6 5 C5.34 5 4.68 5 4 5 C4 5.66 4 6.32 4 7 C3.34 7 2.68 7 2 7 C2.33 5.35 2.66 3.7 3 2 C2.01 1.67 1.02 1.34 0 1 C0 0.67 0 0.34 0 0 Z " fill="#B3B3B3" transform="translate(416,281)"/>
<path d="M0 0 C2 2 2 2 2.125 5.625 C2.08375 6.73875 2.0425 7.8525 2 9 C1.01 9.33 0.02 9.66 -1 10 C-1 8.68 -1 7.36 -1 6 C-0.34 6 0.32 6 1 6 C1 5.34 1 4.68 1 4 C0.34 4 -0.32 4 -1 4 C-1.33 3.01 -1.66 2.02 -2 1 C-1.34 0.67 -0.68 0.34 0 0 Z " fill="#0A4A23" transform="translate(445,250)"/>
<path d="M0 0 C0.66 0 1.32 0 2 0 C2 3.63 2 7.26 2 11 C1.01 10.34 0.02 9.68 -1 9 C-0.67 6.03 -0.34 3.06 0 0 Z " fill="#EFF5F1" transform="translate(202,236)"/>
<path d="M0 0 C1.98 0 3.96 0 6 0 C6 1.65 6 3.3 6 5 C4.35 5 2.7 5 1 5 C1.99 4.67 2.98 4.34 4 4 C4 3.34 4 2.68 4 2 C3.01 2.33 2.02 2.66 1 3 C0.67 2.01 0.34 1.02 0 0 Z " fill="#878787" transform="translate(216,281)"/>
<path d="M0 0 C1.32 0 2.64 0 4 0 C4 2.97 4 5.94 4 9 C3.34 9 2.68 9 2 9 C1.855625 7.88625 1.71125 6.7725 1.5625 5.625 C1.21627965 2.17857953 1.21627965 2.17857953 0 0 Z " fill="#4C4C4C" transform="translate(322,281)"/>
<path d="M0 0 C0.33 0 0.66 0 1 0 C1 2.97 1 5.94 1 9 C0.34 9 -0.32 9 -1 9 C-1.33 9.99 -1.66 10.98 -2 12 C-2.66 11.67 -3.32 11.34 -4 11 C-3.525625 9.9275 -3.05125 8.855 -2.5625 7.75 C-1.46233668 5.19160135 -0.54832997 2.74164983 0 0 Z " fill="#98D7F4" transform="translate(156,234)"/>
<path d="M0 0 C3.65316671 1.24976756 4.78065836 1.67098753 7 5 C6.34 5.66 5.68 6.32 5 7 C0 1.125 0 1.125 0 0 Z " fill="#C0DAE8" transform="translate(126,229)"/>
<path d="M0 0 C0.66 0.33 1.32 0.66 2 1 C2 2.98 2 4.96 2 7 C3.32 7.66 4.64 8.32 6 9 C4.35 9.33 2.7 9.66 1 10 C-0.80411967 7.24075815 -1.0127245 6.11027897 -0.625 2.75 C-0.41875 1.8425 -0.2125 0.935 0 0 Z " fill="#D0D0D0" transform="translate(433,281)"/>
<path d="M0 0 C2.52259061 1.97420135 2.9929808 2.96745642 3.6875 6.1875 C3.790625 7.115625 3.89375 8.04375 4 9 C3.01 8.67 2.02 8.34 1 8 C0.67 5.36 0.34 2.72 0 0 Z " fill="#535353" transform="translate(400,282)"/>
<path d="M0 0 C2.97 0.495 2.97 0.495 6 1 C6.33 2.65 6.66 4.3 7 6 C6.67 5.34 6.34 4.68 6 4 C4.02111039 3.27306096 2.02045442 2.60183749 0 2 C0 1.34 0 0.68 0 0 Z " fill="#424242" transform="translate(372,283)"/>
<path d="M0 0 C-0.33 1.65 -0.66 3.3 -1 5 C-1.33 3.68 -1.66 2.36 -2 1 C-3.65 1 -5.3 1 -7 1 C-7 2.65 -7 4.3 -7 6 C-7.33 6 -7.66 6 -8 6 C-8 4.02 -8 2.04 -8 0 C-2.25 -1.125 -2.25 -1.125 0 0 Z " fill="#B3D2C2" transform="translate(337,253)"/>
<path d="M0 0 C0.33 0 0.66 0 1 0 C1.144375 0.78375 1.28875 1.5675 1.4375 2.375 C1.87798925 4.96421018 1.87798925 4.96421018 3 7 C2.34 7 1.68 7 1 7 C1.66 8.65 2.32 10.3 3 12 C2.01 12 1.02 12 0 12 C0 8.04 0 4.08 0 0 Z " fill="#1A5230" transform="translate(176,250)"/>
<path d="M0 0 C0.99 0.33 1.98 0.66 3 1 C3 2.98 3 4.96 3 7 C2.01 6.67 1.02 6.34 0 6 C0 4.02 0 2.04 0 0 Z " fill="#3AB5FA" transform="translate(233,241)"/>
<path d="M0 0 C0.33 0 0.66 0 1 0 C1 6.27 1 12.54 1 19 C0.67 19 0.34 19 0 19 C0 12.73 0 6.46 0 0 Z " fill="#FFFFFF" transform="translate(395,244)"/>
<path d="M0 0 C1.65 0 3.3 0 5 0 C5.33 0.66 5.66 1.32 6 2 C4.35 2.33 2.7 2.66 1 3 C0.67 3.99 0.34 4.98 0 6 C-1.125 2.25 -1.125 2.25 0 0 Z " fill="#B7B7B7" transform="translate(357,286)"/>
<path d="M0 0 C0.33 0 0.66 0 1 0 C1.33 1.65 1.66 3.3 2 5 C3.32 5.33 4.64 5.66 6 6 C4.25 7.125 4.25 7.125 2 8 C-0.25 7.125 -0.25 7.125 -2 6 C-1.34 5.67 -0.68 5.34 0 5 C0 3.35 0 1.7 0 0 Z " fill="#D1D1D1" transform="translate(275,284)"/>
<path d="M0 0 C0.66 0 1.32 0 2 0 C1.67 2.64 1.34 5.28 1 8 C0.34 8 -0.32 8 -1 8 C-1.04241723 5.66705225 -1.04092937 3.33297433 -1 1 C-0.67 0.67 -0.34 0.34 0 0 Z " fill="#4C4C4C" transform="translate(205,282)"/>
<path d="M0 0 C1.32 1.65 2.64 3.3 4 5 C3.01 5 2.02 5 1 5 C0.67 4.67 0.34 4.34 0 4 C-0.33 4.99 -0.66 5.98 -1 7 C-1.66 7 -2.32 7 -3 7 C-2.67 5.35 -2.34 3.7 -2 2 C-1.34 2 -0.68 2 0 2 C0 1.34 0 0.68 0 0 Z " fill="#FFFFFF" transform="translate(368,281)"/>
<path d="M0 0 C3.45925163 1.2491742 6.14693203 2.67527795 9 5 C5.625 4.75 5.625 4.75 2 4 C0.5625 1.9375 0.5625 1.9375 0 0 Z " fill="#8BCEF3" transform="translate(78,267)"/>
<path d="M0 0 C1.65 1.65 3.3 3.3 5 5 C4.67 5.66 4.34 6.32 4 7 C3.01 7 2.02 7 1 7 C0.67 4.69 0.34 2.38 0 0 Z " fill="#D0E8EC" transform="translate(60,247)"/>
<path d="M0 0 C1.65 0 3.3 0 5 0 C5 1.32 5 2.64 5 4 C3.35 4 1.7 4 0 4 C0 2.68 0 1.36 0 0 Z " fill="#4CB0E8" transform="translate(278,248)"/>
<path d="M0 0 C0.66 0 1.32 0 2 0 C2.66 0.66 3.32 1.32 4 2 C4.99 2.33 5.98 2.66 7 3 C4.64561267 4.42944945 3.51967567 5.08661261 0.75 4.625 C0.1725 4.41875 -0.405 4.2125 -1 4 C-0.67 2.68 -0.34 1.36 0 0 Z " fill="#BCBCBC" transform="translate(349,287)"/>
<path d="M0 0 C1.98 0 3.96 0 6 0 C6.33 1.65 6.66 3.3 7 5 C5 5 5 5 3.5 3.625 C3.005 3.08875 2.51 2.5525 2 2 C1.34 1.34 0.68 0.68 0 0 Z " fill="#7E7E7E" transform="translate(382,281)"/>
<path d="M0 0 C1.98 0.66 3.96 1.32 6 2 C6 2.66 6 3.32 6 4 C5.34 4 4.68 4 4 4 C4 4.66 4 5.32 4 6 C3.34 6 2.68 6 2 6 C1.34 4.02 0.68 2.04 0 0 Z " fill="#2C5B3E" transform="translate(440,252)"/>
<path d="M0 0 C-0.99 0.33 -1.98 0.66 -3 1 C-3 1.66 -3 2.32 -3 3 C-4.98 3.66 -6.96 4.32 -9 5 C-6.81610567 0.16423399 -5.20641855 -0.13701101 0 0 Z " fill="#89AE96" transform="translate(414,236)"/>
<path d="M0 0 C2.475 0.495 2.475 0.495 5 1 C5.33 1.99 5.66 2.98 6 4 C4.35 3.67 2.7 3.34 1 3 C0.67 2.01 0.34 1.02 0 0 Z " fill="#3E664D" transform="translate(111,210)"/>
<path d="M0 0 C0.99 1.32 1.98 2.64 3 4 C2.01 4.99 1.02 5.98 0 7 C-0.99 5.68 -1.98 4.36 -3 3 C-2.01 2.01 -1.02 1.02 0 0 Z " fill="#A1ABA3" transform="translate(168,202)"/>
<path d="M0 0 C0.99 0 1.98 0 3 0 C3 0.99 3 1.98 3 3 C2.01 3 1.02 3 0 3 C0 2.01 0 1.02 0 0 Z " fill="#8E8E8E" transform="translate(409,277)"/>
<path d="M0 0 C0.99 0 1.98 0 3 0 C3 0.99 3 1.98 3 3 C2.01 3 1.02 3 0 3 C0 2.01 0 1.02 0 0 Z " fill="#8F8F8F" transform="translate(340,277)"/>
<path d="M0 0 C0.99 0 1.98 0 3 0 C3 0.99 3 1.98 3 3 C2.01 2.67 1.02 2.34 0 2 C0 1.34 0 0.68 0 0 Z " fill="#838383" transform="translate(323,277)"/>
<path d="M0 0 C0.99 0 1.98 0 3 0 C2.67 0.99 2.34 1.98 2 3 C1.34 3 0.68 3 0 3 C0 2.01 0 1.02 0 0 Z " fill="#848484" transform="translate(244,277)"/>
<path d="M0 0 C0.99 0 1.98 0 3 0 C2.67 0.99 2.34 1.98 2 3 C1.34 3 0.68 3 0 3 C0 2.01 0 1.02 0 0 Z " fill="#8F8F8F" transform="translate(265,277)"/>
<path d="M0 0 C0.33 0 0.66 0 1 0 C1 1.98 1 3.96 1 6 C0.67 6 0.34 6 0 6 C0 4.02 0 2.04 0 0 Z " fill="#FFFFFF" transform="translate(229,284)"/>
<path d="M0 0 C0.33 0.99 0.66 1.98 1 3 C0.01 3.495 0.01 3.495 -1 4 C-0.67 2.68 -0.34 1.36 0 0 Z " fill="#FFFFFF" transform="translate(407,287)"/>
<path d="M0 0 C0.99 0.495 0.99 0.495 2 1 C2 1.66 2 2.32 2 3 C1.34 3 0.68 3 0 3 C0 2.01 0 1.02 0 0 Z " fill="#FFFFFF" transform="translate(434,249)"/>
<path d="M0 0 C0.66 0 1.32 0 2 0 C2 0.66 2 1.32 2 2 C1.34 2 0.68 2 0 2 C0 1.34 0 0.68 0 0 Z " fill="#FFFFFF" transform="translate(349,284)"/>
<path d="M0 0 C0.66 0 1.32 0 2 0 C2 0.66 2 1.32 2 2 C1.34 2 0.68 2 0 2 C0 1.34 0 0.68 0 0 Z " fill="#FFFFFF" transform="translate(184,283)"/>
<path d="M0 0 C0.33 0.66 0.66 1.32 1 2 C0.34 1.67 -0.32 1.34 -1 1 C-0.67 0.67 -0.34 0.34 0 0 Z " fill="#FFFFFF" transform="translate(380,290)"/>
<path d="M0 0 C0.66 0.66 1.32 1.32 2 2 C1.34 2 0.68 2 0 2 C0 1.34 0 0.68 0 0 Z " fill="#FFFFFF" transform="translate(316,286)"/>
<path d="" fill="#FFFFFF" transform="translate(0,0)"/>
<path d="" fill="#FFFFFF" transform="translate(0,0)"/>
<path d="" fill="#FFFFFF" transform="translate(0,0)"/>
<path d="M0 0 C2 1 2 1 2 1 Z " fill="#FFFFFF" transform="translate(389,287)"/>
<path d="M0 0 C2 1 2 1 2 1 Z " fill="#E5E5E5" transform="translate(374,287)"/>
<path d="" fill="#FFFFFF" transform="translate(0,0)"/>
<path d="" fill="#FFFFFF" transform="translate(0,0)"/>
<path d="" fill="#FFFFFF" transform="translate(0,0)"/>
<path d="" fill="#FFFFFF" transform="translate(0,0)"/>
<path d="" fill="#FFFFFF" transform="translate(0,0)"/>
<path d="" fill="#FFFFFF" transform="translate(0,0)"/>
<path d="" fill="#FFFFFF" transform="translate(0,0)"/>
<path d="" fill="#FFFFFF" transform="translate(0,0)"/>
<path d="" fill="#FFFFFF" transform="translate(0,0)"/>
<path d="" fill="#FFFFFF" transform="translate(0,0)"/>
<path d="" fill="#FFFFFF" transform="translate(0,0)"/>
<path d="" fill="#FFFFFF" transform="translate(0,0)"/>
<path d="" fill="#FFFFFF" transform="translate(0,0)"/>
<path d="" fill="#FFFFFF" transform="translate(0,0)"/>
<path d="" fill="#FFFFFF" transform="translate(0,0)"/>
<path d="" fill="#FFFFFF" transform="translate(0,0)"/>
<path d="" fill="#FFFFFF" transform="translate(0,0)"/>
<path d="" fill="#FFFFFF" transform="translate(0,0)"/>
<path d="" fill="#FFFFFF" transform="translate(0,0)"/>
</svg>
